<?xml version="1.0" encoding="utf-8"?>
<!-- Generator: Adobe Illustrator 28.1.0, SVG Export Plug-In . SVG Version: 6.00 Build 0)  -->
<svg version="1.1" id="Layer_1" xmlns="http://www.w3.org/2000/svg" xmlns:xlink="http://www.w3.org/1999/xlink" x="0px" y="0px"
	 viewBox="0 0 24 24" style="enable-background:new 0 0 24 24;" xml:space="preserve">
<style type="text/css">
	.st0{fill:#CCCCCC;}
	.st1{fill:#FFFFFF;stroke:#005288;stroke-width:0.672;stroke-linecap:round;stroke-linejoin:round;stroke-miterlimit:10;}
	.st2{fill:none;stroke:#00A4E4;stroke-width:0.672;stroke-linecap:round;stroke-linejoin:round;stroke-miterlimit:10;}
	.st3{fill:none;stroke:#005288;stroke-width:0.672;stroke-linecap:round;stroke-linejoin:round;stroke-miterlimit:10;}
	.st4{fill:none;stroke:#005288;stroke-width:0.6038;stroke-linecap:round;stroke-linejoin:round;stroke-miterlimit:10;}
	.st5{fill:none;stroke:#00A4E4;stroke-width:0.6038;stroke-linecap:round;stroke-linejoin:round;stroke-miterlimit:10;}
	.st6{fill:none;stroke:#005288;stroke-width:0.5233;stroke-linecap:round;stroke-linejoin:round;stroke-miterlimit:10;}
	.st7{fill:none;stroke:#00A4E4;stroke-width:0.72;stroke-linecap:round;stroke-linejoin:round;stroke-miterlimit:10;}
	.st8{fill:#FFFFFF;stroke:#005288;stroke-width:0.72;stroke-linecap:round;stroke-linejoin:round;stroke-miterlimit:10;}
	.st9{fill:none;stroke:#005288;stroke-width:0.6252;stroke-linecap:round;stroke-linejoin:round;stroke-miterlimit:10;}
	.st10{fill:none;stroke:#00A4E4;stroke-width:0.672;stroke-linecap:round;stroke-miterlimit:10;}
	.st11{fill:#FFFFFF;stroke:#00A4E4;stroke-width:0.5024;stroke-linecap:round;stroke-linejoin:round;stroke-miterlimit:10;}
	.st12{fill:#FFFFFF;stroke:#00A4E4;stroke-width:0.672;stroke-linecap:round;stroke-miterlimit:10;}
	.st13{fill:none;stroke:#00A4E4;stroke-width:0.72;stroke-linecap:round;stroke-miterlimit:10;}
	.st14{fill:#FFFFFF;stroke:#005288;stroke-width:0.5024;stroke-linecap:round;stroke-linejoin:round;stroke-miterlimit:10;}
	.st15{fill:#FFFFFF;stroke:#005288;stroke-width:0.768;stroke-linecap:round;stroke-linejoin:round;stroke-miterlimit:10;}
	.st16{fill:none;stroke:#005288;stroke-width:0.63;stroke-linecap:round;stroke-linejoin:round;stroke-miterlimit:10;}
	.st17{fill:#FFFFFF;stroke:#00A4E4;stroke-width:0.672;stroke-miterlimit:10;}
	.st18{fill:#FFFFFF;stroke:#005288;stroke-width:0.43;stroke-miterlimit:10;}
	.st19{fill:#FFFFFF;stroke:#005288;stroke-width:0.6375;stroke-linecap:round;stroke-linejoin:round;stroke-miterlimit:10;}
	.st20{fill:#FFFFFF;stroke:#005288;stroke-width:0.7104;stroke-linecap:round;stroke-linejoin:round;stroke-miterlimit:10;}
	.st21{fill:none;stroke:#005288;stroke-width:0.6375;stroke-linecap:round;stroke-linejoin:round;stroke-miterlimit:10;}
	.st22{fill:none;stroke:#00A4E4;stroke-width:0.7104;stroke-linecap:round;stroke-linejoin:round;stroke-miterlimit:10;}
	.st23{fill:none;stroke:#00A4E4;stroke-width:0.6375;stroke-linecap:round;stroke-linejoin:round;stroke-miterlimit:10;}
	.st24{fill:#FFFFFF;stroke:#005288;stroke-width:0.7488;stroke-miterlimit:10;}
	.st25{fill:none;stroke:#005288;stroke-width:0.63;stroke-linejoin:round;stroke-miterlimit:10;}
	.st26{fill:none;stroke:#005288;stroke-width:0.63;stroke-miterlimit:10;}
	.st27{fill:none;stroke:#00A4E4;stroke-width:0.63;stroke-linecap:round;stroke-linejoin:round;stroke-miterlimit:10;}
	.st28{fill:none;stroke:#00A4E4;stroke-width:0.546;stroke-linecap:round;stroke-linejoin:round;stroke-miterlimit:10;}
	.st29{fill:#FFFFFF;stroke:#005288;stroke-width:0.759;stroke-miterlimit:10;}
</style>
<g>
	<g>
		<path class="st24" d="M19.49,22.08H4.51c-0.47,0-0.85-0.38-0.85-0.85V2.77c0-0.47,0.38-0.85,0.85-0.85h14.97
			c0.47,0,0.85,0.38,0.85,0.85v18.46C20.34,21.7,19.96,22.08,19.49,22.08z"/>
		<g>
			<g>
				
					<line id="XMLID_00000084508043821467201150000002086760244169172110_" class="st25" x1="15.91" y1="3.16" x2="15.31" y2="3.16"/>
				
					<line id="XMLID_00000000222595412975456920000008181219392522207394_" class="st25" x1="17.15" y1="3.16" x2="16.55" y2="3.16"/>
				
					<line id="XMLID_00000096758052728573362700000012761585411918568373_" class="st25" x1="15.91" y1="4.16" x2="15.31" y2="4.16"/>
				
					<line id="XMLID_00000016791180505144189000000003789911280532880273_" class="st25" x1="17.15" y1="4.16" x2="16.55" y2="4.16"/>
			</g>
			<line id="XMLID_00000081606898564749389540000014019344663645319046_" class="st25" x1="18.39" y1="3.16" x2="17.78" y2="3.16"/>
			<line id="XMLID_00000147196440015312783480000004913444628603946663_" class="st25" x1="18.39" y1="4.16" x2="17.78" y2="4.16"/>
		</g>
		<line class="st26" x1="20.34" y1="5.41" x2="3.66" y2="5.41"/>
		<circle class="st26" cx="12" cy="13.74" r="6.14"/>
		<circle class="st26" cx="12" cy="13.74" r="5.17"/>
	</g>
	<g>
		<path class="st27" d="M9.42,15.42c0-0.33-0.3-0.53-0.3-0.87s0.3-0.54,0.3-0.87c0-0.33-0.3-0.53-0.3-0.87c0-0.34,0.3-0.54,0.3-0.87
			"/>
		<path class="st27" d="M10.53,16.29c0-0.34,0.3-0.54,0.3-0.87c0-0.33-0.3-0.53-0.3-0.87s0.3-0.54,0.3-0.87
			c0-0.33-0.3-0.53-0.3-0.87c0-0.34,0.3-0.54,0.3-0.87c0-0.33-0.3-0.53-0.3-0.87"/>
		<path class="st27" d="M12.25,15.42c0-0.33-0.3-0.53-0.3-0.87s0.3-0.54,0.3-0.87c0-0.33-0.3-0.53-0.3-0.87
			c0-0.34,0.3-0.54,0.3-0.87"/>
		<path class="st27" d="M13.37,16.29c0-0.34,0.3-0.54,0.3-0.87c0-0.33-0.3-0.53-0.3-0.87s0.3-0.54,0.3-0.87
			c0-0.33-0.3-0.53-0.3-0.87c0-0.34,0.3-0.54,0.3-0.87c0-0.33-0.3-0.53-0.3-0.87"/>
		<path class="st27" d="M15.09,15.42c0-0.33-0.3-0.53-0.3-0.87s0.3-0.54,0.3-0.87c0-0.33-0.3-0.53-0.3-0.87
			c0-0.34,0.3-0.54,0.3-0.87"/>
	</g>
	<path class="st28" d="M7.36,3.74c0,0.41-0.33,0.74-0.74,0.74c-0.41,0-0.74-0.33-0.74-0.74C5.88,3.33,6.21,3,6.62,3
		C7.03,3,7.36,3.33,7.36,3.74z"/>
</g>
</svg>
