<?xml version="1.0" encoding="utf-8"?>
<!-- Generator: Adobe Illustrator 28.1.0, SVG Export Plug-In . SVG Version: 6.00 Build 0)  -->
<svg version="1.1" id="Layer_1" xmlns="http://www.w3.org/2000/svg" xmlns:xlink="http://www.w3.org/1999/xlink" x="0px" y="0px"
	 viewBox="0 0 24 24" style="enable-background:new 0 0 24 24;" xml:space="preserve">
<style type="text/css">
	.st0{fill:#CCCCCC;}
	.st1{fill:#FFFFFF;stroke:#005288;stroke-width:0.672;stroke-linecap:round;stroke-linejoin:round;stroke-miterlimit:10;}
	.st2{fill:none;stroke:#00A4E4;stroke-width:0.672;stroke-linecap:round;stroke-linejoin:round;stroke-miterlimit:10;}
	.st3{fill:none;stroke:#005288;stroke-width:0.672;stroke-linecap:round;stroke-linejoin:round;stroke-miterlimit:10;}
	.st4{fill:none;stroke:#005288;stroke-width:0.6038;stroke-linecap:round;stroke-linejoin:round;stroke-miterlimit:10;}
	.st5{fill:none;stroke:#00A4E4;stroke-width:0.6038;stroke-linecap:round;stroke-linejoin:round;stroke-miterlimit:10;}
	.st6{fill:none;stroke:#005288;stroke-width:0.5233;stroke-linecap:round;stroke-linejoin:round;stroke-miterlimit:10;}
	.st7{fill:none;stroke:#00A4E4;stroke-width:0.72;stroke-linecap:round;stroke-linejoin:round;stroke-miterlimit:10;}
	.st8{fill:#FFFFFF;stroke:#005288;stroke-width:0.72;stroke-linecap:round;stroke-linejoin:round;stroke-miterlimit:10;}
	.st9{fill:none;stroke:#005288;stroke-width:0.6252;stroke-linecap:round;stroke-linejoin:round;stroke-miterlimit:10;}
	.st10{fill:none;stroke:#00A4E4;stroke-width:0.672;stroke-linecap:round;stroke-miterlimit:10;}
	.st11{fill:#FFFFFF;stroke:#00A4E4;stroke-width:0.5024;stroke-linecap:round;stroke-linejoin:round;stroke-miterlimit:10;}
	.st12{fill:#FFFFFF;stroke:#00A4E4;stroke-width:0.672;stroke-linecap:round;stroke-miterlimit:10;}
	.st13{fill:none;stroke:#00A4E4;stroke-width:0.72;stroke-linecap:round;stroke-miterlimit:10;}
	.st14{fill:#FFFFFF;stroke:#005288;stroke-width:0.5024;stroke-linecap:round;stroke-linejoin:round;stroke-miterlimit:10;}
	.st15{fill:#FFFFFF;stroke:#005288;stroke-width:0.768;stroke-linecap:round;stroke-linejoin:round;stroke-miterlimit:10;}
	.st16{fill:none;stroke:#005288;stroke-width:0.63;stroke-linecap:round;stroke-linejoin:round;stroke-miterlimit:10;}
	.st17{fill:#FFFFFF;stroke:#00A4E4;stroke-width:0.672;stroke-miterlimit:10;}
	.st18{fill:#FFFFFF;stroke:#005288;stroke-width:0.43;stroke-miterlimit:10;}
	.st19{fill:#FFFFFF;stroke:#005288;stroke-width:0.6375;stroke-linecap:round;stroke-linejoin:round;stroke-miterlimit:10;}
	.st20{fill:#FFFFFF;stroke:#005288;stroke-width:0.7104;stroke-linecap:round;stroke-linejoin:round;stroke-miterlimit:10;}
	.st21{fill:none;stroke:#005288;stroke-width:0.6375;stroke-linecap:round;stroke-linejoin:round;stroke-miterlimit:10;}
	.st22{fill:none;stroke:#00A4E4;stroke-width:0.7104;stroke-linecap:round;stroke-linejoin:round;stroke-miterlimit:10;}
	.st23{fill:none;stroke:#00A4E4;stroke-width:0.6375;stroke-linecap:round;stroke-linejoin:round;stroke-miterlimit:10;}
	.st24{fill:#FFFFFF;stroke:#005288;stroke-width:0.7488;stroke-miterlimit:10;}
	.st25{fill:none;stroke:#005288;stroke-width:0.63;stroke-linejoin:round;stroke-miterlimit:10;}
	.st26{fill:none;stroke:#005288;stroke-width:0.63;stroke-miterlimit:10;}
	.st27{fill:none;stroke:#00A4E4;stroke-width:0.63;stroke-linecap:round;stroke-linejoin:round;stroke-miterlimit:10;}
	.st28{fill:none;stroke:#00A4E4;stroke-width:0.546;stroke-linecap:round;stroke-linejoin:round;stroke-miterlimit:10;}
	.st29{fill:#FFFFFF;stroke:#005288;stroke-width:0.759;stroke-miterlimit:10;}
</style>
<g>
	<g>
		<g>
			<line class="st10" x1="18.49" y1="7.61" x2="18.49" y2="9.53"/>
			<line class="st10" x1="21.45" y1="7.61" x2="21.45" y2="9.53"/>
			<path class="st11" d="M21.77,10.64h-3.59c-0.31,0-0.55-0.25-0.55-0.55l0,0c0-0.31,0.25-0.55,0.55-0.55h3.59
				c0.31,0,0.55,0.25,0.55,0.55l0,0C22.32,10.39,22.07,10.64,21.77,10.64z"/>
			<path class="st12" d="M19.97,13.3L19.97,13.3c-0.92,0-1.66-0.74-1.66-1.66v-1h3.33v1C21.63,12.55,20.89,13.3,19.97,13.3z"/>
			<path class="st13" d="M15.81,18.98h3.02c0.63,0,1.13-0.51,1.13-1.13v-4.07"/>
		</g>
	</g>
	<path class="st1" d="M2.36,3.96c-0.38,0-0.68,0.29-0.68,1.12v8.37v5.46c0,0.84,0.31,1.12,0.68,1.12c0.38,0,0.68-0.29,0.68-1.12
		v-5.46V5.08C3.04,4.25,2.74,3.96,2.36,3.96z"/>
	<path class="st1" d="M14.2,3.96c-0.38,0-0.68,0.29-0.68,1.12v8.37v5.46c0,0.84,0.31,1.12,0.68,1.12c0.38,0,0.68-0.29,0.68-1.12
		v-5.46V5.08C14.89,4.25,14.58,3.96,14.2,3.96z"/>
	<path class="st14" d="M2.74,6.91c0,0.38,0.09,0.68,0.68,0.68h5.92h3.86c0.59,0,0.68-0.31,0.68-0.68c0-0.38-0.09-0.68-0.68-0.68
		H9.34H3.42C2.83,6.23,2.74,6.53,2.74,6.91z"/>
	<path class="st14" d="M2.74,10.11c0,0.38,0.09,0.68,0.68,0.68h5.92h3.86c0.59,0,0.68-0.31,0.68-0.68c0-0.38-0.09-0.68-0.68-0.68
		H9.34H3.42C2.83,9.42,2.74,9.73,2.74,10.11z"/>
	<path class="st14" d="M2.74,13.3c0,0.38,0.09,0.68,0.68,0.68h5.92h3.86c0.59,0,0.68-0.31,0.68-0.68c0-0.38-0.09-0.68-0.68-0.68
		H9.34H3.42C2.83,12.62,2.74,12.93,2.74,13.3z"/>
	<path class="st14" d="M2.74,16.5c0,0.38,0.09,0.68,0.68,0.68h5.92h3.86c0.59,0,0.68-0.31,0.68-0.68c0-0.38-0.09-0.68-0.68-0.68
		H9.34H3.42C2.83,15.82,2.74,16.13,2.74,16.5z"/>
</g>
</svg>
