<?xml version="1.0" encoding="utf-8"?>
<!-- Generator: Adobe Illustrator 28.1.0, SVG Export Plug-In . SVG Version: 6.00 Build 0)  -->
<svg version="1.1" id="Layer_1" xmlns="http://www.w3.org/2000/svg" xmlns:xlink="http://www.w3.org/1999/xlink" x="0px" y="0px"
	 viewBox="0 0 24 24" style="enable-background:new 0 0 24 24;" xml:space="preserve">
<style type="text/css">
	.st0{fill:#CCCCCC;}
	.st1{fill:#FFFFFF;stroke:#005288;stroke-width:0.672;stroke-linecap:round;stroke-linejoin:round;stroke-miterlimit:10;}
	.st2{fill:none;stroke:#00A4E4;stroke-width:0.672;stroke-linecap:round;stroke-linejoin:round;stroke-miterlimit:10;}
	.st3{fill:none;stroke:#005288;stroke-width:0.672;stroke-linecap:round;stroke-linejoin:round;stroke-miterlimit:10;}
	.st4{fill:none;stroke:#005288;stroke-width:0.6038;stroke-linecap:round;stroke-linejoin:round;stroke-miterlimit:10;}
	.st5{fill:none;stroke:#00A4E4;stroke-width:0.6038;stroke-linecap:round;stroke-linejoin:round;stroke-miterlimit:10;}
	.st6{fill:none;stroke:#005288;stroke-width:0.5233;stroke-linecap:round;stroke-linejoin:round;stroke-miterlimit:10;}
	.st7{fill:none;stroke:#00A4E4;stroke-width:0.72;stroke-linecap:round;stroke-linejoin:round;stroke-miterlimit:10;}
	.st8{fill:#FFFFFF;stroke:#005288;stroke-width:0.72;stroke-linecap:round;stroke-linejoin:round;stroke-miterlimit:10;}
	.st9{fill:none;stroke:#005288;stroke-width:0.6252;stroke-linecap:round;stroke-linejoin:round;stroke-miterlimit:10;}
	.st10{fill:none;stroke:#00A4E4;stroke-width:0.672;stroke-linecap:round;stroke-miterlimit:10;}
	.st11{fill:#FFFFFF;stroke:#00A4E4;stroke-width:0.5024;stroke-linecap:round;stroke-linejoin:round;stroke-miterlimit:10;}
	.st12{fill:#FFFFFF;stroke:#00A4E4;stroke-width:0.672;stroke-linecap:round;stroke-miterlimit:10;}
	.st13{fill:none;stroke:#00A4E4;stroke-width:0.72;stroke-linecap:round;stroke-miterlimit:10;}
	.st14{fill:#FFFFFF;stroke:#005288;stroke-width:0.5024;stroke-linecap:round;stroke-linejoin:round;stroke-miterlimit:10;}
	.st15{fill:#FFFFFF;stroke:#005288;stroke-width:0.768;stroke-linecap:round;stroke-linejoin:round;stroke-miterlimit:10;}
	.st16{fill:none;stroke:#005288;stroke-width:0.63;stroke-linecap:round;stroke-linejoin:round;stroke-miterlimit:10;}
	.st17{fill:#FFFFFF;stroke:#00A4E4;stroke-width:0.672;stroke-miterlimit:10;}
	.st18{fill:#FFFFFF;stroke:#005288;stroke-width:0.43;stroke-miterlimit:10;}
	.st19{fill:#FFFFFF;stroke:#005288;stroke-width:0.6375;stroke-linecap:round;stroke-linejoin:round;stroke-miterlimit:10;}
	.st20{fill:#FFFFFF;stroke:#005288;stroke-width:0.7104;stroke-linecap:round;stroke-linejoin:round;stroke-miterlimit:10;}
	.st21{fill:none;stroke:#005288;stroke-width:0.6375;stroke-linecap:round;stroke-linejoin:round;stroke-miterlimit:10;}
	.st22{fill:none;stroke:#00A4E4;stroke-width:0.7104;stroke-linecap:round;stroke-linejoin:round;stroke-miterlimit:10;}
	.st23{fill:none;stroke:#00A4E4;stroke-width:0.6375;stroke-linecap:round;stroke-linejoin:round;stroke-miterlimit:10;}
	.st24{fill:#FFFFFF;stroke:#005288;stroke-width:0.7488;stroke-miterlimit:10;}
	.st25{fill:none;stroke:#005288;stroke-width:0.63;stroke-linejoin:round;stroke-miterlimit:10;}
	.st26{fill:none;stroke:#005288;stroke-width:0.63;stroke-miterlimit:10;}
	.st27{fill:none;stroke:#00A4E4;stroke-width:0.63;stroke-linecap:round;stroke-linejoin:round;stroke-miterlimit:10;}
	.st28{fill:none;stroke:#00A4E4;stroke-width:0.546;stroke-linecap:round;stroke-linejoin:round;stroke-miterlimit:10;}
	.st29{fill:#FFFFFF;stroke:#005288;stroke-width:0.759;stroke-miterlimit:10;}
</style>
<g>
	<g>
		<path class="st7" d="M9.87,6.54c0-0.43-0.58-0.69-0.58-1.14c0-0.45,0.58-0.71,0.58-1.14c0-0.43-0.58-0.69-0.58-1.14
			S9.87,2.43,9.87,2"/>
		<path class="st7" d="M7.44,6.54c0-0.43-0.58-0.69-0.58-1.14c0-0.45,0.58-0.71,0.58-1.14c0-0.43-0.58-0.69-0.58-1.14
			S7.44,2.43,7.44,2"/>
		<path class="st7" d="M12.29,6.54c0-0.43-0.58-0.69-0.58-1.14c0-0.45,0.58-0.71,0.58-1.14c0-0.43-0.58-0.69-0.58-1.14
			S12.29,2.43,12.29,2"/>
		<path class="st7" d="M17.14,6.54c0-0.43-0.58-0.69-0.58-1.14c0-0.45,0.58-0.71,0.58-1.14c0-0.43-0.58-0.69-0.58-1.14
			S17.14,2.43,17.14,2"/>
		<path class="st7" d="M14.71,6.54c0-0.43-0.58-0.69-0.58-1.14c0-0.45,0.58-0.71,0.58-1.14c0-0.43-0.58-0.69-0.58-1.14
			S14.71,2.43,14.71,2"/>
	</g>
	<g>
		<path class="st8" d="M20.6,22H3.4c-0.88,0-1.6-0.72-1.6-1.6V9.77c0-0.88,0.72-1.6,1.6-1.6H20.6c0.88,0,1.6,0.72,1.6,1.6v10.63
			C22.2,21.29,21.48,22,20.6,22z"/>
		<g>
			<path class="st9" d="M4.23,9.8c-0.37,0-0.67,0.41-0.67,0.93v5.12v3.34c0,0.51,0.3,0.93,0.67,0.93c0.37,0,0.67-0.41,0.67-0.93
				v-3.34v-5.12C4.91,10.21,4.6,9.8,4.23,9.8z"/>
			<path class="st9" d="M7.33,9.8c-0.37,0-0.67,0.41-0.67,0.93v5.12v3.34c0,0.51,0.3,0.93,0.67,0.93c0.37,0,0.67-0.41,0.67-0.93
				v-3.34v-5.12C8.01,10.21,7.7,9.8,7.33,9.8z"/>
			<path class="st9" d="M10.43,9.8c-0.37,0-0.67,0.41-0.67,0.93v5.12v3.34c0,0.51,0.3,0.93,0.67,0.93c0.37,0,0.67-0.41,0.67-0.93
				v-3.34v-5.12C11.11,10.21,10.81,9.8,10.43,9.8z"/>
			<path class="st9" d="M13.53,9.8c-0.37,0-0.67,0.41-0.67,0.93v5.12v3.34c0,0.51,0.3,0.93,0.67,0.93c0.37,0,0.67-0.41,0.67-0.93
				v-3.34v-5.12C14.21,10.21,13.91,9.8,13.53,9.8z"/>
			<path class="st9" d="M16.63,9.8c-0.37,0-0.67,0.41-0.67,0.93v5.12v3.34c0,0.51,0.3,0.93,0.67,0.93c0.37,0,0.67-0.41,0.67-0.93
				v-3.34v-5.12C17.31,10.21,17.01,9.8,16.63,9.8z"/>
			<path class="st9" d="M19.73,9.8c-0.37,0-0.67,0.41-0.67,0.93v5.12v3.34c0,0.51,0.3,0.93,0.67,0.93c0.37,0,0.67-0.41,0.67-0.93
				v-3.34v-5.12C20.41,10.21,20.11,9.8,19.73,9.8z"/>
		</g>
	</g>
</g>
</svg>
