<?xml version="1.0" encoding="utf-8"?>
<!-- Generator: Adobe Illustrator 28.1.0, SVG Export Plug-In . SVG Version: 6.00 Build 0)  -->
<svg version="1.1" id="Layer_1" xmlns="http://www.w3.org/2000/svg" xmlns:xlink="http://www.w3.org/1999/xlink" x="0px" y="0px"
	 viewBox="0 0 24 24" style="enable-background:new 0 0 24 24;" xml:space="preserve">
<style type="text/css">
	.st0{fill:#CCCCCC;}
	.st1{fill:#FFFFFF;stroke:#005288;stroke-width:0.672;stroke-linecap:round;stroke-linejoin:round;stroke-miterlimit:10;}
	.st2{fill:none;stroke:#00A4E4;stroke-width:0.672;stroke-linecap:round;stroke-linejoin:round;stroke-miterlimit:10;}
	.st3{fill:none;stroke:#005288;stroke-width:0.672;stroke-linecap:round;stroke-linejoin:round;stroke-miterlimit:10;}
	.st4{fill:none;stroke:#005288;stroke-width:0.6038;stroke-linecap:round;stroke-linejoin:round;stroke-miterlimit:10;}
	.st5{fill:none;stroke:#00A4E4;stroke-width:0.6038;stroke-linecap:round;stroke-linejoin:round;stroke-miterlimit:10;}
	.st6{fill:none;stroke:#005288;stroke-width:0.5233;stroke-linecap:round;stroke-linejoin:round;stroke-miterlimit:10;}
	.st7{fill:none;stroke:#00A4E4;stroke-width:0.72;stroke-linecap:round;stroke-linejoin:round;stroke-miterlimit:10;}
	.st8{fill:#FFFFFF;stroke:#005288;stroke-width:0.72;stroke-linecap:round;stroke-linejoin:round;stroke-miterlimit:10;}
	.st9{fill:none;stroke:#005288;stroke-width:0.6252;stroke-linecap:round;stroke-linejoin:round;stroke-miterlimit:10;}
	.st10{fill:none;stroke:#00A4E4;stroke-width:0.672;stroke-linecap:round;stroke-miterlimit:10;}
	.st11{fill:#FFFFFF;stroke:#00A4E4;stroke-width:0.5024;stroke-linecap:round;stroke-linejoin:round;stroke-miterlimit:10;}
	.st12{fill:#FFFFFF;stroke:#00A4E4;stroke-width:0.672;stroke-linecap:round;stroke-miterlimit:10;}
	.st13{fill:none;stroke:#00A4E4;stroke-width:0.72;stroke-linecap:round;stroke-miterlimit:10;}
	.st14{fill:#FFFFFF;stroke:#005288;stroke-width:0.5024;stroke-linecap:round;stroke-linejoin:round;stroke-miterlimit:10;}
	.st15{fill:#FFFFFF;stroke:#005288;stroke-width:0.768;stroke-linecap:round;stroke-linejoin:round;stroke-miterlimit:10;}
	.st16{fill:none;stroke:#005288;stroke-width:0.63;stroke-linecap:round;stroke-linejoin:round;stroke-miterlimit:10;}
	.st17{fill:#FFFFFF;stroke:#00A4E4;stroke-width:0.672;stroke-miterlimit:10;}
	.st18{fill:#FFFFFF;stroke:#005288;stroke-width:0.43;stroke-miterlimit:10;}
	.st19{fill:#FFFFFF;stroke:#005288;stroke-width:0.6375;stroke-linecap:round;stroke-linejoin:round;stroke-miterlimit:10;}
	.st20{fill:#FFFFFF;stroke:#005288;stroke-width:0.7104;stroke-linecap:round;stroke-linejoin:round;stroke-miterlimit:10;}
	.st21{fill:none;stroke:#005288;stroke-width:0.6375;stroke-linecap:round;stroke-linejoin:round;stroke-miterlimit:10;}
	.st22{fill:none;stroke:#00A4E4;stroke-width:0.7104;stroke-linecap:round;stroke-linejoin:round;stroke-miterlimit:10;}
	.st23{fill:none;stroke:#00A4E4;stroke-width:0.6375;stroke-linecap:round;stroke-linejoin:round;stroke-miterlimit:10;}
	.st24{fill:#FFFFFF;stroke:#005288;stroke-width:0.7488;stroke-miterlimit:10;}
	.st25{fill:none;stroke:#005288;stroke-width:0.63;stroke-linejoin:round;stroke-miterlimit:10;}
	.st26{fill:none;stroke:#005288;stroke-width:0.63;stroke-miterlimit:10;}
	.st27{fill:none;stroke:#00A4E4;stroke-width:0.63;stroke-linecap:round;stroke-linejoin:round;stroke-miterlimit:10;}
	.st28{fill:none;stroke:#00A4E4;stroke-width:0.546;stroke-linecap:round;stroke-linejoin:round;stroke-miterlimit:10;}
	.st29{fill:#FFFFFF;stroke:#005288;stroke-width:0.759;stroke-miterlimit:10;}
</style>
<g>
	<path class="st1" d="M16.02,4.31c-4.48,0-7.1-1.97-10.3-1.97v8.09c3.2,0,5.82-1.97,10.3-1.97V4.31z"/>
	<path class="st1" d="M3.56,9.8v6.46c0,1.2,0.97,2.17,2.17,2.17s2.17-0.97,2.17-2.17V9.8"/>
	<g>
		<path class="st2" d="M21.4,7.72c-0.35,0-0.56,0.32-0.92,0.32c-0.36,0-0.57-0.32-0.92-0.32"/>
		<path class="st2" d="M22.32,6.55c-0.36,0-0.57-0.32-0.92-0.32c-0.35,0-0.56,0.32-0.92,0.32c-0.36,0-0.57-0.32-0.92-0.32
			c-0.35,0-0.56,0.32-0.92,0.32"/>
		<path class="st2" d="M21.4,4.73c-0.35,0-0.56,0.32-0.92,0.32c-0.36,0-0.57-0.32-0.92-0.32"/>
	</g>
	<ellipse transform="matrix(0.9239 -0.3827 0.3827 0.9239 -2.0077 2.677)" class="st1" cx="5.73" cy="6.39" rx="4.05" ry="4.05"/>
	<path class="st3" d="M5.73,18.43v2.08c0,0.58-0.42,1.1-1,1.15c-0.66,0.06-1.22-0.45-1.22-1.1v-1.13c0-0.47-0.38-0.85-0.85-0.85
		H1.68"/>
	<circle class="st4" cx="5.73" cy="6.39" r="2.26"/>
	<path class="st5" d="M6.47,14.77c0,0.41-0.33,0.75-0.75,0.75c-0.41,0-0.75-0.33-0.75-0.75c0-0.41,0.33-0.75,0.75-0.75
		C6.14,14.02,6.47,14.36,6.47,14.77z"/>
	<line class="st6" x1="4.35" y1="6.39" x2="7.1" y2="6.39"/>
	<line class="st6" x1="4.9" y1="5.36" x2="6.53" y2="5.36"/>
	<line class="st6" x1="4.9" y1="7.41" x2="6.53" y2="7.41"/>
	<polygon class="st1" points="16.02,4.31 16.02,6.39 16.02,8.46 17.5,9.24 17.5,6.39 17.5,3.53 	"/>
</g>
</svg>
