<?xml version="1.0" encoding="utf-8"?>
<!-- Generator: Adobe Illustrator 28.1.0, SVG Export Plug-In . SVG Version: 6.00 Build 0)  -->
<svg version="1.1" id="Layer_1" xmlns="http://www.w3.org/2000/svg" xmlns:xlink="http://www.w3.org/1999/xlink" x="0px" y="0px"
	 viewBox="0 0 24 24" style="enable-background:new 0 0 24 24;" xml:space="preserve">
<style type="text/css">
	.st0{fill:#CCCCCC;}
	.st1{fill:#FFFFFF;stroke:#005288;stroke-width:0.672;stroke-linecap:round;stroke-linejoin:round;stroke-miterlimit:10;}
	.st2{fill:none;stroke:#00A4E4;stroke-width:0.672;stroke-linecap:round;stroke-linejoin:round;stroke-miterlimit:10;}
	.st3{fill:none;stroke:#005288;stroke-width:0.672;stroke-linecap:round;stroke-linejoin:round;stroke-miterlimit:10;}
	.st4{fill:none;stroke:#005288;stroke-width:0.6038;stroke-linecap:round;stroke-linejoin:round;stroke-miterlimit:10;}
	.st5{fill:none;stroke:#00A4E4;stroke-width:0.6038;stroke-linecap:round;stroke-linejoin:round;stroke-miterlimit:10;}
	.st6{fill:none;stroke:#005288;stroke-width:0.5233;stroke-linecap:round;stroke-linejoin:round;stroke-miterlimit:10;}
	.st7{fill:none;stroke:#00A4E4;stroke-width:0.72;stroke-linecap:round;stroke-linejoin:round;stroke-miterlimit:10;}
	.st8{fill:#FFFFFF;stroke:#005288;stroke-width:0.72;stroke-linecap:round;stroke-linejoin:round;stroke-miterlimit:10;}
	.st9{fill:none;stroke:#005288;stroke-width:0.6252;stroke-linecap:round;stroke-linejoin:round;stroke-miterlimit:10;}
	.st10{fill:none;stroke:#00A4E4;stroke-width:0.672;stroke-linecap:round;stroke-miterlimit:10;}
	.st11{fill:#FFFFFF;stroke:#00A4E4;stroke-width:0.5024;stroke-linecap:round;stroke-linejoin:round;stroke-miterlimit:10;}
	.st12{fill:#FFFFFF;stroke:#00A4E4;stroke-width:0.672;stroke-linecap:round;stroke-miterlimit:10;}
	.st13{fill:none;stroke:#00A4E4;stroke-width:0.72;stroke-linecap:round;stroke-miterlimit:10;}
	.st14{fill:#FFFFFF;stroke:#005288;stroke-width:0.5024;stroke-linecap:round;stroke-linejoin:round;stroke-miterlimit:10;}
	.st15{fill:#FFFFFF;stroke:#005288;stroke-width:0.768;stroke-linecap:round;stroke-linejoin:round;stroke-miterlimit:10;}
	.st16{fill:none;stroke:#005288;stroke-width:0.63;stroke-linecap:round;stroke-linejoin:round;stroke-miterlimit:10;}
	.st17{fill:#FFFFFF;stroke:#00A4E4;stroke-width:0.672;stroke-miterlimit:10;}
	.st18{fill:#FFFFFF;stroke:#005288;stroke-width:0.43;stroke-miterlimit:10;}
	.st19{fill:#FFFFFF;stroke:#005288;stroke-width:0.6375;stroke-linecap:round;stroke-linejoin:round;stroke-miterlimit:10;}
	.st20{fill:#FFFFFF;stroke:#005288;stroke-width:0.7104;stroke-linecap:round;stroke-linejoin:round;stroke-miterlimit:10;}
	.st21{fill:none;stroke:#005288;stroke-width:0.6375;stroke-linecap:round;stroke-linejoin:round;stroke-miterlimit:10;}
	.st22{fill:none;stroke:#00A4E4;stroke-width:0.7104;stroke-linecap:round;stroke-linejoin:round;stroke-miterlimit:10;}
	.st23{fill:none;stroke:#00A4E4;stroke-width:0.6375;stroke-linecap:round;stroke-linejoin:round;stroke-miterlimit:10;}
	.st24{fill:#FFFFFF;stroke:#005288;stroke-width:0.7488;stroke-miterlimit:10;}
	.st25{fill:none;stroke:#005288;stroke-width:0.63;stroke-linejoin:round;stroke-miterlimit:10;}
	.st26{fill:none;stroke:#005288;stroke-width:0.63;stroke-miterlimit:10;}
	.st27{fill:none;stroke:#00A4E4;stroke-width:0.63;stroke-linecap:round;stroke-linejoin:round;stroke-miterlimit:10;}
	.st28{fill:none;stroke:#00A4E4;stroke-width:0.546;stroke-linecap:round;stroke-linejoin:round;stroke-miterlimit:10;}
	.st29{fill:#FFFFFF;stroke:#005288;stroke-width:0.759;stroke-miterlimit:10;}
</style>
<g>
	<polyline class="st19" points="6.69,3.99 6.69,1.8 5.43,1.8 5.43,5.24 	"/>
	<path class="st20" d="M22.2,8.36c-1.57,0-2.84,1.27-2.84,2.84L2.61,11.22c2.07-5.46,3.55-8.51,8.25-8.51h9.68L22.2,8.36
		 M16.04,8.58c1.11,0,2.01-0.9,2.01-2.01c0-1.11-0.9-2.01-2.01-2.01h-5.46c-1.11,0-2.01,0.9-2.01,2.01c0,1.11,0.9,2.01,2.01,2.01
		H16.04z M15.14,7.3h-3.66v1.28h3.66V7.3z"/>
	<polygon class="st20" points="19.36,13.38 1.8,13.38 2.61,11.22 19.36,11.22 	"/>
	<path class="st21" d="M5.43,5.24V6.7c0,0.84-0.68,1.52-1.52,1.52l0,0"/>
	<path class="st22" d="M3.83,17.02c-0.6,0-1.08,0.48-1.08,1.08c0,0.58,0.46,1.05,1.04,1.07H3.78c0.15,0.78,0.83,1.36,1.65,1.36
		c0.16,0,0.31-0.03,0.45-0.07c0.34,0.65,1.01,1.09,1.79,1.09c0.4,0,0.77-0.12,1.08-0.32c0.4,0.58,1.07,0.96,1.82,0.96
		c0.76,0,1.42-0.38,1.82-0.96c0.31,0.2,0.68,0.32,1.08,0.32c0.78,0,1.45-0.44,1.79-1.09c0.14,0.04,0.29,0.07,0.45,0.07
		c0.82,0,1.5-0.58,1.65-1.36h-0.01c0.58-0.02,1.04-0.49,1.04-1.07c0-0.6-0.48-1.08-1.08-1.08"/>
	<g>
		<line class="st23" x1="10.58" y1="19.97" x2="10.58" y2="19.1"/>
		<line class="st23" x1="10.58" y1="17.96" x2="10.58" y2="17.09"/>
		<line class="st23" x1="10.58" y1="15.95" x2="10.58" y2="15.08"/>
		<line class="st23" x1="14.12" y1="17.76" x2="13.8" y2="16.95"/>
		<line class="st23" x1="13.38" y1="15.89" x2="13.06" y2="15.08"/>
		<line class="st23" x1="7.04" y1="17.76" x2="7.36" y2="16.95"/>
		<line class="st23" x1="7.78" y1="15.89" x2="8.1" y2="15.08"/>
	</g>
	<path class="st23" d="M20.01,4.56c0,0.36-0.29,0.65-0.65,0.65c-0.36,0-0.65-0.29-0.65-0.65c0-0.36,0.29-0.65,0.65-0.65
		C19.72,3.91,20.01,4.2,20.01,4.56z"/>
</g>
</svg>
