<?xml version="1.0" encoding="utf-8"?>
<!-- Generator: Adobe Illustrator 28.1.0, SVG Export Plug-In . SVG Version: 6.00 Build 0)  -->
<svg version="1.1" id="Layer_1" xmlns="http://www.w3.org/2000/svg" xmlns:xlink="http://www.w3.org/1999/xlink" x="0px" y="0px"
	 viewBox="0 0 24 24" style="enable-background:new 0 0 24 24;" xml:space="preserve">
<style type="text/css">
	.st0{fill:#E6E6E6;}
	.st1{fill:#CCCCCC;}
	.st2{fill:#FFFFFF;stroke:#005288;stroke-width:0.6433;stroke-linecap:round;stroke-linejoin:round;stroke-miterlimit:10;}
	.st3{fill:none;stroke:#005288;stroke-width:0.5943;stroke-linecap:round;stroke-linejoin:round;stroke-miterlimit:10;}
	.st4{fill:none;stroke:#00A4E4;stroke-width:0.5943;stroke-linecap:round;stroke-linejoin:round;stroke-miterlimit:10;}
	.st5{fill:#FFFFFF;stroke:#005288;stroke-width:0.6024;stroke-linecap:round;stroke-linejoin:round;stroke-miterlimit:10;}
	.st6{fill:#FFFFFF;stroke:#00A4E4;stroke-width:0.6024;stroke-linecap:round;stroke-linejoin:round;stroke-miterlimit:10;}
	.st7{fill:none;stroke:#00A4E4;stroke-width:0.522;stroke-linecap:round;stroke-linejoin:round;stroke-miterlimit:10;}
	.st8{fill:#FFFFFF;stroke:#005288;stroke-width:0.6333;stroke-linecap:round;stroke-linejoin:round;stroke-miterlimit:10;}
	.st9{fill:none;stroke:#005288;stroke-width:0.5429;stroke-linecap:round;stroke-linejoin:round;stroke-miterlimit:10;}
	.st10{fill:none;stroke:#005288;stroke-width:0.4057;stroke-linecap:round;stroke-linejoin:round;stroke-miterlimit:10;}
	.st11{fill:none;stroke:#00A4E4;stroke-width:0.6333;stroke-linecap:round;stroke-linejoin:round;stroke-miterlimit:10;}
	.st12{fill:#FFFFFF;stroke:#005288;stroke-width:0.6002;stroke-linecap:round;stroke-linejoin:round;stroke-miterlimit:10;}
	.st13{fill:#FFFFFF;stroke:#00A4E4;stroke-width:0.6002;stroke-linecap:round;stroke-linejoin:round;stroke-miterlimit:10;}
	.st14{fill:#FFFFFF;stroke:#005288;stroke-width:0.6402;stroke-linecap:round;stroke-linejoin:round;stroke-miterlimit:10;}
	.st15{fill:#FFFFFF;stroke:#00A4E4;stroke-width:0.6433;stroke-linecap:round;stroke-miterlimit:10;}
	.st16{fill:#FFFFFF;stroke:#005288;stroke-width:0.6433;stroke-linecap:round;stroke-miterlimit:10;}
	.st17{fill:none;stroke:#005288;stroke-width:0.6433;stroke-linecap:round;stroke-miterlimit:10;}
	.st18{fill:#FFFFFF;stroke:#005288;stroke-width:0.4756;stroke-linecap:round;stroke-linejoin:round;stroke-miterlimit:10;}
	.st19{fill:none;stroke:#005288;stroke-width:0.4756;stroke-linecap:round;stroke-linejoin:round;stroke-miterlimit:10;}
	.st20{fill:#FFFFFF;stroke:#00A4E4;stroke-width:0.4756;stroke-linecap:round;stroke-linejoin:round;stroke-miterlimit:10;}
	.st21{fill:#FFFFFF;stroke:#005288;stroke-width:0.7161;stroke-linecap:round;stroke-linejoin:round;stroke-miterlimit:10;}
	.st22{fill:#FFFFFF;stroke:#00A4E4;stroke-width:0.6584;stroke-linecap:round;stroke-linejoin:round;stroke-miterlimit:10;}
	.st23{fill:none;stroke:#00A4E4;stroke-width:0.5809;stroke-linecap:round;stroke-linejoin:round;stroke-miterlimit:10;}
	.st24{fill:#FFFFFF;}
	.st25{fill:none;stroke:#00A4E4;stroke-width:0.5008;stroke-linecap:round;stroke-linejoin:round;stroke-miterlimit:10;}
	.st26{fill:#FFFFFF;stroke:#005288;stroke-width:0.5665;stroke-linecap:round;stroke-linejoin:round;stroke-miterlimit:10;}
	.st27{fill:#FFFFFF;stroke:#005288;stroke-width:0.5008;stroke-linecap:round;stroke-linejoin:round;stroke-miterlimit:10;}
	.st28{fill:none;stroke:#005288;stroke-width:0.5008;stroke-linecap:round;stroke-linejoin:round;stroke-miterlimit:10;}
	.st29{fill:#FFFFFF;stroke:#005288;stroke-width:0.5987;stroke-linecap:round;stroke-linejoin:round;stroke-miterlimit:10;}
	.st30{fill:#FFFFFF;stroke:#005288;stroke-width:0.4683;stroke-linecap:round;stroke-linejoin:round;stroke-miterlimit:10;}
	.st31{fill:none;stroke:#005288;stroke-width:0.4683;stroke-linecap:round;stroke-linejoin:round;stroke-miterlimit:10;}
	.st32{fill:#FFFFFF;stroke:#005288;stroke-width:0.624;stroke-linecap:round;stroke-linejoin:round;stroke-miterlimit:10;}
	.st33{fill:none;stroke:#00A4E4;stroke-width:0.4683;stroke-linecap:round;stroke-linejoin:round;stroke-miterlimit:10;}
	.st34{fill:none;stroke:#005288;stroke-width:0.624;stroke-linecap:round;stroke-linejoin:round;stroke-miterlimit:10;}
	.st35{fill:none;stroke:#00A4E4;stroke-width:0.624;stroke-linecap:round;stroke-linejoin:round;stroke-miterlimit:10;}
</style>
<g>
	<path class="st8" d="M20.36,12.11H3.64c-0.63,0-1.14-0.51-1.14-1.14V5.65c0-0.63,0.51-1.14,1.14-1.14h16.71
		c0.63,0,1.14,0.51,1.14,1.14v5.31C21.5,11.6,20.99,12.11,20.36,12.11z"/>
	<path class="st9" d="M4.91,12.11v-0.96c0-0.47,0.44-0.85,0.97-0.85h12.8c0.54,0,0.97,0.38,0.97,0.85v0.96"/>
	<g>
		<g>
			<line class="st10" x1="19.57" y1="18.1" x2="19.57" y2="14.23"/>
			<line class="st10" x1="18.97" y1="17.95" x2="19.57" y2="17.59"/>
			<line class="st10" x1="20.17" y1="17.95" x2="19.57" y2="17.59"/>
			<line class="st10" x1="18.97" y1="14.38" x2="19.57" y2="14.74"/>
			<line class="st10" x1="20.17" y1="14.38" x2="19.57" y2="14.74"/>
		</g>
		<g>
			<line class="st10" x1="21.24" y1="17.13" x2="17.89" y2="15.2"/>
			<line class="st10" x1="20.82" y1="17.58" x2="20.8" y2="16.88"/>
			<line class="st10" x1="21.42" y1="16.54" x2="20.8" y2="16.88"/>
			<line class="st10" x1="17.72" y1="15.79" x2="18.33" y2="15.45"/>
			<line class="st10" x1="18.32" y1="14.75" x2="18.33" y2="15.45"/>
		</g>
		<g>
			<line class="st10" x1="21.24" y1="15.2" x2="17.89" y2="17.13"/>
			<line class="st10" x1="21.42" y1="15.79" x2="20.8" y2="15.45"/>
			<line class="st10" x1="20.82" y1="14.75" x2="20.8" y2="15.45"/>
			<line class="st10" x1="18.32" y1="17.58" x2="18.33" y2="16.88"/>
			<line class="st10" x1="17.72" y1="16.54" x2="18.33" y2="16.88"/>
		</g>
	</g>
	<g>
		<path class="st11" d="M7.34,18.43c0-0.4-0.45-0.64-0.45-1.06s0.45-0.66,0.45-1.06c0-0.4-0.45-0.64-0.45-1.06s0.45-0.66,0.45-1.06"
			/>
		<path class="st11" d="M9.01,19.49c0-0.42,0.45-0.66,0.45-1.06c0-0.4-0.45-0.64-0.45-1.06s0.45-0.66,0.45-1.06
			c0-0.4-0.45-0.64-0.45-1.06s0.45-0.66,0.45-1.06c0-0.4-0.45-0.64-0.45-1.06"/>
		<path class="st11" d="M11.58,18.43c0-0.4-0.45-0.64-0.45-1.06s0.45-0.66,0.45-1.06c0-0.4-0.45-0.64-0.45-1.06s0.45-0.66,0.45-1.06
			"/>
		<path class="st11" d="M13.25,19.49c0-0.42,0.45-0.66,0.45-1.06c0-0.4-0.45-0.64-0.45-1.06s0.45-0.66,0.45-1.06
			c0-0.4-0.45-0.64-0.45-1.06s0.45-0.66,0.45-1.06c0-0.4-0.45-0.64-0.45-1.06"/>
		<path class="st11" d="M15.82,18.43c0-0.4-0.45-0.64-0.45-1.06s0.45-0.66,0.45-1.06c0-0.4-0.45-0.64-0.45-1.06s0.45-0.66,0.45-1.06
			"/>
	</g>
	<rect x="16.18" y="5.72" class="st9" width="3.27" height="1.41"/>
</g>
</svg>
