<?xml version="1.0" encoding="utf-8"?>
<!-- Generator: Adobe Illustrator 28.1.0, SVG Export Plug-In . SVG Version: 6.00 Build 0)  -->
<svg version="1.1" id="Layer_1" xmlns="http://www.w3.org/2000/svg" xmlns:xlink="http://www.w3.org/1999/xlink" x="0px" y="0px"
	 viewBox="0 0 24 24" style="enable-background:new 0 0 24 24;" xml:space="preserve">
<style type="text/css">
	.st0{fill:#E6E6E6;}
	.st1{fill:#CCCCCC;}
	.st2{fill:#FFFFFF;stroke:#005288;stroke-width:0.6433;stroke-linecap:round;stroke-linejoin:round;stroke-miterlimit:10;}
	.st3{fill:none;stroke:#005288;stroke-width:0.5943;stroke-linecap:round;stroke-linejoin:round;stroke-miterlimit:10;}
	.st4{fill:none;stroke:#00A4E4;stroke-width:0.5943;stroke-linecap:round;stroke-linejoin:round;stroke-miterlimit:10;}
	.st5{fill:#FFFFFF;stroke:#005288;stroke-width:0.6024;stroke-linecap:round;stroke-linejoin:round;stroke-miterlimit:10;}
	.st6{fill:#FFFFFF;stroke:#00A4E4;stroke-width:0.6024;stroke-linecap:round;stroke-linejoin:round;stroke-miterlimit:10;}
	.st7{fill:none;stroke:#00A4E4;stroke-width:0.522;stroke-linecap:round;stroke-linejoin:round;stroke-miterlimit:10;}
	.st8{fill:#FFFFFF;stroke:#005288;stroke-width:0.6333;stroke-linecap:round;stroke-linejoin:round;stroke-miterlimit:10;}
	.st9{fill:none;stroke:#005288;stroke-width:0.5429;stroke-linecap:round;stroke-linejoin:round;stroke-miterlimit:10;}
	.st10{fill:none;stroke:#005288;stroke-width:0.4057;stroke-linecap:round;stroke-linejoin:round;stroke-miterlimit:10;}
	.st11{fill:none;stroke:#00A4E4;stroke-width:0.6333;stroke-linecap:round;stroke-linejoin:round;stroke-miterlimit:10;}
	.st12{fill:#FFFFFF;stroke:#005288;stroke-width:0.6002;stroke-linecap:round;stroke-linejoin:round;stroke-miterlimit:10;}
	.st13{fill:#FFFFFF;stroke:#00A4E4;stroke-width:0.6002;stroke-linecap:round;stroke-linejoin:round;stroke-miterlimit:10;}
	.st14{fill:#FFFFFF;stroke:#005288;stroke-width:0.6402;stroke-linecap:round;stroke-linejoin:round;stroke-miterlimit:10;}
	.st15{fill:#FFFFFF;stroke:#00A4E4;stroke-width:0.6433;stroke-linecap:round;stroke-miterlimit:10;}
	.st16{fill:#FFFFFF;stroke:#005288;stroke-width:0.6433;stroke-linecap:round;stroke-miterlimit:10;}
	.st17{fill:none;stroke:#005288;stroke-width:0.6433;stroke-linecap:round;stroke-miterlimit:10;}
	.st18{fill:#FFFFFF;stroke:#005288;stroke-width:0.4756;stroke-linecap:round;stroke-linejoin:round;stroke-miterlimit:10;}
	.st19{fill:none;stroke:#005288;stroke-width:0.4756;stroke-linecap:round;stroke-linejoin:round;stroke-miterlimit:10;}
	.st20{fill:#FFFFFF;stroke:#00A4E4;stroke-width:0.4756;stroke-linecap:round;stroke-linejoin:round;stroke-miterlimit:10;}
	.st21{fill:#FFFFFF;stroke:#005288;stroke-width:0.7161;stroke-linecap:round;stroke-linejoin:round;stroke-miterlimit:10;}
	.st22{fill:#FFFFFF;stroke:#00A4E4;stroke-width:0.6584;stroke-linecap:round;stroke-linejoin:round;stroke-miterlimit:10;}
	.st23{fill:none;stroke:#00A4E4;stroke-width:0.5809;stroke-linecap:round;stroke-linejoin:round;stroke-miterlimit:10;}
	.st24{fill:#FFFFFF;}
	.st25{fill:none;stroke:#00A4E4;stroke-width:0.5008;stroke-linecap:round;stroke-linejoin:round;stroke-miterlimit:10;}
	.st26{fill:#FFFFFF;stroke:#005288;stroke-width:0.5665;stroke-linecap:round;stroke-linejoin:round;stroke-miterlimit:10;}
	.st27{fill:#FFFFFF;stroke:#005288;stroke-width:0.5008;stroke-linecap:round;stroke-linejoin:round;stroke-miterlimit:10;}
	.st28{fill:none;stroke:#005288;stroke-width:0.5008;stroke-linecap:round;stroke-linejoin:round;stroke-miterlimit:10;}
	.st29{fill:#FFFFFF;stroke:#005288;stroke-width:0.5987;stroke-linecap:round;stroke-linejoin:round;stroke-miterlimit:10;}
	.st30{fill:#FFFFFF;stroke:#005288;stroke-width:0.4683;stroke-linecap:round;stroke-linejoin:round;stroke-miterlimit:10;}
	.st31{fill:none;stroke:#005288;stroke-width:0.4683;stroke-linecap:round;stroke-linejoin:round;stroke-miterlimit:10;}
	.st32{fill:#FFFFFF;stroke:#005288;stroke-width:0.624;stroke-linecap:round;stroke-linejoin:round;stroke-miterlimit:10;}
	.st33{fill:none;stroke:#00A4E4;stroke-width:0.4683;stroke-linecap:round;stroke-linejoin:round;stroke-miterlimit:10;}
	.st34{fill:none;stroke:#005288;stroke-width:0.624;stroke-linecap:round;stroke-linejoin:round;stroke-miterlimit:10;}
	.st35{fill:none;stroke:#00A4E4;stroke-width:0.624;stroke-linecap:round;stroke-linejoin:round;stroke-miterlimit:10;}
</style>
<g>
	<path class="st30" d="M7.54,2.4c-0.27,0-0.49,0.62-0.49,1.38v7.64v4.98c0,0.76,0.22,1.38,0.49,1.38c0.27,0,0.49-0.62,0.49-1.38
		v-4.98V3.78C8.04,3.02,7.82,2.4,7.54,2.4z"/>
	<path class="st30" d="M10.26,2.4c-0.27,0-0.49,0.62-0.49,1.38v7.64v4.98c0,0.76,0.22,1.38,0.49,1.38s0.49-0.62,0.49-1.38v-4.98
		V3.78C10.75,3.02,10.53,2.4,10.26,2.4z"/>
	<path class="st30" d="M12.97,2.4c-0.27,0-0.49,0.62-0.49,1.38v7.64v4.98c0,0.76,0.22,1.38,0.49,1.38c0.27,0,0.49-0.62,0.49-1.38
		v-4.98V3.78C13.46,3.02,13.24,2.4,12.97,2.4z"/>
	<path class="st30" d="M15.68,2.4c-0.27,0-0.49,0.62-0.49,1.38v7.64v4.98c0,0.76,0.22,1.38,0.49,1.38c0.27,0,0.49-0.62,0.49-1.38
		v-4.98V3.78C16.17,3.02,15.95,2.4,15.68,2.4z"/>
	<path class="st30" d="M18.39,2.4c-0.27,0-0.49,0.62-0.49,1.38v7.64v4.98c0,0.76,0.22,1.38,0.49,1.38c0.27,0,0.49-0.62,0.49-1.38
		v-4.98V3.78C18.89,3.02,18.67,2.4,18.39,2.4z"/>
	<path class="st30" d="M21.11,2.4c-0.27,0-0.49,0.62-0.49,1.38v7.64v4.98c0,0.76,0.22,1.38,0.49,1.38c0.27,0,0.49-0.62,0.49-1.38
		v-4.98V3.78C21.6,3.02,21.38,2.4,21.11,2.4z"/>
	<g>
		<path class="st31" d="M9.76,3.81c0,0.48-0.39,0.86-0.86,0.86c-0.48,0-0.86-0.39-0.86-0.86"/>
		<path class="st31" d="M9.76,7.1c0-0.48-0.39-0.86-0.86-0.86c-0.48,0-0.86,0.39-0.86,0.86"/>
		<line class="st31" x1="8.9" y1="6.24" x2="8.9" y2="4.67"/>
	</g>
	<g>
		<path class="st31" d="M12.48,3.81c0,0.48-0.39,0.86-0.86,0.86c-0.48,0-0.86-0.39-0.86-0.86"/>
		<path class="st31" d="M12.48,7.1c0-0.48-0.39-0.86-0.86-0.86c-0.48,0-0.86,0.39-0.86,0.86"/>
		<line class="st31" x1="11.61" y1="6.24" x2="11.61" y2="4.67"/>
	</g>
	<g>
		<path class="st31" d="M9.76,13.07c0,0.48-0.39,0.86-0.86,0.86c-0.48,0-0.86-0.39-0.86-0.86"/>
		<path class="st31" d="M9.76,16.36c0-0.48-0.39-0.86-0.86-0.86c-0.48,0-0.86,0.39-0.86,0.86"/>
		<line class="st31" x1="8.9" y1="15.5" x2="8.9" y2="13.93"/>
	</g>
	<g>
		<path class="st31" d="M7.05,3.81c0,0.48-0.39,0.86-0.86,0.86c-0.48,0-0.86-0.39-0.86-0.86"/>
		<path class="st31" d="M7.05,7.1c0-0.48-0.39-0.86-0.86-0.86c-0.48,0-0.86,0.39-0.86,0.86"/>
		<line class="st31" x1="6.19" y1="6.24" x2="6.19" y2="4.67"/>
	</g>
	<g>
		<path class="st31" d="M7.05,13.07c0,0.48-0.39,0.86-0.86,0.86c-0.48,0-0.86-0.39-0.86-0.86"/>
		<path class="st31" d="M7.05,16.36c0-0.48-0.39-0.86-0.86-0.86c-0.48,0-0.86,0.39-0.86,0.86"/>
		<line class="st31" x1="6.19" y1="15.5" x2="6.19" y2="13.93"/>
	</g>
	<g>
		<path class="st31" d="M15.19,3.81c0,0.48-0.39,0.86-0.86,0.86c-0.48,0-0.86-0.39-0.86-0.86"/>
		<path class="st31" d="M15.19,7.1c0-0.48-0.39-0.86-0.86-0.86c-0.48,0-0.86,0.39-0.86,0.86"/>
		<line class="st31" x1="14.33" y1="6.24" x2="14.33" y2="4.67"/>
	</g>
	<g>
		<path class="st31" d="M12.48,13.07c0,0.48-0.39,0.86-0.86,0.86c-0.48,0-0.86-0.39-0.86-0.86"/>
		<path class="st31" d="M12.48,16.36c0-0.48-0.39-0.86-0.86-0.86c-0.48,0-0.86,0.39-0.86,0.86"/>
		<line class="st31" x1="11.61" y1="15.5" x2="11.61" y2="13.93"/>
	</g>
	<g>
		<path class="st31" d="M17.9,3.81c0,0.48-0.39,0.86-0.86,0.86c-0.48,0-0.86-0.39-0.86-0.86"/>
		<path class="st31" d="M17.9,7.1c0-0.48-0.39-0.86-0.86-0.86c-0.48,0-0.86,0.39-0.86,0.86"/>
		<line class="st31" x1="17.04" y1="6.24" x2="17.04" y2="4.67"/>
	</g>
	<g>
		<path class="st31" d="M15.19,13.07c0,0.48-0.39,0.86-0.86,0.86c-0.48,0-0.86-0.39-0.86-0.86"/>
		<path class="st31" d="M15.19,16.36c0-0.48-0.39-0.86-0.86-0.86c-0.48,0-0.86,0.39-0.86,0.86"/>
		<line class="st31" x1="14.33" y1="15.5" x2="14.33" y2="13.93"/>
	</g>
	<g>
		<path class="st31" d="M20.61,3.81c0,0.48-0.39,0.86-0.86,0.86c-0.48,0-0.86-0.39-0.86-0.86"/>
		<path class="st31" d="M20.61,7.1c0-0.48-0.39-0.86-0.86-0.86c-0.48,0-0.86,0.39-0.86,0.86"/>
		<line class="st31" x1="19.75" y1="6.24" x2="19.75" y2="4.67"/>
	</g>
	<g>
		<path class="st31" d="M17.9,13.07c0,0.48-0.39,0.86-0.86,0.86c-0.48,0-0.86-0.39-0.86-0.86"/>
		<path class="st31" d="M17.9,16.36c0-0.48-0.39-0.86-0.86-0.86c-0.48,0-0.86,0.39-0.86,0.86"/>
		<line class="st31" x1="17.04" y1="15.5" x2="17.04" y2="13.93"/>
	</g>
	<g>
		<path class="st31" d="M20.61,13.07c0,0.48-0.39,0.86-0.86,0.86c-0.48,0-0.86-0.39-0.86-0.86"/>
		<path class="st31" d="M20.61,16.36c0-0.48-0.39-0.86-0.86-0.86c-0.48,0-0.86,0.39-0.86,0.86"/>
		<line class="st31" x1="19.75" y1="15.5" x2="19.75" y2="13.93"/>
	</g>
	<path class="st32" d="M3.87,18.92h1.46V3.86c0-0.81-0.65-1.46-1.46-1.46l0,0C3.05,2.4,2.4,3.05,2.4,3.86v13.59
		C2.4,18.26,3.06,18.92,3.87,18.92z"/>
	<circle class="st33" cx="3.86" cy="3.94" r="0.68"/>
	<path class="st34" d="M19.82,18.92c0.49,0,0.88,0.39,0.88,0.88v0"/>
	<path class="st31" d="M5.64,18.92c-0.49,0-0.88,0.39-0.88,0.88v0"/>
	<line class="st34" x1="5.32" y1="18.92" x2="19.82" y2="18.92"/>
	<line class="st31" x1="2.4" y1="6.97" x2="3.86" y2="6.97"/>
	<line class="st31" x1="2.4" y1="8.13" x2="3.86" y2="8.13"/>
	<line class="st31" x1="2.4" y1="9.29" x2="3.86" y2="9.29"/>
	<line class="st31" x1="2.4" y1="10.45" x2="3.86" y2="10.45"/>
	<line class="st31" x1="2.4" y1="11.61" x2="3.86" y2="11.61"/>
	<line class="st31" x1="2.4" y1="12.77" x2="3.86" y2="12.77"/>
	<line class="st31" x1="2.4" y1="13.93" x2="3.86" y2="13.93"/>
	<path class="st35" d="M21.6,20.7c0,0.5-0.4,0.9-0.9,0.9s-0.9-0.4-0.9-0.9s0.4-0.9,0.9-0.9S21.6,20.2,21.6,20.7z"/>
	<path class="st35" d="M3.86,20.7c0,0.5,0.4,0.9,0.9,0.9s0.9-0.4,0.9-0.9s-0.4-0.9-0.9-0.9S3.86,20.2,3.86,20.7z"/>
</g>
</svg>
