<?xml version="1.0" encoding="utf-8"?>
<!-- Generator: Adobe Illustrator 28.1.0, SVG Export Plug-In . SVG Version: 6.00 Build 0)  -->
<svg version="1.1" id="Layer_1" xmlns="http://www.w3.org/2000/svg" xmlns:xlink="http://www.w3.org/1999/xlink" x="0px" y="0px"
	 viewBox="0 0 24 24" style="enable-background:new 0 0 24 24;" xml:space="preserve">
<style type="text/css">
	.st0{fill:#E6E6E6;}
	.st1{fill:#CCCCCC;}
	.st2{fill:#FFFFFF;stroke:#005288;stroke-width:0.6433;stroke-linecap:round;stroke-linejoin:round;stroke-miterlimit:10;}
	.st3{fill:none;stroke:#005288;stroke-width:0.5943;stroke-linecap:round;stroke-linejoin:round;stroke-miterlimit:10;}
	.st4{fill:none;stroke:#00A4E4;stroke-width:0.5943;stroke-linecap:round;stroke-linejoin:round;stroke-miterlimit:10;}
	.st5{fill:#FFFFFF;stroke:#005288;stroke-width:0.6024;stroke-linecap:round;stroke-linejoin:round;stroke-miterlimit:10;}
	.st6{fill:#FFFFFF;stroke:#00A4E4;stroke-width:0.6024;stroke-linecap:round;stroke-linejoin:round;stroke-miterlimit:10;}
	.st7{fill:none;stroke:#00A4E4;stroke-width:0.522;stroke-linecap:round;stroke-linejoin:round;stroke-miterlimit:10;}
	.st8{fill:#FFFFFF;stroke:#005288;stroke-width:0.6333;stroke-linecap:round;stroke-linejoin:round;stroke-miterlimit:10;}
	.st9{fill:none;stroke:#005288;stroke-width:0.5429;stroke-linecap:round;stroke-linejoin:round;stroke-miterlimit:10;}
	.st10{fill:none;stroke:#005288;stroke-width:0.4057;stroke-linecap:round;stroke-linejoin:round;stroke-miterlimit:10;}
	.st11{fill:none;stroke:#00A4E4;stroke-width:0.6333;stroke-linecap:round;stroke-linejoin:round;stroke-miterlimit:10;}
	.st12{fill:#FFFFFF;stroke:#005288;stroke-width:0.6002;stroke-linecap:round;stroke-linejoin:round;stroke-miterlimit:10;}
	.st13{fill:#FFFFFF;stroke:#00A4E4;stroke-width:0.6002;stroke-linecap:round;stroke-linejoin:round;stroke-miterlimit:10;}
	.st14{fill:#FFFFFF;stroke:#005288;stroke-width:0.6402;stroke-linecap:round;stroke-linejoin:round;stroke-miterlimit:10;}
	.st15{fill:#FFFFFF;stroke:#00A4E4;stroke-width:0.6433;stroke-linecap:round;stroke-miterlimit:10;}
	.st16{fill:#FFFFFF;stroke:#005288;stroke-width:0.6433;stroke-linecap:round;stroke-miterlimit:10;}
	.st17{fill:none;stroke:#005288;stroke-width:0.6433;stroke-linecap:round;stroke-miterlimit:10;}
	.st18{fill:#FFFFFF;stroke:#005288;stroke-width:0.4756;stroke-linecap:round;stroke-linejoin:round;stroke-miterlimit:10;}
	.st19{fill:none;stroke:#005288;stroke-width:0.4756;stroke-linecap:round;stroke-linejoin:round;stroke-miterlimit:10;}
	.st20{fill:#FFFFFF;stroke:#00A4E4;stroke-width:0.4756;stroke-linecap:round;stroke-linejoin:round;stroke-miterlimit:10;}
	.st21{fill:#FFFFFF;stroke:#005288;stroke-width:0.7161;stroke-linecap:round;stroke-linejoin:round;stroke-miterlimit:10;}
	.st22{fill:#FFFFFF;stroke:#00A4E4;stroke-width:0.6584;stroke-linecap:round;stroke-linejoin:round;stroke-miterlimit:10;}
	.st23{fill:none;stroke:#00A4E4;stroke-width:0.5809;stroke-linecap:round;stroke-linejoin:round;stroke-miterlimit:10;}
	.st24{fill:#FFFFFF;}
	.st25{fill:none;stroke:#00A4E4;stroke-width:0.5008;stroke-linecap:round;stroke-linejoin:round;stroke-miterlimit:10;}
	.st26{fill:#FFFFFF;stroke:#005288;stroke-width:0.5665;stroke-linecap:round;stroke-linejoin:round;stroke-miterlimit:10;}
	.st27{fill:#FFFFFF;stroke:#005288;stroke-width:0.5008;stroke-linecap:round;stroke-linejoin:round;stroke-miterlimit:10;}
	.st28{fill:none;stroke:#005288;stroke-width:0.5008;stroke-linecap:round;stroke-linejoin:round;stroke-miterlimit:10;}
	.st29{fill:#FFFFFF;stroke:#005288;stroke-width:0.5987;stroke-linecap:round;stroke-linejoin:round;stroke-miterlimit:10;}
	.st30{fill:#FFFFFF;stroke:#005288;stroke-width:0.4683;stroke-linecap:round;stroke-linejoin:round;stroke-miterlimit:10;}
	.st31{fill:none;stroke:#005288;stroke-width:0.4683;stroke-linecap:round;stroke-linejoin:round;stroke-miterlimit:10;}
	.st32{fill:#FFFFFF;stroke:#005288;stroke-width:0.624;stroke-linecap:round;stroke-linejoin:round;stroke-miterlimit:10;}
	.st33{fill:none;stroke:#00A4E4;stroke-width:0.4683;stroke-linecap:round;stroke-linejoin:round;stroke-miterlimit:10;}
	.st34{fill:none;stroke:#005288;stroke-width:0.624;stroke-linecap:round;stroke-linejoin:round;stroke-miterlimit:10;}
	.st35{fill:none;stroke:#00A4E4;stroke-width:0.624;stroke-linecap:round;stroke-linejoin:round;stroke-miterlimit:10;}
</style>
<g>
	<polygon class="st12" points="8.85,19.76 6.01,13.83 7.52,13.21 10.65,19.76 	"/>
	<circle class="st12" cx="6.6" cy="12.82" r="1.11"/>
	<path class="st12" d="M15.2,20.26v0.85c0,0.27-0.22,0.5-0.5,0.5H5.8c-0.27,0-0.5-0.22-0.5-0.5v-0.85c0-0.27,0.22-0.5,0.5-0.5h8.9
		C14.97,19.76,15.2,19.98,15.2,20.26z"/>
	<path class="st12" d="M10.14,7.87l-3.85,3.88c0.1-0.03,0.2-0.05,0.31-0.05c0.62,0,1.11,0.5,1.11,1.11c0,0.01,0,0.03,0,0.04
		l3.08-3.07"/>
	<g>
		<g>
			<path class="st13" d="M16.65,9.91c0.87-0.78,1.11-1.99,0.68-3.01l-3.75,3.36C14.54,10.79,15.78,10.69,16.65,9.91z"/>
			<path class="st14" d="M18.7,5.68l-6.49,5.8l-0.98-1.1c-1.6-1.79-1.45-4.54,0.34-6.14l0,0c1.79-1.6,4.54-1.45,6.14,0.34L18.7,5.68
				z"/>
		</g>
		<path class="st14" d="M11.57,4.24c0.34-0.3,0.71-0.54,1.1-0.72l-0.61-0.69c-0.48-0.54-1.3-0.58-1.84-0.1l0,0
			c-0.54,0.48-0.58,1.3-0.1,1.84l0.61,0.69C10.96,4.88,11.24,4.54,11.57,4.24L11.57,4.24z"/>
	</g>
</g>
</svg>
