<?xml version="1.0" encoding="utf-8"?>
<!-- Generator: Adobe Illustrator 28.1.0, SVG Export Plug-In . SVG Version: 6.00 Build 0)  -->
<svg version="1.1" id="Layer_1" xmlns="http://www.w3.org/2000/svg" xmlns:xlink="http://www.w3.org/1999/xlink" x="0px" y="0px"
	 viewBox="0 0 24 24" style="enable-background:new 0 0 24 24;" xml:space="preserve">
<style type="text/css">
	.st0{fill:#E6E6E6;}
	.st1{fill:#CCCCCC;}
	.st2{fill:#FFFFFF;stroke:#005288;stroke-width:0.6433;stroke-linecap:round;stroke-linejoin:round;stroke-miterlimit:10;}
	.st3{fill:none;stroke:#005288;stroke-width:0.5943;stroke-linecap:round;stroke-linejoin:round;stroke-miterlimit:10;}
	.st4{fill:none;stroke:#00A4E4;stroke-width:0.5943;stroke-linecap:round;stroke-linejoin:round;stroke-miterlimit:10;}
	.st5{fill:#FFFFFF;stroke:#005288;stroke-width:0.6024;stroke-linecap:round;stroke-linejoin:round;stroke-miterlimit:10;}
	.st6{fill:#FFFFFF;stroke:#00A4E4;stroke-width:0.6024;stroke-linecap:round;stroke-linejoin:round;stroke-miterlimit:10;}
	.st7{fill:none;stroke:#00A4E4;stroke-width:0.522;stroke-linecap:round;stroke-linejoin:round;stroke-miterlimit:10;}
	.st8{fill:#FFFFFF;stroke:#005288;stroke-width:0.6333;stroke-linecap:round;stroke-linejoin:round;stroke-miterlimit:10;}
	.st9{fill:none;stroke:#005288;stroke-width:0.5429;stroke-linecap:round;stroke-linejoin:round;stroke-miterlimit:10;}
	.st10{fill:none;stroke:#005288;stroke-width:0.4057;stroke-linecap:round;stroke-linejoin:round;stroke-miterlimit:10;}
	.st11{fill:none;stroke:#00A4E4;stroke-width:0.6333;stroke-linecap:round;stroke-linejoin:round;stroke-miterlimit:10;}
	.st12{fill:#FFFFFF;stroke:#005288;stroke-width:0.6002;stroke-linecap:round;stroke-linejoin:round;stroke-miterlimit:10;}
	.st13{fill:#FFFFFF;stroke:#00A4E4;stroke-width:0.6002;stroke-linecap:round;stroke-linejoin:round;stroke-miterlimit:10;}
	.st14{fill:#FFFFFF;stroke:#005288;stroke-width:0.6402;stroke-linecap:round;stroke-linejoin:round;stroke-miterlimit:10;}
	.st15{fill:#FFFFFF;stroke:#00A4E4;stroke-width:0.6433;stroke-linecap:round;stroke-miterlimit:10;}
	.st16{fill:#FFFFFF;stroke:#005288;stroke-width:0.6433;stroke-linecap:round;stroke-miterlimit:10;}
	.st17{fill:none;stroke:#005288;stroke-width:0.6433;stroke-linecap:round;stroke-miterlimit:10;}
	.st18{fill:#FFFFFF;stroke:#005288;stroke-width:0.4756;stroke-linecap:round;stroke-linejoin:round;stroke-miterlimit:10;}
	.st19{fill:none;stroke:#005288;stroke-width:0.4756;stroke-linecap:round;stroke-linejoin:round;stroke-miterlimit:10;}
	.st20{fill:#FFFFFF;stroke:#00A4E4;stroke-width:0.4756;stroke-linecap:round;stroke-linejoin:round;stroke-miterlimit:10;}
	.st21{fill:#FFFFFF;stroke:#005288;stroke-width:0.7161;stroke-linecap:round;stroke-linejoin:round;stroke-miterlimit:10;}
	.st22{fill:#FFFFFF;stroke:#00A4E4;stroke-width:0.6584;stroke-linecap:round;stroke-linejoin:round;stroke-miterlimit:10;}
	.st23{fill:none;stroke:#00A4E4;stroke-width:0.5809;stroke-linecap:round;stroke-linejoin:round;stroke-miterlimit:10;}
	.st24{fill:#FFFFFF;}
	.st25{fill:none;stroke:#00A4E4;stroke-width:0.5008;stroke-linecap:round;stroke-linejoin:round;stroke-miterlimit:10;}
	.st26{fill:#FFFFFF;stroke:#005288;stroke-width:0.5665;stroke-linecap:round;stroke-linejoin:round;stroke-miterlimit:10;}
	.st27{fill:#FFFFFF;stroke:#005288;stroke-width:0.5008;stroke-linecap:round;stroke-linejoin:round;stroke-miterlimit:10;}
	.st28{fill:none;stroke:#005288;stroke-width:0.5008;stroke-linecap:round;stroke-linejoin:round;stroke-miterlimit:10;}
	.st29{fill:#FFFFFF;stroke:#005288;stroke-width:0.5987;stroke-linecap:round;stroke-linejoin:round;stroke-miterlimit:10;}
	.st30{fill:#FFFFFF;stroke:#005288;stroke-width:0.4683;stroke-linecap:round;stroke-linejoin:round;stroke-miterlimit:10;}
	.st31{fill:none;stroke:#005288;stroke-width:0.4683;stroke-linecap:round;stroke-linejoin:round;stroke-miterlimit:10;}
	.st32{fill:#FFFFFF;stroke:#005288;stroke-width:0.624;stroke-linecap:round;stroke-linejoin:round;stroke-miterlimit:10;}
	.st33{fill:none;stroke:#00A4E4;stroke-width:0.4683;stroke-linecap:round;stroke-linejoin:round;stroke-miterlimit:10;}
	.st34{fill:none;stroke:#005288;stroke-width:0.624;stroke-linecap:round;stroke-linejoin:round;stroke-miterlimit:10;}
	.st35{fill:none;stroke:#00A4E4;stroke-width:0.624;stroke-linecap:round;stroke-linejoin:round;stroke-miterlimit:10;}
</style>
<g>
	<path class="st2" d="M19.09,7.43h1.65c0.5,0,0.91,0.41,0.91,0.91v4.57c0,0.5-0.41,0.91-0.91,0.91h-1.7L19.09,7.43z"/>
	<path class="st2" d="M14.15,4.67H4.82c-0.55,0-1,0.45-1,1v0.51v2.63v1.51h3.8l0.52-1.51h6.02v7.66H2.35v4.05c0,0.55,0.45,1,1,1
		h10.8h4.05c0.55,0,1-0.45,1-1v-4.05V8.81V7c0-1.29-1.04-2.33-2.33-2.33H14.15z"/>
	<g>
		<line class="st3" x1="20.12" y1="8.66" x2="20.45" y2="8.66"/>
		<line class="st3" x1="20.12" y1="9.97" x2="20.45" y2="9.97"/>
		<line class="st3" x1="20.12" y1="11.28" x2="20.45" y2="11.28"/>
		<line class="st3" x1="20.12" y1="12.59" x2="20.45" y2="12.59"/>
	</g>
	<line class="st3" x1="14.11" y1="4.67" x2="14.11" y2="2.49"/>
	<line class="st3" x1="12.98" y1="4.67" x2="12.98" y2="3.58"/>
	<line class="st3" x1="11.85" y1="4.67" x2="11.85" y2="3.58"/>
	<rect x="9.79" y="6.18" class="st3" width="4.31" height="1.14"/>
	<polyline class="st3" points="5.51,10.32 6.7,10.32 6.7,12.17 5.51,12.17 5.51,11.46 	"/>
	<line class="st3" x1="6.1" y1="12.17" x2="6.1" y2="13.8"/>
	<path class="st4" d="M17.53,9.59c0,0.45-0.36,0.81-0.81,0.81s-0.81-0.36-0.81-0.81c0-0.45,0.36-0.81,0.81-0.81
		S17.53,9.14,17.53,9.59z"/>
	<path class="st4" d="M17.53,12.59c0,0.45-0.36,0.81-0.81,0.81s-0.81-0.36-0.81-0.81c0-0.45,0.36-0.81,0.81-0.81
		S17.53,12.14,17.53,12.59z"/>
</g>
</svg>
