<?xml version="1.0" encoding="utf-8"?>
<!-- Generator: Adobe Illustrator 28.1.0, SVG Export Plug-In . SVG Version: 6.00 Build 0)  -->
<svg version="1.1" id="Layer_1" xmlns="http://www.w3.org/2000/svg" xmlns:xlink="http://www.w3.org/1999/xlink" x="0px" y="0px"
	 viewBox="0 0 24 24" style="enable-background:new 0 0 24 24;" xml:space="preserve">
<style type="text/css">
	.st0{fill:#CCCCCC;}
	.st1{fill:#FFFFFF;stroke:#005288;stroke-width:0.5973;stroke-linecap:round;stroke-linejoin:round;stroke-miterlimit:10;}
	.st2{fill:none;stroke:#005288;stroke-width:0.5973;stroke-linecap:round;stroke-linejoin:round;stroke-miterlimit:10;}
	.st3{fill:none;stroke:#00A4E4;stroke-width:0.5973;stroke-linecap:round;stroke-linejoin:round;stroke-miterlimit:10;}
	.st4{fill:#FFFFFF;stroke:#005288;stroke-width:0.68;stroke-linecap:round;stroke-linejoin:round;stroke-miterlimit:10;}
	.st5{fill:none;stroke:#005288;stroke-width:0.6562;stroke-linecap:round;stroke-linejoin:round;stroke-miterlimit:10;}
	.st6{fill:none;stroke:#00A4E4;stroke-width:0.6562;stroke-linecap:round;stroke-linejoin:round;stroke-miterlimit:10;}
	.st7{fill:#FFFFFF;stroke:#005288;stroke-width:0.8;stroke-linecap:round;stroke-linejoin:round;stroke-miterlimit:10;}
	.st8{fill:none;stroke:#005288;stroke-width:0.6321;stroke-linecap:round;stroke-linejoin:round;stroke-miterlimit:10;}
	.st9{fill:none;stroke:#00A4E4;stroke-width:0.6321;stroke-linecap:round;stroke-linejoin:round;stroke-miterlimit:10;}
	.st10{fill:none;stroke:#005288;stroke-width:0.525;stroke-linecap:round;stroke-linejoin:round;stroke-miterlimit:10;}
	.st11{fill:none;stroke:#00A4E4;stroke-width:0.525;stroke-linecap:round;stroke-linejoin:round;stroke-miterlimit:10;}
	.st12{fill:#005288;}
	.st13{fill:#00A4E4;}
	.st14{fill:none;stroke:#005288;stroke-width:0.8036;stroke-linecap:round;stroke-linejoin:round;stroke-miterlimit:10;}
	.st15{fill:#FFFFFF;stroke:#005288;stroke-width:0.725;stroke-linecap:round;stroke-linejoin:round;stroke-miterlimit:10;}
	.st16{fill:#FFFFFF;stroke:#005288;stroke-width:0.6562;stroke-linecap:round;stroke-linejoin:round;stroke-miterlimit:10;}
	.st17{fill:#FFFFFF;stroke:#005288;stroke-width:0.7871;stroke-linecap:round;stroke-linejoin:round;stroke-miterlimit:10;}
	.st18{fill:none;stroke:#00A4E4;stroke-width:0.7871;stroke-linecap:round;stroke-linejoin:round;stroke-miterlimit:10;}
	.st19{fill:#FFFFFF;stroke:#005288;stroke-width:0.75;stroke-linecap:round;stroke-linejoin:round;stroke-miterlimit:10;}
	.st20{fill:none;stroke:#FFFFFF;stroke-width:0.6562;stroke-linecap:round;stroke-linejoin:round;stroke-miterlimit:10;}
	.st21{fill:none;stroke:#005288;stroke-width:0.8;stroke-linecap:round;stroke-linejoin:round;stroke-miterlimit:10;}
	.st22{fill:none;stroke:#005288;stroke-width:0.5688;stroke-linecap:round;stroke-linejoin:round;stroke-miterlimit:10;}
	.st23{fill:none;stroke:#00A4E4;stroke-width:0.5688;stroke-linecap:round;stroke-linejoin:round;stroke-miterlimit:10;}
	.st24{fill:none;stroke:#00A4E4;stroke-width:0.8036;stroke-linecap:round;stroke-linejoin:round;stroke-miterlimit:10;}
	.st25{fill:none;stroke:#005288;stroke-width:0.7036;stroke-linecap:round;stroke-linejoin:round;stroke-miterlimit:10;}
	.st26{fill:none;stroke:#005288;stroke-width:0.5424;stroke-linejoin:round;stroke-miterlimit:10;}
	.st27{fill:none;stroke:#005288;stroke-width:0.5424;stroke-miterlimit:10;}
	.st28{fill:none;stroke:#00A4E4;stroke-width:0.5424;stroke-miterlimit:10;}
	.st29{fill:none;stroke:#00A4E4;stroke-width:0.5424;stroke-linecap:round;stroke-miterlimit:10;}
	.st30{fill:none;stroke:#005288;stroke-width:0.5424;stroke-linecap:round;stroke-linejoin:round;stroke-miterlimit:10;}
	.st31{fill:#FFFFFF;stroke:#005288;stroke-width:0.5733;stroke-miterlimit:10;}
	.st32{fill:#FFFFFF;stroke:#005288;stroke-width:0.75;stroke-miterlimit:10;}
	.st33{fill:none;stroke:#005288;stroke-width:0.5733;stroke-miterlimit:10;}
	.st34{fill:none;stroke:#00A4E4;stroke-width:0.5733;stroke-linecap:round;stroke-linejoin:round;stroke-miterlimit:10;}
	.st35{fill:none;stroke:#005288;stroke-width:0.5733;stroke-linecap:round;stroke-miterlimit:10;}
	.st36{fill:#FFFFFF;stroke:#00A4E4;stroke-width:0.5733;stroke-linecap:round;stroke-linejoin:round;stroke-miterlimit:10;}
	.st37{fill:none;stroke:#00A4E4;stroke-width:0.7076;stroke-linecap:round;stroke-linejoin:round;stroke-miterlimit:10;}
	.st38{fill:none;stroke:#005288;stroke-width:0.7076;stroke-linecap:round;stroke-linejoin:round;stroke-miterlimit:10;}
</style>
<g>
	<path class="st7" d="M19.19,22.5H4.81c-0.51,0-0.93-0.42-0.93-0.93V2.43c0-0.51,0.42-0.93,0.93-0.93h14.37
		c0.51,0,0.93,0.42,0.93,0.93v19.14C20.11,22.08,19.7,22.5,19.19,22.5z"/>
	<line class="st21" x1="3.89" y1="6.27" x2="20.11" y2="6.27"/>
	<path class="st13" d="M7.24,3.97c0,0.55-0.45,1-1,1c-0.55,0-1-0.45-1-1c0-0.55,0.45-1,1-1C6.79,2.97,7.24,3.42,7.24,3.97z"/>
	<line class="st5" x1="8.63" y1="3.97" x2="9.74" y2="3.97"/>
	<line class="st5" x1="10.83" y1="3.97" x2="11.94" y2="3.97"/>
	<g>
		<path class="st12" d="M9.64,14.18c1.42,0,2.58,1.16,2.58,2.58c0,1.42-1.16,2.58-2.58,2.58c-1.42,0-2.58-1.16-2.58-2.58
			C7.05,15.34,8.21,14.18,9.64,14.18 M9.64,13.61c-1.74,0-3.15,1.41-3.15,3.15s1.41,3.15,3.15,3.15c1.74,0,3.15-1.41,3.15-3.15
			S11.38,13.61,9.64,13.61L9.64,13.61z"/>
	</g>
	<g>
		<path class="st12" d="M9.64,15.38c0.77,0,1.39,0.62,1.39,1.39c0,0.77-0.62,1.39-1.39,1.39c-0.77,0-1.39-0.62-1.39-1.39
			C8.25,16,8.87,15.38,9.64,15.38 M9.64,14.81c-1.08,0-1.96,0.88-1.96,1.96c0,1.08,0.88,1.96,1.96,1.96c1.08,0,1.96-0.88,1.96-1.96
			C11.59,15.68,10.72,14.81,9.64,14.81L9.64,14.81z"/>
	</g>
	<path class="st22" d="M12.61,14.03c0.46-0.27,1-0.42,1.58-0.42c1.74,0,3.15,1.41,3.15,3.15s-1.41,3.15-3.15,3.15
		c-0.57,0-1.11-0.15-1.58-0.42"/>
	<path class="st22" d="M13.58,14.9c0.19-0.06,0.4-0.1,0.61-0.1c1.08,0,1.96,0.88,1.96,1.96c0,1.08-0.88,1.96-1.96,1.96
		c-0.21,0-0.42-0.03-0.61-0.1"/>
	<g>
		<line class="st23" x1="12" y1="7.98" x2="12" y2="8.9"/>
		<line class="st23" x1="12" y1="9.98" x2="12" y2="10.9"/>
		<line class="st23" x1="11.21" y1="9.53" x2="10.93" y2="10.4"/>
		<line class="st23" x1="10.6" y1="11.44" x2="10.33" y2="12.31"/>
		<line class="st23" x1="11.29" y1="7.98" x2="10.75" y2="8.72"/>
		<line class="st23" x1="10.12" y1="9.6" x2="9.58" y2="10.35"/>
		<line class="st23" x1="8.95" y1="11.23" x2="8.41" y2="11.97"/>
		<line class="st23" x1="12.79" y1="9.53" x2="13.07" y2="10.4"/>
		<line class="st23" x1="13.4" y1="11.44" x2="13.67" y2="12.31"/>
		<line class="st23" x1="12.71" y1="7.98" x2="13.25" y2="8.72"/>
		<line class="st23" x1="13.88" y1="9.6" x2="14.42" y2="10.35"/>
		<line class="st23" x1="15.05" y1="11.23" x2="15.59" y2="11.97"/>
	</g>
	<g>
		<path class="st12" d="M17.91,8.12c0.2,0,0.36,0.16,0.36,0.36v11.81c0,0.2-0.16,0.36-0.36,0.36H6.09c-0.2,0-0.36-0.16-0.36-0.36
			V8.48c0-0.2,0.16-0.36,0.36-0.36H17.91 M17.91,7.55H6.09c-0.51,0-0.93,0.42-0.93,0.93v11.81c0,0.51,0.42,0.93,0.93,0.93h11.81
			c0.51,0,0.93-0.42,0.93-0.93V8.48C18.83,7.97,18.42,7.55,17.91,7.55L17.91,7.55z"/>
	</g>
</g>
</svg>
