<?xml version="1.0" encoding="utf-8"?>
<!-- Generator: Adobe Illustrator 28.1.0, SVG Export Plug-In . SVG Version: 6.00 Build 0)  -->
<svg version="1.1" id="Layer_1" xmlns="http://www.w3.org/2000/svg" xmlns:xlink="http://www.w3.org/1999/xlink" x="0px" y="0px"
	 viewBox="0 0 24 24" style="enable-background:new 0 0 24 24;" xml:space="preserve">
<style type="text/css">
	.st0{fill:#CCCCCC;}
	.st1{fill:#FFFFFF;stroke:#005288;stroke-width:0.5973;stroke-linecap:round;stroke-linejoin:round;stroke-miterlimit:10;}
	.st2{fill:none;stroke:#005288;stroke-width:0.5973;stroke-linecap:round;stroke-linejoin:round;stroke-miterlimit:10;}
	.st3{fill:none;stroke:#00A4E4;stroke-width:0.5973;stroke-linecap:round;stroke-linejoin:round;stroke-miterlimit:10;}
	.st4{fill:#FFFFFF;stroke:#005288;stroke-width:0.68;stroke-linecap:round;stroke-linejoin:round;stroke-miterlimit:10;}
	.st5{fill:none;stroke:#005288;stroke-width:0.6562;stroke-linecap:round;stroke-linejoin:round;stroke-miterlimit:10;}
	.st6{fill:none;stroke:#00A4E4;stroke-width:0.6562;stroke-linecap:round;stroke-linejoin:round;stroke-miterlimit:10;}
	.st7{fill:#FFFFFF;stroke:#005288;stroke-width:0.8;stroke-linecap:round;stroke-linejoin:round;stroke-miterlimit:10;}
	.st8{fill:none;stroke:#005288;stroke-width:0.6321;stroke-linecap:round;stroke-linejoin:round;stroke-miterlimit:10;}
	.st9{fill:none;stroke:#00A4E4;stroke-width:0.6321;stroke-linecap:round;stroke-linejoin:round;stroke-miterlimit:10;}
	.st10{fill:none;stroke:#005288;stroke-width:0.525;stroke-linecap:round;stroke-linejoin:round;stroke-miterlimit:10;}
	.st11{fill:none;stroke:#00A4E4;stroke-width:0.525;stroke-linecap:round;stroke-linejoin:round;stroke-miterlimit:10;}
	.st12{fill:#005288;}
	.st13{fill:#00A4E4;}
	.st14{fill:none;stroke:#005288;stroke-width:0.8036;stroke-linecap:round;stroke-linejoin:round;stroke-miterlimit:10;}
	.st15{fill:#FFFFFF;stroke:#005288;stroke-width:0.725;stroke-linecap:round;stroke-linejoin:round;stroke-miterlimit:10;}
	.st16{fill:#FFFFFF;stroke:#005288;stroke-width:0.6562;stroke-linecap:round;stroke-linejoin:round;stroke-miterlimit:10;}
	.st17{fill:#FFFFFF;stroke:#005288;stroke-width:0.7871;stroke-linecap:round;stroke-linejoin:round;stroke-miterlimit:10;}
	.st18{fill:none;stroke:#00A4E4;stroke-width:0.7871;stroke-linecap:round;stroke-linejoin:round;stroke-miterlimit:10;}
	.st19{fill:#FFFFFF;stroke:#005288;stroke-width:0.75;stroke-linecap:round;stroke-linejoin:round;stroke-miterlimit:10;}
	.st20{fill:none;stroke:#FFFFFF;stroke-width:0.6562;stroke-linecap:round;stroke-linejoin:round;stroke-miterlimit:10;}
	.st21{fill:none;stroke:#005288;stroke-width:0.8;stroke-linecap:round;stroke-linejoin:round;stroke-miterlimit:10;}
	.st22{fill:none;stroke:#005288;stroke-width:0.5688;stroke-linecap:round;stroke-linejoin:round;stroke-miterlimit:10;}
	.st23{fill:none;stroke:#00A4E4;stroke-width:0.5688;stroke-linecap:round;stroke-linejoin:round;stroke-miterlimit:10;}
	.st24{fill:none;stroke:#00A4E4;stroke-width:0.8036;stroke-linecap:round;stroke-linejoin:round;stroke-miterlimit:10;}
	.st25{fill:none;stroke:#005288;stroke-width:0.7036;stroke-linecap:round;stroke-linejoin:round;stroke-miterlimit:10;}
	.st26{fill:none;stroke:#005288;stroke-width:0.5424;stroke-linejoin:round;stroke-miterlimit:10;}
	.st27{fill:none;stroke:#005288;stroke-width:0.5424;stroke-miterlimit:10;}
	.st28{fill:none;stroke:#00A4E4;stroke-width:0.5424;stroke-miterlimit:10;}
	.st29{fill:none;stroke:#00A4E4;stroke-width:0.5424;stroke-linecap:round;stroke-miterlimit:10;}
	.st30{fill:none;stroke:#005288;stroke-width:0.5424;stroke-linecap:round;stroke-linejoin:round;stroke-miterlimit:10;}
	.st31{fill:#FFFFFF;stroke:#005288;stroke-width:0.5733;stroke-miterlimit:10;}
	.st32{fill:#FFFFFF;stroke:#005288;stroke-width:0.75;stroke-miterlimit:10;}
	.st33{fill:none;stroke:#005288;stroke-width:0.5733;stroke-miterlimit:10;}
	.st34{fill:none;stroke:#00A4E4;stroke-width:0.5733;stroke-linecap:round;stroke-linejoin:round;stroke-miterlimit:10;}
	.st35{fill:none;stroke:#005288;stroke-width:0.5733;stroke-linecap:round;stroke-miterlimit:10;}
	.st36{fill:#FFFFFF;stroke:#00A4E4;stroke-width:0.5733;stroke-linecap:round;stroke-linejoin:round;stroke-miterlimit:10;}
	.st37{fill:none;stroke:#00A4E4;stroke-width:0.7076;stroke-linecap:round;stroke-linejoin:round;stroke-miterlimit:10;}
	.st38{fill:none;stroke:#005288;stroke-width:0.7076;stroke-linecap:round;stroke-linejoin:round;stroke-miterlimit:10;}
</style>
<g>
	<path class="st16" d="M17.33,22.5H3.64l0,0c0-1.03,0.84-1.87,1.87-1.87h9.96C16.5,20.63,17.33,21.47,17.33,22.5L17.33,22.5z"/>
	<path class="st16" d="M17.33,18.27H3.64v0.49c0,1.03,0.84,1.87,1.87,1.87h9.96c1.03,0,1.87-0.84,1.87-1.87V18.27z"/>
	<path class="st16" d="M10.49,18.27H3.64l0-9.6c0-5.09,3.75-7.16,6.85-7.16c3.1,0,6.85,2.07,6.85,7.16l0,9.6H10.49z"/>
	<line class="st5" x1="11.22" y1="19.34" x2="9.75" y2="19.34"/>
	<g>
		<line class="st20" x1="10.78" y1="14.77" x2="10.2" y2="14.77"/>
		<line class="st20" x1="10.78" y1="12.97" x2="10.2" y2="12.97"/>
		<line class="st20" x1="10.78" y1="11.17" x2="10.2" y2="11.17"/>
		<line class="st20" x1="10.78" y1="9.37" x2="10.2" y2="9.37"/>
		<line class="st20" x1="10.78" y1="7.57" x2="10.2" y2="7.57"/>
	</g>
	<line class="st5" x1="5.51" y1="3.57" x2="15.47" y2="3.57"/>
	<path class="st5" d="M14.67,2.85h4.2c1.9,0,3.44,1.54,3.44,3.44v6.66c0,1.01-0.44,1.97-1.21,2.62l-3.76,3.19"/>
	<path class="st5" d="M17.33,13.01c0,0.8,0.65,1.46,1.46,1.46c0.8,0,1.46-0.65,1.46-1.46c0-0.4,0-6.24,0-6.63
		c0-0.8-0.65-1.46-1.46-1.46h-2.32"/>
	<path class="st6" d="M11.77,7.15c0-0.71-0.57-1.28-1.28-1.28c-0.71,0-1.28,0.57-1.28,1.28c0,0.35,0,7.69,0,8.03
		c0,0.71,0.57,1.28,1.28,1.28c0.71,0,1.28-0.57,1.28-1.28C11.77,14.84,11.77,7.5,11.77,7.15z"/>
	<path class="st5" d="M4.5,4.93H2.05c-0.27,0-0.44,0.29-0.31,0.53l1.9,4.68"/>
	<path class="st5" d="M12.47,1.78c0,0,3.08,0,3.87,0c0.79,0,0.99,0.51,0.99,1.07"/>
</g>
</svg>
