<?xml version="1.0" encoding="utf-8"?>
<!-- Generator: Adobe Illustrator 28.1.0, SVG Export Plug-In . SVG Version: 6.00 Build 0)  -->
<svg version="1.1" id="Layer_1" xmlns="http://www.w3.org/2000/svg" xmlns:xlink="http://www.w3.org/1999/xlink" x="0px" y="0px"
	 viewBox="0 0 24 24" style="enable-background:new 0 0 24 24;" xml:space="preserve">
<style type="text/css">
	.st0{fill:#CCCCCC;}
	.st1{fill:#FFFFFF;stroke:#005288;stroke-width:0.5973;stroke-linecap:round;stroke-linejoin:round;stroke-miterlimit:10;}
	.st2{fill:none;stroke:#005288;stroke-width:0.5973;stroke-linecap:round;stroke-linejoin:round;stroke-miterlimit:10;}
	.st3{fill:none;stroke:#00A4E4;stroke-width:0.5973;stroke-linecap:round;stroke-linejoin:round;stroke-miterlimit:10;}
	.st4{fill:#FFFFFF;stroke:#005288;stroke-width:0.68;stroke-linecap:round;stroke-linejoin:round;stroke-miterlimit:10;}
	.st5{fill:none;stroke:#005288;stroke-width:0.6562;stroke-linecap:round;stroke-linejoin:round;stroke-miterlimit:10;}
	.st6{fill:none;stroke:#00A4E4;stroke-width:0.6562;stroke-linecap:round;stroke-linejoin:round;stroke-miterlimit:10;}
	.st7{fill:#FFFFFF;stroke:#005288;stroke-width:0.8;stroke-linecap:round;stroke-linejoin:round;stroke-miterlimit:10;}
	.st8{fill:none;stroke:#005288;stroke-width:0.6321;stroke-linecap:round;stroke-linejoin:round;stroke-miterlimit:10;}
	.st9{fill:none;stroke:#00A4E4;stroke-width:0.6321;stroke-linecap:round;stroke-linejoin:round;stroke-miterlimit:10;}
	.st10{fill:none;stroke:#005288;stroke-width:0.525;stroke-linecap:round;stroke-linejoin:round;stroke-miterlimit:10;}
	.st11{fill:none;stroke:#00A4E4;stroke-width:0.525;stroke-linecap:round;stroke-linejoin:round;stroke-miterlimit:10;}
	.st12{fill:#005288;}
	.st13{fill:#00A4E4;}
	.st14{fill:none;stroke:#005288;stroke-width:0.8036;stroke-linecap:round;stroke-linejoin:round;stroke-miterlimit:10;}
	.st15{fill:#FFFFFF;stroke:#005288;stroke-width:0.725;stroke-linecap:round;stroke-linejoin:round;stroke-miterlimit:10;}
	.st16{fill:#FFFFFF;stroke:#005288;stroke-width:0.6562;stroke-linecap:round;stroke-linejoin:round;stroke-miterlimit:10;}
	.st17{fill:#FFFFFF;stroke:#005288;stroke-width:0.7871;stroke-linecap:round;stroke-linejoin:round;stroke-miterlimit:10;}
	.st18{fill:none;stroke:#00A4E4;stroke-width:0.7871;stroke-linecap:round;stroke-linejoin:round;stroke-miterlimit:10;}
	.st19{fill:#FFFFFF;stroke:#005288;stroke-width:0.75;stroke-linecap:round;stroke-linejoin:round;stroke-miterlimit:10;}
	.st20{fill:none;stroke:#FFFFFF;stroke-width:0.6562;stroke-linecap:round;stroke-linejoin:round;stroke-miterlimit:10;}
	.st21{fill:none;stroke:#005288;stroke-width:0.8;stroke-linecap:round;stroke-linejoin:round;stroke-miterlimit:10;}
	.st22{fill:none;stroke:#005288;stroke-width:0.5688;stroke-linecap:round;stroke-linejoin:round;stroke-miterlimit:10;}
	.st23{fill:none;stroke:#00A4E4;stroke-width:0.5688;stroke-linecap:round;stroke-linejoin:round;stroke-miterlimit:10;}
	.st24{fill:none;stroke:#00A4E4;stroke-width:0.8036;stroke-linecap:round;stroke-linejoin:round;stroke-miterlimit:10;}
	.st25{fill:none;stroke:#005288;stroke-width:0.7036;stroke-linecap:round;stroke-linejoin:round;stroke-miterlimit:10;}
	.st26{fill:none;stroke:#005288;stroke-width:0.5424;stroke-linejoin:round;stroke-miterlimit:10;}
	.st27{fill:none;stroke:#005288;stroke-width:0.5424;stroke-miterlimit:10;}
	.st28{fill:none;stroke:#00A4E4;stroke-width:0.5424;stroke-miterlimit:10;}
	.st29{fill:none;stroke:#00A4E4;stroke-width:0.5424;stroke-linecap:round;stroke-miterlimit:10;}
	.st30{fill:none;stroke:#005288;stroke-width:0.5424;stroke-linecap:round;stroke-linejoin:round;stroke-miterlimit:10;}
	.st31{fill:#FFFFFF;stroke:#005288;stroke-width:0.5733;stroke-miterlimit:10;}
	.st32{fill:#FFFFFF;stroke:#005288;stroke-width:0.75;stroke-miterlimit:10;}
	.st33{fill:none;stroke:#005288;stroke-width:0.5733;stroke-miterlimit:10;}
	.st34{fill:none;stroke:#00A4E4;stroke-width:0.5733;stroke-linecap:round;stroke-linejoin:round;stroke-miterlimit:10;}
	.st35{fill:none;stroke:#005288;stroke-width:0.5733;stroke-linecap:round;stroke-miterlimit:10;}
	.st36{fill:#FFFFFF;stroke:#00A4E4;stroke-width:0.5733;stroke-linecap:round;stroke-linejoin:round;stroke-miterlimit:10;}
	.st37{fill:none;stroke:#00A4E4;stroke-width:0.7076;stroke-linecap:round;stroke-linejoin:round;stroke-miterlimit:10;}
	.st38{fill:none;stroke:#005288;stroke-width:0.7076;stroke-linecap:round;stroke-linejoin:round;stroke-miterlimit:10;}
</style>
<g>
	<path class="st7" d="M16.52,22.5H7.48c-0.48,0-0.87-0.39-0.87-0.87V2.37c0-0.48,0.39-0.87,0.87-0.87h9.05
		c0.48,0,0.87,0.39,0.87,0.87v19.25C17.4,22.11,17.01,22.5,16.52,22.5z"/>
	<g>
		<g>
			<path class="st13" d="M12.13,10.88c-0.16,0-0.28-0.13-0.28-0.28V4.37c0-0.16,0.13-0.28,0.28-0.28s0.28,0.13,0.28,0.28v6.22
				C12.41,10.75,12.28,10.88,12.13,10.88z"/>
			<path class="st13" d="M11.16,10.64c-0.1,0-0.19-0.05-0.24-0.14c-0.08-0.13-0.04-0.31,0.1-0.39l0.97-0.58
				c0.14-0.08,0.31-0.04,0.39,0.1c0.08,0.13,0.04,0.31-0.1,0.39l-0.97,0.58C11.26,10.63,11.21,10.64,11.16,10.64z"/>
			<path class="st13" d="M13.09,10.64c-0.05,0-0.1-0.01-0.15-0.04l-0.97-0.58c-0.13-0.08-0.18-0.26-0.1-0.39
				c0.08-0.13,0.26-0.18,0.39-0.1l0.97,0.58c0.13,0.08,0.18,0.26,0.1,0.39C13.28,10.59,13.19,10.64,13.09,10.64z"/>
			<path class="st13" d="M12.13,5.47c-0.05,0-0.1-0.01-0.15-0.04l-0.97-0.58c-0.13-0.08-0.18-0.26-0.1-0.39
				c0.08-0.13,0.26-0.18,0.39-0.1l0.97,0.58c0.13,0.08,0.18,0.26,0.1,0.39C12.32,5.42,12.22,5.47,12.13,5.47z"/>
			<path class="st13" d="M12.13,5.47c-0.1,0-0.19-0.05-0.24-0.14c-0.08-0.13-0.04-0.31,0.1-0.39l0.97-0.58
				c0.14-0.08,0.31-0.04,0.39,0.1c0.08,0.13,0.04,0.31-0.1,0.39l-0.97,0.58C12.23,5.46,12.18,5.47,12.13,5.47z"/>
		</g>
		<g>
			<path class="st13" d="M14.82,9.32c-0.05,0-0.1-0.01-0.14-0.04L9.29,6.17C9.15,6.1,9.11,5.92,9.19,5.79
				c0.08-0.14,0.25-0.18,0.39-0.1l5.39,3.11c0.14,0.08,0.18,0.25,0.1,0.39C15.01,9.27,14.92,9.32,14.82,9.32z"/>
			<path class="st13" d="M14.13,10.04c-0.15,0-0.28-0.12-0.28-0.28l-0.02-1.13c0-0.16,0.12-0.29,0.28-0.29
				c0.15,0,0.29,0.12,0.29,0.28l0.02,1.13C14.42,9.91,14.29,10.04,14.13,10.04C14.14,10.04,14.13,10.04,14.13,10.04z"/>
			<path class="st13" d="M14.11,8.92c-0.1,0-0.2-0.05-0.25-0.15c-0.08-0.14-0.03-0.31,0.11-0.39l0.98-0.55
				c0.14-0.08,0.31-0.03,0.39,0.11c0.08,0.14,0.03,0.31-0.11,0.39l-0.98,0.55C14.21,8.9,14.16,8.92,14.11,8.92z"/>
			<path class="st13" d="M9.15,7.17c-0.1,0-0.2-0.05-0.25-0.15C8.83,6.88,8.88,6.71,9.02,6.63L10,6.09
				c0.14-0.08,0.31-0.03,0.39,0.11s0.03,0.31-0.11,0.39L9.29,7.13C9.25,7.15,9.2,7.17,9.15,7.17z"/>
			<path class="st13" d="M10.14,6.62c-0.15,0-0.28-0.12-0.28-0.28L9.83,5.21c0-0.16,0.12-0.29,0.28-0.29
				c0.15,0.01,0.29,0.12,0.29,0.28l0.02,1.13C10.42,6.49,10.3,6.62,10.14,6.62C10.14,6.62,10.14,6.62,10.14,6.62z"/>
		</g>
		<g>
			<path class="st13" d="M9.43,9.32c-0.1,0-0.19-0.05-0.25-0.14c-0.08-0.14-0.03-0.31,0.1-0.39l5.39-3.11
				c0.14-0.08,0.31-0.03,0.39,0.1c0.08,0.14,0.03,0.31-0.1,0.39L9.57,9.28C9.53,9.31,9.48,9.32,9.43,9.32z"/>
			<path class="st13" d="M15.1,7.17c-0.05,0-0.09-0.01-0.14-0.04l-0.98-0.55c-0.14-0.08-0.19-0.25-0.11-0.39
				c0.08-0.14,0.25-0.19,0.39-0.11l0.98,0.55c0.14,0.08,0.19,0.25,0.11,0.39C15.29,7.11,15.2,7.17,15.1,7.17z"/>
			<path class="st13" d="M14.11,6.62C14.11,6.62,14.11,6.62,14.11,6.62c-0.16,0-0.29-0.13-0.28-0.29l0.02-1.13
				c0-0.16,0.13-0.28,0.28-0.28c0,0,0,0,0,0c0.16,0,0.28,0.13,0.28,0.29L14.4,6.34C14.4,6.5,14.27,6.62,14.11,6.62z"/>
			<path class="st13" d="M10.12,10.04C10.12,10.04,10.12,10.04,10.12,10.04c-0.16,0-0.29-0.13-0.28-0.29l0.02-1.13
				c0-0.16,0.15-0.27,0.29-0.28c0.16,0,0.28,0.13,0.28,0.29L10.4,9.76C10.4,9.92,10.27,10.04,10.12,10.04z"/>
			<path class="st13" d="M10.14,8.92c-0.05,0-0.09-0.01-0.14-0.04L9.02,8.33C8.88,8.26,8.83,8.08,8.9,7.95
				c0.08-0.14,0.25-0.19,0.39-0.11l0.98,0.55c0.14,0.08,0.19,0.25,0.11,0.39C10.33,8.86,10.24,8.92,10.14,8.92z"/>
		</g>
	</g>
	<line class="st5" x1="6.6" y1="15" x2="17.4" y2="15"/>
	<path class="st5" d="M14.81,15.4c0,0.48-0.34,0.86-0.76,0.86H9.96c-0.42,0-0.76-0.39-0.76-0.86"/>
</g>
</svg>
