<?xml version="1.0" encoding="utf-8"?>
<!-- Generator: Adobe Illustrator 28.1.0, SVG Export Plug-In . SVG Version: 6.00 Build 0)  -->
<svg version="1.1" id="Layer_1" xmlns="http://www.w3.org/2000/svg" xmlns:xlink="http://www.w3.org/1999/xlink" x="0px" y="0px"
	 viewBox="0 0 24 24" style="enable-background:new 0 0 24 24;" xml:space="preserve">
<style type="text/css">
	.st0{fill:#CCCCCC;}
	.st1{fill:#FFFFFF;stroke:#005288;stroke-width:0.5973;stroke-linecap:round;stroke-linejoin:round;stroke-miterlimit:10;}
	.st2{fill:none;stroke:#005288;stroke-width:0.5973;stroke-linecap:round;stroke-linejoin:round;stroke-miterlimit:10;}
	.st3{fill:none;stroke:#00A4E4;stroke-width:0.5973;stroke-linecap:round;stroke-linejoin:round;stroke-miterlimit:10;}
	.st4{fill:#FFFFFF;stroke:#005288;stroke-width:0.68;stroke-linecap:round;stroke-linejoin:round;stroke-miterlimit:10;}
	.st5{fill:none;stroke:#005288;stroke-width:0.6562;stroke-linecap:round;stroke-linejoin:round;stroke-miterlimit:10;}
	.st6{fill:none;stroke:#00A4E4;stroke-width:0.6562;stroke-linecap:round;stroke-linejoin:round;stroke-miterlimit:10;}
	.st7{fill:#FFFFFF;stroke:#005288;stroke-width:0.8;stroke-linecap:round;stroke-linejoin:round;stroke-miterlimit:10;}
	.st8{fill:none;stroke:#005288;stroke-width:0.6321;stroke-linecap:round;stroke-linejoin:round;stroke-miterlimit:10;}
	.st9{fill:none;stroke:#00A4E4;stroke-width:0.6321;stroke-linecap:round;stroke-linejoin:round;stroke-miterlimit:10;}
	.st10{fill:none;stroke:#005288;stroke-width:0.525;stroke-linecap:round;stroke-linejoin:round;stroke-miterlimit:10;}
	.st11{fill:none;stroke:#00A4E4;stroke-width:0.525;stroke-linecap:round;stroke-linejoin:round;stroke-miterlimit:10;}
	.st12{fill:#005288;}
	.st13{fill:#00A4E4;}
	.st14{fill:none;stroke:#005288;stroke-width:0.8036;stroke-linecap:round;stroke-linejoin:round;stroke-miterlimit:10;}
	.st15{fill:#FFFFFF;stroke:#005288;stroke-width:0.725;stroke-linecap:round;stroke-linejoin:round;stroke-miterlimit:10;}
	.st16{fill:#FFFFFF;stroke:#005288;stroke-width:0.6562;stroke-linecap:round;stroke-linejoin:round;stroke-miterlimit:10;}
	.st17{fill:#FFFFFF;stroke:#005288;stroke-width:0.7871;stroke-linecap:round;stroke-linejoin:round;stroke-miterlimit:10;}
	.st18{fill:none;stroke:#00A4E4;stroke-width:0.7871;stroke-linecap:round;stroke-linejoin:round;stroke-miterlimit:10;}
	.st19{fill:#FFFFFF;stroke:#005288;stroke-width:0.75;stroke-linecap:round;stroke-linejoin:round;stroke-miterlimit:10;}
	.st20{fill:none;stroke:#FFFFFF;stroke-width:0.6562;stroke-linecap:round;stroke-linejoin:round;stroke-miterlimit:10;}
	.st21{fill:none;stroke:#005288;stroke-width:0.8;stroke-linecap:round;stroke-linejoin:round;stroke-miterlimit:10;}
	.st22{fill:none;stroke:#005288;stroke-width:0.5688;stroke-linecap:round;stroke-linejoin:round;stroke-miterlimit:10;}
	.st23{fill:none;stroke:#00A4E4;stroke-width:0.5688;stroke-linecap:round;stroke-linejoin:round;stroke-miterlimit:10;}
	.st24{fill:none;stroke:#00A4E4;stroke-width:0.8036;stroke-linecap:round;stroke-linejoin:round;stroke-miterlimit:10;}
	.st25{fill:none;stroke:#005288;stroke-width:0.7036;stroke-linecap:round;stroke-linejoin:round;stroke-miterlimit:10;}
	.st26{fill:none;stroke:#005288;stroke-width:0.5424;stroke-linejoin:round;stroke-miterlimit:10;}
	.st27{fill:none;stroke:#005288;stroke-width:0.5424;stroke-miterlimit:10;}
	.st28{fill:none;stroke:#00A4E4;stroke-width:0.5424;stroke-miterlimit:10;}
	.st29{fill:none;stroke:#00A4E4;stroke-width:0.5424;stroke-linecap:round;stroke-miterlimit:10;}
	.st30{fill:none;stroke:#005288;stroke-width:0.5424;stroke-linecap:round;stroke-linejoin:round;stroke-miterlimit:10;}
	.st31{fill:#FFFFFF;stroke:#005288;stroke-width:0.5733;stroke-miterlimit:10;}
	.st32{fill:#FFFFFF;stroke:#005288;stroke-width:0.75;stroke-miterlimit:10;}
	.st33{fill:none;stroke:#005288;stroke-width:0.5733;stroke-miterlimit:10;}
	.st34{fill:none;stroke:#00A4E4;stroke-width:0.5733;stroke-linecap:round;stroke-linejoin:round;stroke-miterlimit:10;}
	.st35{fill:none;stroke:#005288;stroke-width:0.5733;stroke-linecap:round;stroke-miterlimit:10;}
	.st36{fill:#FFFFFF;stroke:#00A4E4;stroke-width:0.5733;stroke-linecap:round;stroke-linejoin:round;stroke-miterlimit:10;}
	.st37{fill:none;stroke:#00A4E4;stroke-width:0.7076;stroke-linecap:round;stroke-linejoin:round;stroke-miterlimit:10;}
	.st38{fill:none;stroke:#005288;stroke-width:0.7076;stroke-linecap:round;stroke-linejoin:round;stroke-miterlimit:10;}
</style>
<g>
	<path class="st19" d="M21.96,19.23H2.04c-0.3,0-0.54-0.24-0.54-0.54V5.31c0-0.3,0.24-0.54,0.54-0.54h19.91
		c0.3,0,0.54,0.24,0.54,0.54v13.38C22.5,18.99,22.26,19.23,21.96,19.23z"/>
	<g id="XMLID_550_">
		<line id="XMLID_556_" class="st26" x1="19.09" y1="10.82" x2="18.48" y2="10.82"/>
		<line id="XMLID_555_" class="st26" x1="20.68" y1="10.82" x2="20.07" y2="10.82"/>
		<line id="XMLID_554_" class="st26" x1="19.09" y1="12" x2="18.48" y2="12"/>
		<line id="XMLID_553_" class="st26" x1="20.68" y1="12" x2="20.07" y2="12"/>
		<line id="XMLID_552_" class="st26" x1="19.09" y1="13.18" x2="18.48" y2="13.18"/>
		<line id="XMLID_551_" class="st26" x1="20.68" y1="13.18" x2="20.07" y2="13.18"/>
	</g>
	<rect x="3.1" y="6.37" class="st27" width="13.48" height="11.26"/>
	<circle class="st28" cx="19.58" cy="16.27" r="1.36"/>
	<g>
		<g>
			<path class="st29" d="M11.02,10.62L11.02,10.62c0.19-0.19,0.19-0.49,0-0.68l-0.19-0.19l-0.19-0.19c-0.19-0.19-0.19-0.49,0-0.68
				l0,0"/>
			<path class="st29" d="M9.55,10.62L9.55,10.62c0.19-0.19,0.19-0.49,0-0.68L9.36,9.75L9.17,9.56c-0.19-0.19-0.19-0.49,0-0.68l0,0"
				/>
			<path class="st29" d="M8.08,10.62L8.08,10.62c0.19-0.19,0.19-0.49,0-0.68L7.89,9.75L7.7,9.56c-0.19-0.19-0.19-0.49,0-0.68l0,0"/>
		</g>
		<g>
			<path class="st30" d="M12.56,12.89c-0.11,0.56-0.39,1.34-1.05,2.06c0.22,0.14,1.42,0.43,1.92-0.27c0,0,0.32-0.44,0.36-1.04
				c0.02-0.3-0.57-0.59-0.86-0.66L12.56,12.89"/>
			<path class="st30" d="M12.56,12.89c0.07-0.29,0.07-0.6,0.07-0.61c0-0.03-0.03-0.06-0.06-0.06H6.39c-0.03,0-0.06,0.02-0.06,0.06
				c0,0.02,0.01,2.08,1.93,3.36c0.01,0.01,0.02,0.01,0.03,0.01h2.38c0.01,0,0.02,0,0.03-0.01c0.16-0.1,0.54-0.42,0.8-0.69"/>
		</g>
	</g>
</g>
</svg>
