<?xml version="1.0" encoding="utf-8"?>
<!-- Generator: Adobe Illustrator 28.1.0, SVG Export Plug-In . SVG Version: 6.00 Build 0)  -->
<svg version="1.1" id="Layer_1" xmlns="http://www.w3.org/2000/svg" xmlns:xlink="http://www.w3.org/1999/xlink" x="0px" y="0px"
	 viewBox="0 0 24 24" style="enable-background:new 0 0 24 24;" xml:space="preserve">
<style type="text/css">
	.st0{fill:#CCCCCC;}
	.st1{fill:#FFFFFF;stroke:#005288;stroke-width:0.5973;stroke-linecap:round;stroke-linejoin:round;stroke-miterlimit:10;}
	.st2{fill:none;stroke:#005288;stroke-width:0.5973;stroke-linecap:round;stroke-linejoin:round;stroke-miterlimit:10;}
	.st3{fill:none;stroke:#00A4E4;stroke-width:0.5973;stroke-linecap:round;stroke-linejoin:round;stroke-miterlimit:10;}
	.st4{fill:#FFFFFF;stroke:#005288;stroke-width:0.68;stroke-linecap:round;stroke-linejoin:round;stroke-miterlimit:10;}
	.st5{fill:none;stroke:#005288;stroke-width:0.6562;stroke-linecap:round;stroke-linejoin:round;stroke-miterlimit:10;}
	.st6{fill:none;stroke:#00A4E4;stroke-width:0.6562;stroke-linecap:round;stroke-linejoin:round;stroke-miterlimit:10;}
	.st7{fill:#FFFFFF;stroke:#005288;stroke-width:0.8;stroke-linecap:round;stroke-linejoin:round;stroke-miterlimit:10;}
	.st8{fill:none;stroke:#005288;stroke-width:0.6321;stroke-linecap:round;stroke-linejoin:round;stroke-miterlimit:10;}
	.st9{fill:none;stroke:#00A4E4;stroke-width:0.6321;stroke-linecap:round;stroke-linejoin:round;stroke-miterlimit:10;}
	.st10{fill:none;stroke:#005288;stroke-width:0.525;stroke-linecap:round;stroke-linejoin:round;stroke-miterlimit:10;}
	.st11{fill:none;stroke:#00A4E4;stroke-width:0.525;stroke-linecap:round;stroke-linejoin:round;stroke-miterlimit:10;}
	.st12{fill:#005288;}
	.st13{fill:#00A4E4;}
	.st14{fill:none;stroke:#005288;stroke-width:0.8036;stroke-linecap:round;stroke-linejoin:round;stroke-miterlimit:10;}
	.st15{fill:#FFFFFF;stroke:#005288;stroke-width:0.725;stroke-linecap:round;stroke-linejoin:round;stroke-miterlimit:10;}
	.st16{fill:#FFFFFF;stroke:#005288;stroke-width:0.6562;stroke-linecap:round;stroke-linejoin:round;stroke-miterlimit:10;}
	.st17{fill:#FFFFFF;stroke:#005288;stroke-width:0.7871;stroke-linecap:round;stroke-linejoin:round;stroke-miterlimit:10;}
	.st18{fill:none;stroke:#00A4E4;stroke-width:0.7871;stroke-linecap:round;stroke-linejoin:round;stroke-miterlimit:10;}
	.st19{fill:#FFFFFF;stroke:#005288;stroke-width:0.75;stroke-linecap:round;stroke-linejoin:round;stroke-miterlimit:10;}
	.st20{fill:none;stroke:#FFFFFF;stroke-width:0.6562;stroke-linecap:round;stroke-linejoin:round;stroke-miterlimit:10;}
	.st21{fill:none;stroke:#005288;stroke-width:0.8;stroke-linecap:round;stroke-linejoin:round;stroke-miterlimit:10;}
	.st22{fill:none;stroke:#005288;stroke-width:0.5688;stroke-linecap:round;stroke-linejoin:round;stroke-miterlimit:10;}
	.st23{fill:none;stroke:#00A4E4;stroke-width:0.5688;stroke-linecap:round;stroke-linejoin:round;stroke-miterlimit:10;}
	.st24{fill:none;stroke:#00A4E4;stroke-width:0.8036;stroke-linecap:round;stroke-linejoin:round;stroke-miterlimit:10;}
	.st25{fill:none;stroke:#005288;stroke-width:0.7036;stroke-linecap:round;stroke-linejoin:round;stroke-miterlimit:10;}
	.st26{fill:none;stroke:#005288;stroke-width:0.5424;stroke-linejoin:round;stroke-miterlimit:10;}
	.st27{fill:none;stroke:#005288;stroke-width:0.5424;stroke-miterlimit:10;}
	.st28{fill:none;stroke:#00A4E4;stroke-width:0.5424;stroke-miterlimit:10;}
	.st29{fill:none;stroke:#00A4E4;stroke-width:0.5424;stroke-linecap:round;stroke-miterlimit:10;}
	.st30{fill:none;stroke:#005288;stroke-width:0.5424;stroke-linecap:round;stroke-linejoin:round;stroke-miterlimit:10;}
	.st31{fill:#FFFFFF;stroke:#005288;stroke-width:0.5733;stroke-miterlimit:10;}
	.st32{fill:#FFFFFF;stroke:#005288;stroke-width:0.75;stroke-miterlimit:10;}
	.st33{fill:none;stroke:#005288;stroke-width:0.5733;stroke-miterlimit:10;}
	.st34{fill:none;stroke:#00A4E4;stroke-width:0.5733;stroke-linecap:round;stroke-linejoin:round;stroke-miterlimit:10;}
	.st35{fill:none;stroke:#005288;stroke-width:0.5733;stroke-linecap:round;stroke-miterlimit:10;}
	.st36{fill:#FFFFFF;stroke:#00A4E4;stroke-width:0.5733;stroke-linecap:round;stroke-linejoin:round;stroke-miterlimit:10;}
	.st37{fill:none;stroke:#00A4E4;stroke-width:0.7076;stroke-linecap:round;stroke-linejoin:round;stroke-miterlimit:10;}
	.st38{fill:none;stroke:#005288;stroke-width:0.7076;stroke-linecap:round;stroke-linejoin:round;stroke-miterlimit:10;}
</style>
<g>
	<path class="st1" d="M15.82,16.27h-4.16H7.5c-0.92,1.35-1.47,3.38-1.76,4.76c-0.16,0.76,0.42,1.47,1.2,1.47h4.72h4.72
		c0.78,0,1.36-0.71,1.2-1.47C17.29,19.66,16.74,17.62,15.82,16.27z"/>
	<path class="st1" d="M5.56,5.04c-1.17,0-2.12-0.95-2.12-2.12h2.12"/>
	<path class="st2" d="M16.92,11.91c0.87-0.85,2.09-2.09,2.17-2.69c0.29-2.16,0.4-3.99,0.45-5.13c0-0.04-0.01-0.07-0.04-0.1
		c-0.03-0.03-0.06-0.04-0.09-0.04h-1.57"/>
	<path class="st1" d="M11.66,16.27h4.16c2.01-6.43,2.01-13.35,2.01-13.35h-6.18H5.48c0,0,0,6.92,2.01,13.35H11.66z"/>
	<path class="st1" d="M17.84,2.92c0.05,0.05,0.06-1.42-1.42-1.42h-4.75H6.9c-0.79,0-1.42,0.64-1.42,1.42
		C5.48,2.92,17.8,2.88,17.84,2.92z"/>
	<line class="st2" x1="10.34" y1="5.04" x2="12.97" y2="5.04"/>
	<line class="st2" x1="10.34" y1="7.29" x2="12.97" y2="7.29"/>
	<line class="st2" x1="10.34" y1="9.53" x2="12.97" y2="9.53"/>
	<line class="st2" x1="10.34" y1="11.78" x2="12.97" y2="11.78"/>
	<line class="st2" x1="10.34" y1="14.03" x2="12.97" y2="14.03"/>
	<path class="st3" d="M12.91,19.39c0,0.69-0.56,1.25-1.25,1.25s-1.25-0.56-1.25-1.25c0-0.69,0.56-1.25,1.25-1.25
		S12.91,18.7,12.91,19.39z"/>
	<path class="st2" d="M16.52,13.71c1.06-1.06,3.41-3.06,3.59-4.36c0.3-2.22,0.41-4.09,0.46-5.23c0.03-0.65-0.5-1.2-1.15-1.2h-1.57"
		/>
</g>
</svg>
