<?xml version="1.0" encoding="utf-8"?>
<!-- Generator: Adobe Illustrator 28.1.0, SVG Export Plug-In . SVG Version: 6.00 Build 0)  -->
<svg version="1.1" id="Layer_1" xmlns="http://www.w3.org/2000/svg" xmlns:xlink="http://www.w3.org/1999/xlink" x="0px" y="0px"
	 viewBox="0 0 24 24" style="enable-background:new 0 0 24 24;" xml:space="preserve">
<style type="text/css">
	.st0{fill:#CCCCCC;}
	.st1{fill:#FFFFFF;stroke:#005288;stroke-width:0.5973;stroke-linecap:round;stroke-linejoin:round;stroke-miterlimit:10;}
	.st2{fill:none;stroke:#005288;stroke-width:0.5973;stroke-linecap:round;stroke-linejoin:round;stroke-miterlimit:10;}
	.st3{fill:none;stroke:#00A4E4;stroke-width:0.5973;stroke-linecap:round;stroke-linejoin:round;stroke-miterlimit:10;}
	.st4{fill:#FFFFFF;stroke:#005288;stroke-width:0.68;stroke-linecap:round;stroke-linejoin:round;stroke-miterlimit:10;}
	.st5{fill:none;stroke:#005288;stroke-width:0.6562;stroke-linecap:round;stroke-linejoin:round;stroke-miterlimit:10;}
	.st6{fill:none;stroke:#00A4E4;stroke-width:0.6562;stroke-linecap:round;stroke-linejoin:round;stroke-miterlimit:10;}
	.st7{fill:#FFFFFF;stroke:#005288;stroke-width:0.8;stroke-linecap:round;stroke-linejoin:round;stroke-miterlimit:10;}
	.st8{fill:none;stroke:#005288;stroke-width:0.6321;stroke-linecap:round;stroke-linejoin:round;stroke-miterlimit:10;}
	.st9{fill:none;stroke:#00A4E4;stroke-width:0.6321;stroke-linecap:round;stroke-linejoin:round;stroke-miterlimit:10;}
	.st10{fill:none;stroke:#005288;stroke-width:0.525;stroke-linecap:round;stroke-linejoin:round;stroke-miterlimit:10;}
	.st11{fill:none;stroke:#00A4E4;stroke-width:0.525;stroke-linecap:round;stroke-linejoin:round;stroke-miterlimit:10;}
	.st12{fill:#005288;}
	.st13{fill:#00A4E4;}
	.st14{fill:none;stroke:#005288;stroke-width:0.8036;stroke-linecap:round;stroke-linejoin:round;stroke-miterlimit:10;}
	.st15{fill:#FFFFFF;stroke:#005288;stroke-width:0.725;stroke-linecap:round;stroke-linejoin:round;stroke-miterlimit:10;}
	.st16{fill:#FFFFFF;stroke:#005288;stroke-width:0.6562;stroke-linecap:round;stroke-linejoin:round;stroke-miterlimit:10;}
	.st17{fill:#FFFFFF;stroke:#005288;stroke-width:0.7871;stroke-linecap:round;stroke-linejoin:round;stroke-miterlimit:10;}
	.st18{fill:none;stroke:#00A4E4;stroke-width:0.7871;stroke-linecap:round;stroke-linejoin:round;stroke-miterlimit:10;}
	.st19{fill:#FFFFFF;stroke:#005288;stroke-width:0.75;stroke-linecap:round;stroke-linejoin:round;stroke-miterlimit:10;}
	.st20{fill:none;stroke:#FFFFFF;stroke-width:0.6562;stroke-linecap:round;stroke-linejoin:round;stroke-miterlimit:10;}
	.st21{fill:none;stroke:#005288;stroke-width:0.8;stroke-linecap:round;stroke-linejoin:round;stroke-miterlimit:10;}
	.st22{fill:none;stroke:#005288;stroke-width:0.5688;stroke-linecap:round;stroke-linejoin:round;stroke-miterlimit:10;}
	.st23{fill:none;stroke:#00A4E4;stroke-width:0.5688;stroke-linecap:round;stroke-linejoin:round;stroke-miterlimit:10;}
	.st24{fill:none;stroke:#00A4E4;stroke-width:0.8036;stroke-linecap:round;stroke-linejoin:round;stroke-miterlimit:10;}
	.st25{fill:none;stroke:#005288;stroke-width:0.7036;stroke-linecap:round;stroke-linejoin:round;stroke-miterlimit:10;}
	.st26{fill:none;stroke:#005288;stroke-width:0.5424;stroke-linejoin:round;stroke-miterlimit:10;}
	.st27{fill:none;stroke:#005288;stroke-width:0.5424;stroke-miterlimit:10;}
	.st28{fill:none;stroke:#00A4E4;stroke-width:0.5424;stroke-miterlimit:10;}
	.st29{fill:none;stroke:#00A4E4;stroke-width:0.5424;stroke-linecap:round;stroke-miterlimit:10;}
	.st30{fill:none;stroke:#005288;stroke-width:0.5424;stroke-linecap:round;stroke-linejoin:round;stroke-miterlimit:10;}
	.st31{fill:#FFFFFF;stroke:#005288;stroke-width:0.5733;stroke-miterlimit:10;}
	.st32{fill:#FFFFFF;stroke:#005288;stroke-width:0.75;stroke-miterlimit:10;}
	.st33{fill:none;stroke:#005288;stroke-width:0.5733;stroke-miterlimit:10;}
	.st34{fill:none;stroke:#00A4E4;stroke-width:0.5733;stroke-linecap:round;stroke-linejoin:round;stroke-miterlimit:10;}
	.st35{fill:none;stroke:#005288;stroke-width:0.5733;stroke-linecap:round;stroke-miterlimit:10;}
	.st36{fill:#FFFFFF;stroke:#00A4E4;stroke-width:0.5733;stroke-linecap:round;stroke-linejoin:round;stroke-miterlimit:10;}
	.st37{fill:none;stroke:#00A4E4;stroke-width:0.7076;stroke-linecap:round;stroke-linejoin:round;stroke-miterlimit:10;}
	.st38{fill:none;stroke:#005288;stroke-width:0.7076;stroke-linecap:round;stroke-linejoin:round;stroke-miterlimit:10;}
</style>
<g>
	<path class="st7" d="M20.86,22.5H3.14c-0.91,0-1.64-0.73-1.64-1.64V3.14c0-0.91,0.73-1.64,1.64-1.64h17.72
		c0.91,0,1.64,0.73,1.64,1.64v17.72C22.5,21.77,21.77,22.5,20.86,22.5z"/>
	<rect x="5.89" y="7.37" class="st14" width="12.22" height="9.03"/>
	<g>
		<g>
			<path class="st13" d="M6.46,4.04c-0.15,0-0.3-0.06-0.4-0.17c-0.11-0.1-0.17-0.25-0.17-0.4c0-0.15,0.06-0.29,0.17-0.4
				c0.02-0.02,0.06-0.05,0.08-0.07c0.03-0.02,0.06-0.04,0.1-0.05c0.03-0.01,0.07-0.02,0.11-0.03c0.18-0.04,0.38,0.02,0.51,0.15
				c0.1,0.11,0.16,0.25,0.16,0.4c0,0.04,0,0.07-0.01,0.11C7,3.63,6.99,3.66,6.98,3.7c-0.01,0.03-0.03,0.06-0.05,0.1
				C6.9,3.82,6.88,3.85,6.86,3.88C6.75,3.98,6.6,4.04,6.46,4.04z"/>
		</g>
	</g>
	<g>
		<g>
			<path class="st13" d="M17.55,4.04c-0.15,0-0.3-0.06-0.4-0.17c-0.11-0.1-0.17-0.25-0.17-0.4c0-0.15,0.06-0.29,0.17-0.4
				c0.02-0.02,0.06-0.05,0.08-0.07c0.03-0.02,0.06-0.04,0.1-0.05c0.03-0.01,0.07-0.02,0.11-0.03c0.18-0.04,0.38,0.02,0.51,0.15
				c0.1,0.11,0.16,0.25,0.16,0.4c0,0.04,0,0.07-0.01,0.11c-0.01,0.04-0.02,0.07-0.03,0.11c-0.01,0.03-0.03,0.06-0.05,0.1
				c-0.02,0.03-0.05,0.06-0.07,0.08C17.84,3.98,17.7,4.04,17.55,4.04z"/>
		</g>
	</g>
	<g>
		<g>
			<path class="st13" d="M19.77,4.04c-0.15,0-0.3-0.06-0.4-0.17c-0.11-0.1-0.17-0.25-0.17-0.4c0-0.15,0.06-0.29,0.17-0.4
				c0.02-0.02,0.06-0.05,0.08-0.07c0.03-0.02,0.06-0.04,0.1-0.05c0.03-0.01,0.07-0.02,0.11-0.03c0.18-0.04,0.38,0.02,0.51,0.15
				c0.1,0.11,0.16,0.25,0.16,0.4c0,0.04,0,0.07-0.01,0.11c-0.01,0.04-0.02,0.07-0.03,0.11c-0.01,0.03-0.03,0.06-0.05,0.1
				c-0.02,0.03-0.05,0.06-0.07,0.08C20.06,3.98,19.91,4.04,19.77,4.04z"/>
		</g>
	</g>
	<line class="st24" x1="8.99" y1="3.48" x2="14.97" y2="3.48"/>
	<line class="st14" x1="9.01" y1="20.81" x2="14.99" y2="20.81"/>
	<line class="st25" x1="1.81" y1="19.08" x2="22.19" y2="19.08"/>
	<line class="st25" x1="1.81" y1="5.16" x2="22.19" y2="5.16"/>
	<g>
		<g>
			<path class="st13" d="M4.4,4.05c-0.15,0-0.3-0.06-0.4-0.17c-0.11-0.1-0.17-0.25-0.17-0.4c0-0.15,0.06-0.3,0.17-0.4
				C4.02,3.05,4.05,3.03,4.08,3c0.03-0.02,0.07-0.04,0.1-0.05c0.03-0.01,0.07-0.02,0.11-0.03c0.18-0.04,0.38,0.02,0.52,0.16
				c0.1,0.11,0.16,0.25,0.16,0.4c0,0.04,0,0.08-0.01,0.11C4.95,3.63,4.94,3.66,4.93,3.7C4.91,3.73,4.89,3.76,4.88,3.8
				C4.85,3.83,4.83,3.86,4.81,3.88C4.7,3.99,4.55,4.05,4.4,4.05z"/>
		</g>
	</g>
</g>
</svg>
