<?xml version="1.0" encoding="utf-8"?>
<!-- Generator: Adobe Illustrator 28.1.0, SVG Export Plug-In . SVG Version: 6.00 Build 0)  -->
<svg version="1.1" id="Layer_1" xmlns="http://www.w3.org/2000/svg" xmlns:xlink="http://www.w3.org/1999/xlink" x="0px" y="0px"
	 viewBox="0 0 24 24" style="enable-background:new 0 0 24 24;" xml:space="preserve">
<style type="text/css">
	.st0{fill:#E6E6E6;}
	.st1{fill:#FFFFFF;stroke:#005288;stroke-width:0.6184;stroke-linecap:round;stroke-linejoin:round;stroke-miterlimit:10;}
	.st2{fill:none;stroke:#005288;stroke-width:0.598;stroke-linecap:round;stroke-linejoin:round;stroke-miterlimit:10;}
	.st3{fill:#FFFFFF;stroke:#005288;stroke-width:0.4828;stroke-linecap:round;stroke-linejoin:round;stroke-miterlimit:10;}
	.st4{fill:#00A4E4;}
	.st5{fill:#FFFFFF;stroke:#005288;stroke-width:0.5895;stroke-miterlimit:10;}
	.st6{fill:#FFFFFF;stroke:#005288;stroke-width:0.5895;stroke-linecap:round;stroke-linejoin:round;stroke-miterlimit:10;}
	.st7{fill:#005288;}
	.st8{fill:#FFFFFF;stroke:#005288;stroke-width:0.5217;stroke-linecap:round;stroke-linejoin:round;stroke-miterlimit:10;}
	.st9{fill:#FFFFFF;stroke:#005288;stroke-width:0.69;stroke-linecap:round;stroke-linejoin:round;stroke-miterlimit:10;}
	.st10{fill:none;stroke:#005288;stroke-width:0.4898;stroke-linecap:round;stroke-linejoin:round;stroke-miterlimit:10;}
	.st11{fill:none;stroke:#00A4E4;stroke-width:0.4898;stroke-linecap:round;stroke-linejoin:round;stroke-miterlimit:10;}
	.st12{fill:none;stroke:#005288;stroke-width:0.644;stroke-linecap:round;stroke-linejoin:round;stroke-miterlimit:10;}
	.st13{fill:#FFFFFF;stroke:#005288;stroke-width:0.65;stroke-linecap:round;stroke-linejoin:round;stroke-miterlimit:10;}
	.st14{fill:none;stroke:#005288;stroke-width:0.7488;stroke-linecap:round;stroke-linejoin:round;stroke-miterlimit:10;}
	.st15{fill:none;stroke:#00A4E4;stroke-width:0.7488;stroke-linecap:round;stroke-linejoin:round;stroke-miterlimit:10;}
	.st16{fill:none;stroke:#005288;stroke-width:0.702;stroke-linecap:round;stroke-linejoin:round;stroke-miterlimit:10;}
	.st17{fill:none;stroke:#005288;stroke-width:0.6073;stroke-linecap:round;stroke-linejoin:round;stroke-miterlimit:10;}
	.st18{fill:none;stroke:#00A4E4;stroke-width:0.702;stroke-linecap:round;stroke-linejoin:round;stroke-miterlimit:10;}
	.st19{fill:#FFFFFF;stroke:#005288;stroke-width:0.598;stroke-linecap:round;stroke-linejoin:round;stroke-miterlimit:10;}
	.st20{fill:#FFFFFF;stroke:#005288;stroke-width:0.46;stroke-linecap:round;stroke-linejoin:round;stroke-miterlimit:10;}
	.st21{fill:#FFFFFF;stroke:#005288;stroke-width:0.644;stroke-linecap:round;stroke-linejoin:round;stroke-miterlimit:10;}
	.st22{fill:none;stroke:#005288;stroke-width:0.5509;stroke-linecap:round;stroke-linejoin:round;stroke-miterlimit:10;}
	.st23{fill:none;stroke:#00A4E4;stroke-width:0.6751;stroke-linecap:round;stroke-linejoin:round;stroke-miterlimit:10;}
	.st24{fill:none;stroke:#00A4E4;stroke-width:0.5509;stroke-linecap:round;stroke-linejoin:round;stroke-miterlimit:10;}
	.st25{fill:#FFFFFF;stroke:#00A4E4;stroke-width:0.69;stroke-linecap:round;stroke-linejoin:round;stroke-miterlimit:10;}
	.st26{fill:none;stroke:#005288;stroke-width:0.6037;stroke-linecap:round;stroke-linejoin:round;stroke-miterlimit:10;}
	.st27{fill:none;stroke:#005288;stroke-width:0.69;stroke-linecap:round;stroke-linejoin:round;stroke-miterlimit:10;}
	.st28{fill:#FFFFFF;stroke:#005288;stroke-width:0.5278;stroke-linecap:round;stroke-linejoin:round;stroke-miterlimit:10;}
	.st29{fill:#FFFFFF;stroke:#00A4E4;stroke-width:0.5278;stroke-linecap:round;stroke-linejoin:round;stroke-miterlimit:10;}
	.st30{fill:#FFFFFF;stroke:#00A4E4;stroke-width:0.644;stroke-linecap:round;stroke-linejoin:round;stroke-miterlimit:10;}
	.st31{fill:#FFFFFF;stroke:#005288;stroke-width:0.5278;stroke-linecap:round;stroke-miterlimit:10;}
</style>
<g>
	<ellipse class="st8" cx="11.98" cy="15.92" rx="2.19" ry="1.05"/>
	<path class="st9" d="M14.13,10.28c-1.33,0.69-2.93,0.69-4.26,0c-0.12-0.06-0.23-0.12-0.33-0.19C8.6,9.47,6.28,8.62,5.2,10.53
		c-0.75,1.32-2,4.44-2.7,6.26C2.17,17.61,2.37,18.55,3,19.18l0,0c0.85,0.85,2.22,0.88,3.11,0.06l1.89-1.94
		c0.87-0.9,2.03-1.48,3.27-1.64c0.01,0,0.03,0,0.04-0.01c0.46-0.06,0.93-0.06,1.39,0c0.02,0,0.03,0,0.04,0.01
		c1.24,0.16,2.39,0.74,3.27,1.64l1.89,1.94c0.88,0.82,2.26,0.79,3.11-0.06l0,0c0.63-0.63,0.83-1.57,0.51-2.39
		c-0.7-1.81-1.96-4.94-2.7-6.26c-1.09-1.91-3.4-1.06-4.34-0.44C14.36,10.16,14.25,10.22,14.13,10.28z"/>
	<path class="st10" d="M12.86,12.21h-1.73c-0.18,0-0.34,0.14-0.35,0.33l-0.08,1.39c-0.01,0.2,0.15,0.37,0.35,0.37h1.89
		c0.2,0,0.36-0.17,0.35-0.37l-0.08-1.39C13.2,12.35,13.05,12.21,12.86,12.21z"/>
	<ellipse transform="matrix(0.987 -0.1606 0.1606 0.987 -1.9111 2.8537)" class="st11" cx="16.69" cy="13.25" rx="2.2" ry="2.2"/>
	<ellipse transform="matrix(0.987 -0.1606 0.1606 0.987 -2.0326 1.3506)" class="st11" cx="7.34" cy="13.25" rx="2.2" ry="2.2"/>
	<line class="st10" x1="16.69" y1="12.01" x2="16.69" y2="14.48"/>
	<line class="st10" x1="15.46" y1="13.25" x2="17.92" y2="13.25"/>
	<g>
		<path class="st7" d="M7.34,11.58L7.34,11.58c-0.28,0-0.5,0.23-0.5,0.5l0,0c0,0.28,0.23,0.5,0.5,0.5l0,0c0.28,0,0.5-0.23,0.5-0.5
			l0,0C7.84,11.8,7.61,11.58,7.34,11.58z"/>
	</g>
	<g>
		<path class="st7" d="M7.34,13.91L7.34,13.91c-0.28,0-0.5,0.23-0.5,0.5l0,0c0,0.28,0.23,0.5,0.5,0.5l0,0c0.28,0,0.5-0.23,0.5-0.5
			l0,0C7.84,14.14,7.61,13.91,7.34,13.91z"/>
	</g>
	<g>
		<path class="st7" d="M9.01,13.25L9.01,13.25c0-0.28-0.23-0.5-0.5-0.5l0,0c-0.28,0-0.5,0.23-0.5,0.5l0,0c0,0.28,0.23,0.5,0.5,0.5
			l0,0C8.78,13.75,9.01,13.52,9.01,13.25z"/>
	</g>
	<g>
		<path class="st7" d="M6.67,13.25L6.67,13.25c0-0.28-0.23-0.5-0.5-0.5l0,0c-0.28,0-0.5,0.23-0.5,0.5l0,0c0,0.28,0.23,0.5,0.5,0.5
			l0,0C6.45,13.75,6.67,13.52,6.67,13.25z"/>
	</g>
	<path class="st12" d="M12,10.8V7.62c0-0.96,0.77-1.73,1.73-1.73h2.58c0.96,0,1.73-0.77,1.73-1.73l0,0"/>
	<g>
		<path class="st7" d="M9.54,10.09c0-0.84-0.68-1.51-1.51-1.51H7.13c-0.58,0-1.06,0.47-1.06,1.06h0C7.25,8.99,8.81,9.61,9.54,10.09z
			"/>
	</g>
	<g>
		<path class="st7" d="M14.46,10.09c0-0.84,0.68-1.51,1.51-1.51h0.89c0.58,0,1.06,0.47,1.06,1.06h0
			C16.75,8.99,15.19,9.61,14.46,10.09z"/>
	</g>
</g>
</svg>
