<?xml version="1.0" encoding="utf-8"?>
<!-- Generator: Adobe Illustrator 28.1.0, SVG Export Plug-In . SVG Version: 6.00 Build 0)  -->
<svg version="1.1" id="Layer_1" xmlns="http://www.w3.org/2000/svg" xmlns:xlink="http://www.w3.org/1999/xlink" x="0px" y="0px"
	 viewBox="0 0 24 24" style="enable-background:new 0 0 24 24;" xml:space="preserve">
<style type="text/css">
	.st0{fill:#E6E6E6;}
	.st1{fill:#FFFFFF;stroke:#005288;stroke-width:0.6184;stroke-linecap:round;stroke-linejoin:round;stroke-miterlimit:10;}
	.st2{fill:none;stroke:#005288;stroke-width:0.598;stroke-linecap:round;stroke-linejoin:round;stroke-miterlimit:10;}
	.st3{fill:#FFFFFF;stroke:#005288;stroke-width:0.4828;stroke-linecap:round;stroke-linejoin:round;stroke-miterlimit:10;}
	.st4{fill:#00A4E4;}
	.st5{fill:#FFFFFF;stroke:#005288;stroke-width:0.5895;stroke-miterlimit:10;}
	.st6{fill:#FFFFFF;stroke:#005288;stroke-width:0.5895;stroke-linecap:round;stroke-linejoin:round;stroke-miterlimit:10;}
	.st7{fill:#005288;}
	.st8{fill:#FFFFFF;stroke:#005288;stroke-width:0.5217;stroke-linecap:round;stroke-linejoin:round;stroke-miterlimit:10;}
	.st9{fill:#FFFFFF;stroke:#005288;stroke-width:0.69;stroke-linecap:round;stroke-linejoin:round;stroke-miterlimit:10;}
	.st10{fill:none;stroke:#005288;stroke-width:0.4898;stroke-linecap:round;stroke-linejoin:round;stroke-miterlimit:10;}
	.st11{fill:none;stroke:#00A4E4;stroke-width:0.4898;stroke-linecap:round;stroke-linejoin:round;stroke-miterlimit:10;}
	.st12{fill:none;stroke:#005288;stroke-width:0.644;stroke-linecap:round;stroke-linejoin:round;stroke-miterlimit:10;}
	.st13{fill:#FFFFFF;stroke:#005288;stroke-width:0.65;stroke-linecap:round;stroke-linejoin:round;stroke-miterlimit:10;}
	.st14{fill:none;stroke:#005288;stroke-width:0.7488;stroke-linecap:round;stroke-linejoin:round;stroke-miterlimit:10;}
	.st15{fill:none;stroke:#00A4E4;stroke-width:0.7488;stroke-linecap:round;stroke-linejoin:round;stroke-miterlimit:10;}
	.st16{fill:none;stroke:#005288;stroke-width:0.702;stroke-linecap:round;stroke-linejoin:round;stroke-miterlimit:10;}
	.st17{fill:none;stroke:#005288;stroke-width:0.6073;stroke-linecap:round;stroke-linejoin:round;stroke-miterlimit:10;}
	.st18{fill:none;stroke:#00A4E4;stroke-width:0.702;stroke-linecap:round;stroke-linejoin:round;stroke-miterlimit:10;}
	.st19{fill:#FFFFFF;stroke:#005288;stroke-width:0.598;stroke-linecap:round;stroke-linejoin:round;stroke-miterlimit:10;}
	.st20{fill:#FFFFFF;stroke:#005288;stroke-width:0.46;stroke-linecap:round;stroke-linejoin:round;stroke-miterlimit:10;}
	.st21{fill:#FFFFFF;stroke:#005288;stroke-width:0.644;stroke-linecap:round;stroke-linejoin:round;stroke-miterlimit:10;}
	.st22{fill:none;stroke:#005288;stroke-width:0.5509;stroke-linecap:round;stroke-linejoin:round;stroke-miterlimit:10;}
	.st23{fill:none;stroke:#00A4E4;stroke-width:0.6751;stroke-linecap:round;stroke-linejoin:round;stroke-miterlimit:10;}
	.st24{fill:none;stroke:#00A4E4;stroke-width:0.5509;stroke-linecap:round;stroke-linejoin:round;stroke-miterlimit:10;}
	.st25{fill:#FFFFFF;stroke:#00A4E4;stroke-width:0.69;stroke-linecap:round;stroke-linejoin:round;stroke-miterlimit:10;}
	.st26{fill:none;stroke:#005288;stroke-width:0.6037;stroke-linecap:round;stroke-linejoin:round;stroke-miterlimit:10;}
	.st27{fill:none;stroke:#005288;stroke-width:0.69;stroke-linecap:round;stroke-linejoin:round;stroke-miterlimit:10;}
	.st28{fill:#FFFFFF;stroke:#005288;stroke-width:0.5278;stroke-linecap:round;stroke-linejoin:round;stroke-miterlimit:10;}
	.st29{fill:#FFFFFF;stroke:#00A4E4;stroke-width:0.5278;stroke-linecap:round;stroke-linejoin:round;stroke-miterlimit:10;}
	.st30{fill:#FFFFFF;stroke:#00A4E4;stroke-width:0.644;stroke-linecap:round;stroke-linejoin:round;stroke-miterlimit:10;}
	.st31{fill:#FFFFFF;stroke:#005288;stroke-width:0.5278;stroke-linecap:round;stroke-miterlimit:10;}
</style>
<g>
	<path class="st21" d="M10.5,19.35H2.78c-0.24,0-0.44-0.2-0.44-0.44V5.09c0-0.24,0.2-0.44,0.44-0.44h7.72c0.24,0,0.44,0.2,0.44,0.44
		v13.81C10.94,19.15,10.74,19.35,10.5,19.35z"/>
	<circle class="st22" cx="6.64" cy="8.13" r="1.99"/>
	<g>
		<circle class="st7" cx="6.64" cy="8.13" r="0.89"/>
	</g>
	<path class="st23" d="M7.89,13.89c0-0.69-0.56-1.25-1.25-1.25c-0.69,0-1.25,0.56-1.25,1.25c0,0.69,0.56,1.25,1.25,1.25
		C7.33,15.15,7.89,14.59,7.89,13.89z"/>
	<circle class="st24" cx="6.64" cy="13.89" r="2.83"/>
	<g>
		<g>
			<path class="st7" d="M9.73,18.09c0-0.22-0.18-0.4-0.4-0.4s-0.4,0.18-0.4,0.4c0,0.22,0.18,0.4,0.4,0.4S9.73,18.31,9.73,18.09z"/>
		</g>
	</g>
	<path class="st21" d="M21.22,19.35H13.5c-0.24,0-0.44-0.2-0.44-0.44V5.09c0-0.24,0.2-0.44,0.44-0.44h7.72
		c0.24,0,0.44,0.2,0.44,0.44v13.81C21.66,19.15,21.46,19.35,21.22,19.35z"/>
	<circle class="st22" cx="17.36" cy="8.13" r="1.99"/>
	<g>
		<circle class="st7" cx="17.36" cy="8.13" r="0.89"/>
	</g>
	<path class="st23" d="M18.61,13.89c0-0.69-0.56-1.25-1.25-1.25c-0.69,0-1.25,0.56-1.25,1.25c0,0.69,0.56,1.25,1.25,1.25
		C18.05,15.15,18.61,14.59,18.61,13.89z"/>
	<circle class="st24" cx="17.36" cy="13.89" r="2.83"/>
	<g>
		<g>
			<path class="st7" d="M20.45,18.09c0-0.22-0.18-0.4-0.4-0.4s-0.4,0.18-0.4,0.4c0,0.22,0.18,0.4,0.4,0.4S20.45,18.31,20.45,18.09z"
				/>
		</g>
	</g>
</g>
</svg>
