<?xml version="1.0" encoding="utf-8"?>
<!-- Generator: Adobe Illustrator 28.1.0, SVG Export Plug-In . SVG Version: 6.00 Build 0)  -->
<svg version="1.1" id="Layer_1" xmlns="http://www.w3.org/2000/svg" xmlns:xlink="http://www.w3.org/1999/xlink" x="0px" y="0px"
	 viewBox="0 0 24 24" style="enable-background:new 0 0 24 24;" xml:space="preserve">
<style type="text/css">
	.st0{fill:#E6E6E6;}
	.st1{fill:#FFFFFF;stroke:#00A4E4;stroke-width:0.602;stroke-miterlimit:10;}
	.st2{fill:#00A4E4;}
	.st3{fill:none;stroke:#00A4E4;stroke-width:0.602;stroke-linecap:round;stroke-miterlimit:10;}
	.st4{fill:#FFFFFF;stroke:#005288;stroke-width:0.602;stroke-linecap:round;stroke-miterlimit:10;}
	.st5{fill:#005288;}
	.st6{fill:none;stroke:#005288;stroke-width:0.602;stroke-linecap:round;stroke-miterlimit:10;}
	.st7{fill:none;stroke:#005288;stroke-width:0.6483;stroke-linecap:round;stroke-miterlimit:10;}
	.st8{fill:#FFFFFF;stroke:#00A4E4;stroke-width:0.6483;stroke-linecap:round;stroke-miterlimit:10;}
	.st9{fill:none;stroke:#00A4E4;stroke-width:0.602;stroke-miterlimit:10;}
	.st10{fill:#FFFFFF;stroke:#005288;stroke-width:0.602;stroke-miterlimit:10;}
	.st11{fill:none;stroke:#00A4E4;stroke-width:0.4754;stroke-linecap:round;stroke-linejoin:round;stroke-miterlimit:10;}
	.st12{fill:none;stroke:#005288;stroke-width:0.602;stroke-miterlimit:10;}
	.st13{fill:#FFFFFF;stroke:#005288;stroke-width:0.602;stroke-linecap:round;stroke-linejoin:round;stroke-miterlimit:10;}
	.st14{fill:#FFFFFF;stroke:#00A4E4;stroke-width:0.3704;stroke-linejoin:round;stroke-miterlimit:10;}
	.st15{fill:#FFFFFF;stroke:#005288;stroke-width:0.2778;stroke-linejoin:round;stroke-miterlimit:10;}
	.st16{fill:#00A4E4;stroke:#00A4E4;stroke-width:0.602;stroke-miterlimit:10;}
	.st17{fill:none;stroke:#00A4E4;stroke-width:0.3704;stroke-linecap:round;stroke-miterlimit:10;}
	.st18{fill:none;stroke:#00A4E4;stroke-width:0.7872;stroke-linecap:round;stroke-miterlimit:10;}
	.st19{fill:none;stroke:#00A4E4;stroke-width:0.6483;stroke-miterlimit:10;}
	.st20{fill:#FFFFFF;stroke:#005288;stroke-width:0.6483;stroke-miterlimit:10;}
	.st21{fill:#FFFFFF;stroke:#005288;stroke-width:0.7455;stroke-miterlimit:10;}
</style>
<g>
	<path class="st5" d="M14.08,4.54H6.33c-0.43,0-0.78-0.35-0.78-0.78V3.6c0-0.43,0.35-0.78,0.78-0.78h7.75
		c0.43,0,0.78,0.35,0.78,0.78v0.16C14.86,4.19,14.51,4.54,14.08,4.54z"/>
	<g>
		<path class="st11" d="M15.03,9.85c-0.02-0.31,0.48-0.51,0.45-0.84c-0.02-0.33-0.55-0.51-0.57-0.82c-0.02-0.31,0.48-0.51,0.45-0.84
			c-0.02-0.33-0.55-0.51-0.57-0.82"/>
		<path class="st11" d="M13.5,9.86c-0.02-0.31,0.48-0.51,0.45-0.84C13.93,8.7,13.4,8.52,13.38,8.2c-0.02-0.31,0.48-0.51,0.45-0.84
			c-0.02-0.33-0.55-0.51-0.57-0.82"/>
		<path class="st11" d="M11.97,9.87c-0.02-0.31,0.48-0.51,0.45-0.84c-0.02-0.33-0.55-0.51-0.57-0.82C11.83,7.9,12.33,7.7,12.3,7.38
			c-0.02-0.33-0.55-0.51-0.57-0.82"/>
	</g>
	<g>
		<path class="st11" d="M5.16,9.85c0.02-0.31-0.48-0.51-0.45-0.84S5.26,8.51,5.28,8.2C5.3,7.88,4.8,7.68,4.83,7.36
			C4.85,7.03,5.38,6.85,5.4,6.54"/>
		<path class="st11" d="M6.69,9.86c0.02-0.31-0.48-0.51-0.45-0.84C6.26,8.7,6.79,8.52,6.81,8.2c0.02-0.31-0.48-0.51-0.45-0.84
			s0.55-0.51,0.57-0.82"/>
		<path class="st11" d="M8.23,9.87c0.02-0.31-0.48-0.51-0.45-0.84C7.8,8.71,8.32,8.53,8.34,8.21C8.37,7.9,7.87,7.7,7.89,7.38
			c0.02-0.33,0.55-0.51,0.57-0.82"/>
	</g>
	<path class="st10" d="M11.78,21.84h-3.4c-0.08,0-0.15-0.08-0.15-0.19l0.41-0.81c0.03-0.07,0.11-0.11,0.2-0.11h2.48
		c0.09,0,0.17,0.04,0.2,0.11l0.41,0.81C11.93,21.75,11.86,21.84,11.78,21.84z"/>
	<line class="st12" x1="10.08" y1="5.54" x2="10.07" y2="20.63"/>
	<g>
		<line class="st6" x1="16.18" y1="11.16" x2="16.18" y2="12.62"/>
		<line class="st6" x1="18.44" y1="11.16" x2="18.44" y2="12.62"/>
	</g>
	<path class="st13" d="M18.71,13.47h-2.79c-0.22,0-0.4-0.18-0.4-0.4v-0.05c0-0.22,0.18-0.4,0.4-0.4h2.79c0.22,0,0.4,0.18,0.4,0.4
		v0.05C19.1,13.29,18.93,13.47,18.71,13.47z"/>
	<path class="st4" d="M17.31,15.5L17.31,15.5c-0.7,0-1.27-0.57-1.27-1.27v-0.76h2.54v0.76C18.58,14.93,18.01,15.5,17.31,15.5z"/>
	<path class="st12" d="M17.26,15.21c0,1.06,0.36,1.8,1.21,2.33c1.45,0.91,0.92,4.02-1.1,4.02h-5.42"/>
	<path class="st10" d="M13.35,5.38h-6.3c-0.42,0-0.76-0.34-0.76-0.76V2.93c0-0.42,0.34-0.76,0.76-0.76h6.3
		c0.42,0,0.76,0.34,0.76,0.76v1.69C14.12,5.04,13.77,5.38,13.35,5.38z"/>
	<g>
		<line class="st14" x1="6.62" y1="3.35" x2="13.78" y2="3.35"/>
		<line class="st14" x1="6.62" y1="4.25" x2="13.78" y2="4.25"/>
		<line class="st14" x1="7.43" y1="2.49" x2="7.43" y2="5.05"/>
		<line class="st14" x1="8.56" y1="2.49" x2="8.56" y2="5.05"/>
		<line class="st14" x1="9.68" y1="2.49" x2="9.68" y2="5.05"/>
		<line class="st14" x1="10.8" y1="2.49" x2="10.8" y2="5.05"/>
		<line class="st14" x1="11.93" y1="2.49" x2="11.93" y2="5.05"/>
		<line class="st14" x1="13.05" y1="2.49" x2="13.05" y2="5.05"/>
	</g>
</g>
</svg>
