<?xml version="1.0" encoding="utf-8"?>
<!-- Generator: Adobe Illustrator 28.1.0, SVG Export Plug-In . SVG Version: 6.00 Build 0)  -->
<svg version="1.1" id="Layer_1" xmlns="http://www.w3.org/2000/svg" xmlns:xlink="http://www.w3.org/1999/xlink" x="0px" y="0px"
	 viewBox="0 0 24 24" style="enable-background:new 0 0 24 24;" xml:space="preserve">
<style type="text/css">
	.st0{fill:#E6E6E6;}
	.st1{fill:#FFFFFF;stroke:#00A4E4;stroke-width:0.602;stroke-miterlimit:10;}
	.st2{fill:#00A4E4;}
	.st3{fill:none;stroke:#00A4E4;stroke-width:0.602;stroke-linecap:round;stroke-miterlimit:10;}
	.st4{fill:#FFFFFF;stroke:#005288;stroke-width:0.602;stroke-linecap:round;stroke-miterlimit:10;}
	.st5{fill:#005288;}
	.st6{fill:none;stroke:#005288;stroke-width:0.602;stroke-linecap:round;stroke-miterlimit:10;}
	.st7{fill:none;stroke:#005288;stroke-width:0.6483;stroke-linecap:round;stroke-miterlimit:10;}
	.st8{fill:#FFFFFF;stroke:#00A4E4;stroke-width:0.6483;stroke-linecap:round;stroke-miterlimit:10;}
	.st9{fill:none;stroke:#00A4E4;stroke-width:0.602;stroke-miterlimit:10;}
	.st10{fill:#FFFFFF;stroke:#005288;stroke-width:0.602;stroke-miterlimit:10;}
	.st11{fill:none;stroke:#00A4E4;stroke-width:0.4754;stroke-linecap:round;stroke-linejoin:round;stroke-miterlimit:10;}
	.st12{fill:none;stroke:#005288;stroke-width:0.602;stroke-miterlimit:10;}
	.st13{fill:#FFFFFF;stroke:#005288;stroke-width:0.602;stroke-linecap:round;stroke-linejoin:round;stroke-miterlimit:10;}
	.st14{fill:#FFFFFF;stroke:#00A4E4;stroke-width:0.3704;stroke-linejoin:round;stroke-miterlimit:10;}
	.st15{fill:#FFFFFF;stroke:#005288;stroke-width:0.2778;stroke-linejoin:round;stroke-miterlimit:10;}
	.st16{fill:#00A4E4;stroke:#00A4E4;stroke-width:0.602;stroke-miterlimit:10;}
	.st17{fill:none;stroke:#00A4E4;stroke-width:0.3704;stroke-linecap:round;stroke-miterlimit:10;}
	.st18{fill:none;stroke:#00A4E4;stroke-width:0.7872;stroke-linecap:round;stroke-miterlimit:10;}
	.st19{fill:none;stroke:#00A4E4;stroke-width:0.6483;stroke-miterlimit:10;}
	.st20{fill:#FFFFFF;stroke:#005288;stroke-width:0.6483;stroke-miterlimit:10;}
	.st21{fill:#FFFFFF;stroke:#005288;stroke-width:0.7455;stroke-miterlimit:10;}
</style>
<g>
	<g>
		<path class="st11" d="M3.93,12.76c0.01-0.31-0.49-0.5-0.48-0.82C3.46,11.6,3.98,11.41,4,11.09c0.01-0.31-0.49-0.5-0.48-0.82
			s0.54-0.52,0.55-0.84"/>
		<path class="st11" d="M5.68,12.76c0.01-0.31-0.49-0.5-0.48-0.82s0.54-0.52,0.55-0.84c0.01-0.31-0.49-0.5-0.48-0.82
			c0.01-0.33,0.54-0.52,0.55-0.84"/>
		<path class="st11" d="M7.43,12.76c0.01-0.31-0.49-0.5-0.48-0.82c0.01-0.33,0.54-0.52,0.55-0.84c0.01-0.31-0.49-0.5-0.48-0.82
			s0.54-0.52,0.55-0.84"/>
		<path class="st11" d="M9.18,12.76c0.01-0.31-0.49-0.5-0.48-0.82s0.54-0.52,0.55-0.84c0.01-0.31-0.49-0.5-0.48-0.82
			c0.01-0.33,0.54-0.52,0.55-0.84"/>
		<path class="st11" d="M10.93,12.76c0.01-0.31-0.49-0.5-0.48-0.82c0.01-0.33,0.54-0.52,0.55-0.84c0.01-0.31-0.49-0.5-0.48-0.82
			s0.54-0.52,0.55-0.84"/>
		<path class="st11" d="M12.68,12.76c0.01-0.31-0.49-0.5-0.48-0.82c0.01-0.33,0.54-0.52,0.55-0.84c0.01-0.31-0.49-0.5-0.48-0.82
			c0.01-0.33,0.54-0.52,0.55-0.84"/>
		<path class="st11" d="M14.43,12.76c0.01-0.31-0.49-0.5-0.48-0.82c0.01-0.33,0.54-0.52,0.55-0.84c0.01-0.31-0.49-0.5-0.48-0.82
			c0.01-0.33,0.54-0.52,0.55-0.84"/>
		<path class="st11" d="M16.18,12.76c0.01-0.31-0.49-0.5-0.48-0.82s0.54-0.52,0.55-0.84c0.01-0.31-0.49-0.5-0.48-0.82
			c0.01-0.33,0.54-0.52,0.55-0.84"/>
		<path class="st11" d="M17.93,12.76c0.01-0.31-0.49-0.5-0.48-0.82s0.54-0.52,0.55-0.84c0.01-0.31-0.49-0.5-0.48-0.82
			c0.01-0.33,0.54-0.52,0.55-0.84"/>
		<path class="st5" d="M21.35,7.41H2.65c-0.43,0-0.78-0.35-0.78-0.78V5.78C1.87,5.35,2.22,5,2.65,5h18.7c0.43,0,0.78,0.35,0.78,0.78
			v0.84C22.13,7.06,21.78,7.41,21.35,7.41z"/>
		<path class="st10" d="M18.3,8.14H3.13c-0.21,0-0.37-0.17-0.37-0.37V4.74c0-0.21,0.17-0.37,0.37-0.37H18.3
			c0.21,0,0.37,0.17,0.37,0.37v3.03C18.68,7.98,18.51,8.14,18.3,8.14z"/>
		<path class="st10" d="M20.96,8.14H19.8c-0.26,0-0.47-0.21-0.47-0.47V4.83c0-0.26,0.21-0.47,0.47-0.47h1.16
			c0.26,0,0.47,0.21,0.47,0.47v2.85C21.42,7.94,21.21,8.14,20.96,8.14z"/>
		<line class="st15" x1="3.11" y1="6.29" x2="18.41" y2="6.29"/>
		<line class="st15" x1="3.11" y1="5.38" x2="18.41" y2="5.38"/>
		<line class="st15" x1="3.11" y1="7.2" x2="18.41" y2="7.2"/>
		<line class="st15" x1="3.9" y1="4.69" x2="3.9" y2="7.81"/>
		<line class="st15" x1="5.03" y1="4.69" x2="5.03" y2="7.81"/>
		<line class="st15" x1="6.16" y1="4.69" x2="6.16" y2="7.81"/>
		<line class="st15" x1="7.3" y1="4.69" x2="7.3" y2="7.81"/>
		<line class="st15" x1="8.43" y1="4.69" x2="8.43" y2="7.81"/>
		<line class="st15" x1="9.57" y1="4.69" x2="9.57" y2="7.81"/>
		<line class="st15" x1="10.7" y1="4.69" x2="10.7" y2="7.81"/>
		<line class="st15" x1="11.83" y1="4.69" x2="11.83" y2="7.81"/>
		<line class="st15" x1="12.97" y1="4.69" x2="12.97" y2="7.81"/>
		<line class="st15" x1="14.1" y1="4.69" x2="14.1" y2="7.81"/>
		<line class="st15" x1="15.24" y1="4.69" x2="15.24" y2="7.81"/>
		<line class="st15" x1="16.37" y1="4.69" x2="16.37" y2="7.81"/>
		<line class="st15" x1="17.5" y1="4.69" x2="17.5" y2="7.81"/>
		<circle class="st16" cx="20.39" cy="6.99" r="0.15"/>
		<line class="st17" x1="20.38" y1="5.21" x2="20.38" y2="6.83"/>
	</g>
	<g>
		<g>
			<line class="st6" x1="10.05" y1="16.52" x2="11.51" y2="16.52"/>
			<line class="st6" x1="10.05" y1="18.79" x2="11.51" y2="18.79"/>
		</g>
		<path class="st13" d="M12.35,19.05v-2.79c0-0.22-0.18-0.4-0.4-0.4h-0.05c-0.22,0-0.4,0.18-0.4,0.4v2.79c0,0.22,0.18,0.4,0.4,0.4
			h0.05C12.18,19.45,12.35,19.27,12.35,19.05z"/>
		<path class="st4" d="M14.38,17.66L14.38,17.66c0-0.7-0.57-1.27-1.27-1.27h-0.76v2.54h0.76C13.82,18.92,14.38,18.36,14.38,17.66z"
			/>
		<path class="st12" d="M14.1,17.6c1.06,0,1.8,0.36,2.33,1.21c0.91,1.45,4.02,0.92,4.02-1.1V8.26"/>
	</g>
</g>
</svg>
