<?xml version="1.0" encoding="utf-8"?>
<!-- Generator: Adobe Illustrator 28.1.0, SVG Export Plug-In . SVG Version: 6.00 Build 0)  -->
<svg version="1.1" id="Layer_1" xmlns="http://www.w3.org/2000/svg" xmlns:xlink="http://www.w3.org/1999/xlink" x="0px" y="0px"
	 viewBox="0 0 24 24" style="enable-background:new 0 0 24 24;" xml:space="preserve">
<style type="text/css">
	.st0{fill:#E6E6E6;}
	.st1{fill:#FFFFFF;stroke:#00A4E4;stroke-width:0.602;stroke-miterlimit:10;}
	.st2{fill:#00A4E4;}
	.st3{fill:none;stroke:#00A4E4;stroke-width:0.602;stroke-linecap:round;stroke-miterlimit:10;}
	.st4{fill:#FFFFFF;stroke:#005288;stroke-width:0.602;stroke-linecap:round;stroke-miterlimit:10;}
	.st5{fill:#005288;}
	.st6{fill:none;stroke:#005288;stroke-width:0.602;stroke-linecap:round;stroke-miterlimit:10;}
	.st7{fill:none;stroke:#005288;stroke-width:0.6483;stroke-linecap:round;stroke-miterlimit:10;}
	.st8{fill:#FFFFFF;stroke:#00A4E4;stroke-width:0.6483;stroke-linecap:round;stroke-miterlimit:10;}
	.st9{fill:none;stroke:#00A4E4;stroke-width:0.602;stroke-miterlimit:10;}
	.st10{fill:#FFFFFF;stroke:#005288;stroke-width:0.602;stroke-miterlimit:10;}
	.st11{fill:none;stroke:#00A4E4;stroke-width:0.4754;stroke-linecap:round;stroke-linejoin:round;stroke-miterlimit:10;}
	.st12{fill:none;stroke:#005288;stroke-width:0.602;stroke-miterlimit:10;}
	.st13{fill:#FFFFFF;stroke:#005288;stroke-width:0.602;stroke-linecap:round;stroke-linejoin:round;stroke-miterlimit:10;}
	.st14{fill:#FFFFFF;stroke:#00A4E4;stroke-width:0.3704;stroke-linejoin:round;stroke-miterlimit:10;}
	.st15{fill:#FFFFFF;stroke:#005288;stroke-width:0.2778;stroke-linejoin:round;stroke-miterlimit:10;}
	.st16{fill:#00A4E4;stroke:#00A4E4;stroke-width:0.602;stroke-miterlimit:10;}
	.st17{fill:none;stroke:#00A4E4;stroke-width:0.3704;stroke-linecap:round;stroke-miterlimit:10;}
	.st18{fill:none;stroke:#00A4E4;stroke-width:0.7872;stroke-linecap:round;stroke-miterlimit:10;}
	.st19{fill:none;stroke:#00A4E4;stroke-width:0.6483;stroke-miterlimit:10;}
	.st20{fill:#FFFFFF;stroke:#005288;stroke-width:0.6483;stroke-miterlimit:10;}
	.st21{fill:#FFFFFF;stroke:#005288;stroke-width:0.7455;stroke-miterlimit:10;}
</style>
<g>
	<g>
		<path class="st18" d="M12,9.4V4.42c0,0,0.19-2.08,3.11-2.08c2.41,0,2.92,2.22,2.92,2.22"/>
		<path class="st18" d="M12,9.4V4.42c0,0-0.19-2.08-3.11-2.08c-2.41,0-2.92,2.22-2.92,2.22"/>
	</g>
	<g>
		<path class="st18" d="M12,9.44V6.53c0,0,0.11-1.21,1.82-1.21c1.41,0,1.71,1.3,1.71,1.3"/>
		<path class="st18" d="M12,10.03v-3.5c0,0-0.11-1.21-1.82-1.21c-1.41,0-1.71,1.3-1.71,1.3"/>
	</g>
	<ellipse class="st19" cx="5.81" cy="6.16" rx="0.22" ry="0.17"/>
	<ellipse class="st19" cx="5.81" cy="7.93" rx="0.22" ry="0.17"/>
	<ellipse class="st19" cx="8.31" cy="7.93" rx="0.22" ry="0.17"/>
	<ellipse class="st19" cx="15.71" cy="7.93" rx="0.22" ry="0.17"/>
	<ellipse class="st19" cx="18.15" cy="7.93" rx="0.22" ry="0.17"/>
	<ellipse class="st19" cx="18.15" cy="6.16" rx="0.22" ry="0.17"/>
	<rect x="9.97" y="12.28" class="st20" width="4.06" height="1.81"/>
	<rect x="9.02" y="18.05" class="st21" width="5.95" height="2.39"/>
	<path class="st20" d="M16.1,18.6H7.9c-2.59,0-4.69-2.1-4.69-4.69v0h17.58v0C20.79,16.5,18.69,18.6,16.1,18.6z"/>
	<path class="st20" d="M16.64,12.26H7.36c-1.25,0-2.27-1.02-2.27-2.27v0h13.82v0C18.91,11.24,17.89,12.26,16.64,12.26z"/>
	<path class="st20" d="M16.91,21.66H7.09v-0.68c0-0.44,0.35-0.79,0.79-0.79h8.23c0.44,0,0.79,0.35,0.79,0.79V21.66z"/>
</g>
</svg>
