<?xml version="1.0" encoding="utf-8"?>
<!-- Generator: Adobe Illustrator 28.1.0, SVG Export Plug-In . SVG Version: 6.00 Build 0)  -->
<svg version="1.1" id="Layer_1" xmlns="http://www.w3.org/2000/svg" xmlns:xlink="http://www.w3.org/1999/xlink" x="0px" y="0px"
	 viewBox="0 0 24 24" style="enable-background:new 0 0 24 24;" xml:space="preserve">
<style type="text/css">
	.st0{fill:#E6E6E6;}
	.st1{fill:#FFFFFF;stroke:#00A4E4;stroke-width:0.602;stroke-miterlimit:10;}
	.st2{fill:#00A4E4;}
	.st3{fill:none;stroke:#00A4E4;stroke-width:0.602;stroke-linecap:round;stroke-miterlimit:10;}
	.st4{fill:#FFFFFF;stroke:#005288;stroke-width:0.602;stroke-linecap:round;stroke-miterlimit:10;}
	.st5{fill:#005288;}
	.st6{fill:none;stroke:#005288;stroke-width:0.602;stroke-linecap:round;stroke-miterlimit:10;}
	.st7{fill:none;stroke:#005288;stroke-width:0.6483;stroke-linecap:round;stroke-miterlimit:10;}
	.st8{fill:#FFFFFF;stroke:#00A4E4;stroke-width:0.6483;stroke-linecap:round;stroke-miterlimit:10;}
	.st9{fill:none;stroke:#00A4E4;stroke-width:0.602;stroke-miterlimit:10;}
	.st10{fill:#FFFFFF;stroke:#005288;stroke-width:0.602;stroke-miterlimit:10;}
	.st11{fill:none;stroke:#00A4E4;stroke-width:0.4754;stroke-linecap:round;stroke-linejoin:round;stroke-miterlimit:10;}
	.st12{fill:none;stroke:#005288;stroke-width:0.602;stroke-miterlimit:10;}
	.st13{fill:#FFFFFF;stroke:#005288;stroke-width:0.602;stroke-linecap:round;stroke-linejoin:round;stroke-miterlimit:10;}
	.st14{fill:#FFFFFF;stroke:#00A4E4;stroke-width:0.3704;stroke-linejoin:round;stroke-miterlimit:10;}
	.st15{fill:#FFFFFF;stroke:#005288;stroke-width:0.2778;stroke-linejoin:round;stroke-miterlimit:10;}
	.st16{fill:#00A4E4;stroke:#00A4E4;stroke-width:0.602;stroke-miterlimit:10;}
	.st17{fill:none;stroke:#00A4E4;stroke-width:0.3704;stroke-linecap:round;stroke-miterlimit:10;}
	.st18{fill:none;stroke:#00A4E4;stroke-width:0.7872;stroke-linecap:round;stroke-miterlimit:10;}
	.st19{fill:none;stroke:#00A4E4;stroke-width:0.6483;stroke-miterlimit:10;}
	.st20{fill:#FFFFFF;stroke:#005288;stroke-width:0.6483;stroke-miterlimit:10;}
	.st21{fill:#FFFFFF;stroke:#005288;stroke-width:0.7455;stroke-miterlimit:10;}
</style>
<g>
	<g>
		<path class="st1" d="M19.96,8.36l-7.22,4.61c-0.09,0.05-0.2,0.03-0.25-0.06l-2.17-3.4c-0.05-0.09-0.03-0.2,0.06-0.25l7.22-4.61
			c1.02-0.65,2.38-0.35,3.04,0.67l0,0C21.29,6.34,20.99,7.7,19.96,8.36z"/>
		<g>
			<circle class="st2" cx="11.62" cy="8.02" r="0.45"/>
			<circle class="st2" cx="13.08" cy="7.09" r="0.45"/>
			<circle class="st2" cx="14.54" cy="6.16" r="0.45"/>
			<circle class="st2" cx="16" cy="5.23" r="0.45"/>
			<circle class="st2" cx="17.47" cy="4.29" r="0.45"/>
			<circle class="st2" cx="19.37" cy="3.95" r="0.45"/>
			<circle class="st2" cx="21.02" cy="5.08" r="0.45"/>
			<circle class="st2" cx="21.37" cy="7.03" r="0.45"/>
			<circle class="st2" cx="14.39" cy="12.36" r="0.45"/>
			<circle class="st2" cx="15.85" cy="11.43" r="0.45"/>
			<circle class="st2" cx="17.31" cy="10.49" r="0.45"/>
			<circle class="st2" cx="18.77" cy="9.56" r="0.45"/>
			<circle class="st2" cx="20.23" cy="8.63" r="0.45"/>
		</g>
		<line class="st3" x1="11.47" y1="11.19" x2="18.8" y2="6.51"/>
	</g>
	<g>
		<path class="st4" d="M12.27,14.75l-5.68,3.62c-0.01,0-0.01,0-0.02,0l-3.02-4.73c-0.38-0.6-0.21-1.39,0.39-1.78l4.61-2.94
			c0.6-0.38,1.39-0.21,1.78,0.39l2.33,3.66C13.05,13.57,12.87,14.36,12.27,14.75z"/>
		<g>
			
				<ellipse transform="matrix(0.8432 -0.5376 0.5376 0.8432 -8.4507 4.3573)" class="st5" cx="3.24" cy="16.66" rx="0.45" ry="0.51"/>
			<path class="st6" d="M5.44,19.1l-2.18,1.39C3.24,20.5,3.2,20.5,3.18,20.47l-0.56-0.88c-0.82-1.28-0.44-2.98,0.84-3.8l1.04-0.66
				l1.28,2.01C6.09,17.61,6.23,18.6,5.44,19.1z"/>
			<line class="st6" x1="5.08" y1="19.33" x2="8.97" y2="16.85"/>
		</g>
	</g>
	<line class="st7" x1="7.34" y1="15.83" x2="9.54" y2="14.43"/>
	<circle class="st8" cx="6.99" cy="12.94" r="1.19"/>
	<path class="st6" d="M4.79,11.19l-0.28-0.45c0,0-0.63-1.43,0.64-2.25c1.28-0.81,2.62,0.45,3.21,1.13c1.61,1.87,3.37,5.08,3.37,5.08
		"/>
</g>
</svg>
