<?xml version="1.0" encoding="utf-8"?>
<!-- Generator: Adobe Illustrator 28.1.0, SVG Export Plug-In . SVG Version: 6.00 Build 0)  -->
<svg version="1.1" id="Layer_1" xmlns="http://www.w3.org/2000/svg" xmlns:xlink="http://www.w3.org/1999/xlink" x="0px" y="0px"
	 viewBox="0 0 24 24" style="enable-background:new 0 0 24 24;" xml:space="preserve">
<style type="text/css">
	.st0{fill:#E6E6E6;}
	.st1{fill:#FFFFFF;stroke:#00A4E4;stroke-width:0.602;stroke-miterlimit:10;}
	.st2{fill:#00A4E4;}
	.st3{fill:none;stroke:#00A4E4;stroke-width:0.602;stroke-linecap:round;stroke-miterlimit:10;}
	.st4{fill:#FFFFFF;stroke:#005288;stroke-width:0.602;stroke-linecap:round;stroke-miterlimit:10;}
	.st5{fill:#005288;}
	.st6{fill:none;stroke:#005288;stroke-width:0.602;stroke-linecap:round;stroke-miterlimit:10;}
	.st7{fill:none;stroke:#005288;stroke-width:0.6483;stroke-linecap:round;stroke-miterlimit:10;}
	.st8{fill:#FFFFFF;stroke:#00A4E4;stroke-width:0.6483;stroke-linecap:round;stroke-miterlimit:10;}
	.st9{fill:none;stroke:#00A4E4;stroke-width:0.602;stroke-miterlimit:10;}
	.st10{fill:#FFFFFF;stroke:#005288;stroke-width:0.602;stroke-miterlimit:10;}
	.st11{fill:none;stroke:#00A4E4;stroke-width:0.4754;stroke-linecap:round;stroke-linejoin:round;stroke-miterlimit:10;}
	.st12{fill:none;stroke:#005288;stroke-width:0.602;stroke-miterlimit:10;}
	.st13{fill:#FFFFFF;stroke:#005288;stroke-width:0.602;stroke-linecap:round;stroke-linejoin:round;stroke-miterlimit:10;}
	.st14{fill:#FFFFFF;stroke:#00A4E4;stroke-width:0.3704;stroke-linejoin:round;stroke-miterlimit:10;}
	.st15{fill:#FFFFFF;stroke:#005288;stroke-width:0.2778;stroke-linejoin:round;stroke-miterlimit:10;}
	.st16{fill:#00A4E4;stroke:#00A4E4;stroke-width:0.602;stroke-miterlimit:10;}
	.st17{fill:none;stroke:#00A4E4;stroke-width:0.3704;stroke-linecap:round;stroke-miterlimit:10;}
	.st18{fill:none;stroke:#00A4E4;stroke-width:0.7872;stroke-linecap:round;stroke-miterlimit:10;}
	.st19{fill:none;stroke:#00A4E4;stroke-width:0.6483;stroke-miterlimit:10;}
	.st20{fill:#FFFFFF;stroke:#005288;stroke-width:0.6483;stroke-miterlimit:10;}
	.st21{fill:#FFFFFF;stroke:#005288;stroke-width:0.7455;stroke-miterlimit:10;}
</style>
<g>
	<path class="st9" d="M17.6,8.74v1.93c0,0.4-0.29,0.73-0.64,0.73H7.02c-0.35,0-0.64-0.33-0.64-0.73V8.74"/>
	<rect x="10.5" y="12.09" class="st10" width="2.98" height="9.76"/>
	<path class="st10" d="M14.5,12.16H9.49c-0.3,0-0.54-0.24-0.54-0.54v-0.88c0-0.3,0.24-0.54,0.54-0.54h5.01
		c0.3,0,0.54,0.24,0.54,0.54v0.88C15.03,11.92,14.79,12.16,14.5,12.16z"/>
	<g>
		<path class="st10" d="M20.82,8.62h-6.85c-0.35,0-0.64-0.28-0.64-0.64v-5.2c0-0.35,0.28-0.64,0.64-0.64h6.85
			c0.35,0,0.64,0.28,0.64,0.64v5.2C21.45,8.34,21.17,8.62,20.82,8.62z"/>
		<line class="st9" x1="13.6" y1="4.4" x2="21.19" y2="4.4"/>
		<line class="st9" x1="13.6" y1="6.33" x2="21.19" y2="6.33"/>
	</g>
	<g>
		<path class="st10" d="M10.04,8.62H3.18c-0.35,0-0.64-0.28-0.64-0.64v-5.2c0-0.35,0.28-0.64,0.64-0.64h6.85
			c0.35,0,0.64,0.28,0.64,0.64v5.2C10.67,8.34,10.39,8.62,10.04,8.62z"/>
		<line class="st9" x1="2.81" y1="4.4" x2="10.4" y2="4.4"/>
		<line class="st9" x1="2.81" y1="6.33" x2="10.4" y2="6.33"/>
	</g>
</g>
</svg>
