<?xml version="1.0" encoding="utf-8"?>
<!-- Generator: Adobe Illustrator 28.1.0, SVG Export Plug-In . SVG Version: 6.00 Build 0)  -->
<svg version="1.1" id="Layer_1" xmlns="http://www.w3.org/2000/svg" xmlns:xlink="http://www.w3.org/1999/xlink" x="0px" y="0px"
	 viewBox="0 0 24 24" style="enable-background:new 0 0 24 24;" xml:space="preserve">
<style type="text/css">
	.st0{fill:#E6E6E6;}
	.st1{fill:#CCCCCC;}
	.st2{fill:#FFFFFF;}
	.st3{fill:#005288;}
	.st4{fill:#FFFFFF;stroke:#005288;stroke-width:0.5497;stroke-linecap:round;stroke-linejoin:round;stroke-miterlimit:10;}
	.st5{fill:none;stroke:#00A4E4;stroke-width:0.5497;stroke-linecap:round;stroke-linejoin:round;stroke-miterlimit:10;}
	.st6{fill:#FFFFFF;stroke:#005288;stroke-width:0.674;stroke-miterlimit:10;}
	.st7{fill:#FFFFFF;stroke:#005288;stroke-width:0.4025;stroke-miterlimit:10;}
	.st8{fill:#FFFFFF;stroke:#005288;stroke-width:0.644;stroke-miterlimit:10;}
	.st9{fill:none;stroke:#005288;stroke-width:0.4025;stroke-linecap:round;stroke-linejoin:round;stroke-miterlimit:10;}
	.st10{fill:#00A4E4;}
	.st11{fill:#FFFFFF;stroke:#005288;stroke-width:0.6381;stroke-linecap:round;stroke-linejoin:round;stroke-miterlimit:10;}
	.st12{fill:#FFFFFF;stroke:#005288;stroke-width:0.547;stroke-linecap:round;stroke-linejoin:round;stroke-miterlimit:10;}
	.st13{fill:none;stroke:#005288;stroke-width:0.4016;stroke-linecap:round;stroke-linejoin:round;stroke-miterlimit:10;}
	.st14{fill:#FFFFFF;stroke:#005288;stroke-width:0.6821;stroke-miterlimit:10;}
	.st15{fill:none;stroke:#005288;stroke-width:0.6821;stroke-miterlimit:10;}
	.st16{fill:none;stroke:#00A4E4;stroke-width:0.6345;stroke-miterlimit:10;}
	.st17{fill:none;stroke:#005288;stroke-width:0.6037;stroke-linecap:round;stroke-linejoin:round;stroke-miterlimit:10;}
	.st18{fill:#FFFFFF;stroke:#005288;stroke-width:0.6037;stroke-linecap:round;stroke-linejoin:round;stroke-miterlimit:10;}
	.st19{fill:#FFFFFF;stroke:#00A4E4;stroke-width:0.6037;stroke-linecap:round;stroke-linejoin:round;stroke-miterlimit:10;}
	.st20{fill:none;stroke:#005288;stroke-width:0.4804;stroke-miterlimit:10;}
	.st21{fill:none;stroke:#005288;stroke-width:0.4804;stroke-linecap:round;stroke-miterlimit:10;}
	.st22{fill:none;stroke:#005288;stroke-width:0.501;stroke-linecap:round;stroke-miterlimit:10;}
	.st23{fill:#FFFFFF;stroke:#005288;stroke-width:0.501;stroke-linecap:round;stroke-linejoin:round;stroke-miterlimit:10;}
	.st24{fill:#FFFFFF;stroke:#005288;stroke-width:0.501;stroke-linecap:round;stroke-miterlimit:10;}
	.st25{fill:#FFFFFF;stroke:#00A4E4;stroke-width:0.69;stroke-miterlimit:10;}
</style>
<g>
	<g>
		<path class="st2" d="M5.08,21.14c-0.19,0-0.35-0.15-0.35-0.35c0-2.74-0.01-6.78-0.05-7.88h-2.1c-0.14,0-0.27-0.08-0.32-0.21
			c-0.05-0.13-0.02-0.28,0.08-0.38l9.4-9.36c0.07-0.07,0.16-0.1,0.24-0.1s0.18,0.03,0.24,0.1l3.49,3.45V4.82
			c0-0.19,0.15-0.35,0.35-0.35h3.39c0.19,0,0.35,0.15,0.35,0.35v5.66l1.87,1.83c0.1,0.1,0.13,0.25,0.08,0.38
			c-0.05,0.13-0.18,0.21-0.32,0.21h-1.71v7.88c0,0.19-0.15,0.35-0.35,0.35H5.08z"/>
		<path class="st3" d="M11.98,3.21l4.07,4.03V4.82h3.39v5.81l1.98,1.94h-2.06v8.23H5.08c0,0,0-8.23-0.08-8.23H2.58L11.98,3.21
			 M11.98,2.52c-0.18,0-0.35,0.07-0.49,0.2l-9.4,9.36c-0.2,0.2-0.26,0.49-0.15,0.75c0.11,0.26,0.36,0.43,0.64,0.43h1.77
			c0.03,1.44,0.04,5.13,0.04,7.54c0,0.38,0.31,0.69,0.69,0.69h14.28c0.38,0,0.69-0.31,0.69-0.69v-7.54h1.37
			c0.28,0,0.53-0.17,0.64-0.43c0.11-0.26,0.04-0.56-0.16-0.75l-1.77-1.73V4.82c0-0.38-0.31-0.69-0.69-0.69h-3.39
			c-0.38,0-0.69,0.31-0.69,0.69v0.77l-2.9-2.87C12.33,2.58,12.16,2.52,11.98,2.52L11.98,2.52z"/>
	</g>
	<line class="st4" x1="4.74" y1="19.46" x2="19.66" y2="19.46"/>
	<g>
		<path class="st5" d="M7.58,18.22c0-0.47-0.53-0.75-0.53-1.24c0-0.49,0.53-0.78,0.53-1.24c0-0.47-0.53-0.75-0.53-1.24
			c0-0.49,0.53-0.78,0.53-1.24"/>
		<path class="st5" d="M9.53,19.46c0-0.49,0.53-0.78,0.53-1.24c0-0.47-0.53-0.75-0.53-1.24c0-0.49,0.53-0.78,0.53-1.24
			c0-0.47-0.53-0.75-0.53-1.24c0-0.49,0.53-0.78,0.53-1.24c0-0.47-0.53-0.75-0.53-1.24"/>
		<path class="st5" d="M12.56,18.22c0-0.47-0.53-0.75-0.53-1.24c0-0.49,0.53-0.78,0.53-1.24c0-0.47-0.53-0.75-0.53-1.24
			c0-0.49,0.53-0.78,0.53-1.24"/>
		<path class="st5" d="M14.51,19.46c0-0.49,0.53-0.78,0.53-1.24c0-0.47-0.53-0.75-0.53-1.24c0-0.49,0.53-0.78,0.53-1.24
			c0-0.47-0.53-0.75-0.53-1.24c0-0.49,0.53-0.78,0.53-1.24c0-0.47-0.53-0.75-0.53-1.24"/>
		<path class="st5" d="M17.53,18.22c0-0.47-0.53-0.75-0.53-1.24c0-0.49,0.53-0.78,0.53-1.24c0-0.47-0.53-0.75-0.53-1.24
			c0-0.49,0.53-0.78,0.53-1.24"/>
	</g>
</g>
</svg>
