<?xml version="1.0" encoding="utf-8"?>
<!-- Generator: Adobe Illustrator 28.1.0, SVG Export Plug-In . SVG Version: 6.00 Build 0)  -->
<svg version="1.1" id="Layer_1" xmlns="http://www.w3.org/2000/svg" xmlns:xlink="http://www.w3.org/1999/xlink" x="0px" y="0px"
	 viewBox="0 0 24 24" style="enable-background:new 0 0 24 24;" xml:space="preserve">
<style type="text/css">
	.st0{fill:#E6E6E6;}
	.st1{fill:#CCCCCC;}
	.st2{fill:#FFFFFF;}
	.st3{fill:#005288;}
	.st4{fill:#FFFFFF;stroke:#005288;stroke-width:0.5497;stroke-linecap:round;stroke-linejoin:round;stroke-miterlimit:10;}
	.st5{fill:none;stroke:#00A4E4;stroke-width:0.5497;stroke-linecap:round;stroke-linejoin:round;stroke-miterlimit:10;}
	.st6{fill:#FFFFFF;stroke:#005288;stroke-width:0.674;stroke-miterlimit:10;}
	.st7{fill:#FFFFFF;stroke:#005288;stroke-width:0.4025;stroke-miterlimit:10;}
	.st8{fill:#FFFFFF;stroke:#005288;stroke-width:0.644;stroke-miterlimit:10;}
	.st9{fill:none;stroke:#005288;stroke-width:0.4025;stroke-linecap:round;stroke-linejoin:round;stroke-miterlimit:10;}
	.st10{fill:#00A4E4;}
	.st11{fill:#FFFFFF;stroke:#005288;stroke-width:0.6381;stroke-linecap:round;stroke-linejoin:round;stroke-miterlimit:10;}
	.st12{fill:#FFFFFF;stroke:#005288;stroke-width:0.547;stroke-linecap:round;stroke-linejoin:round;stroke-miterlimit:10;}
	.st13{fill:none;stroke:#005288;stroke-width:0.4016;stroke-linecap:round;stroke-linejoin:round;stroke-miterlimit:10;}
	.st14{fill:#FFFFFF;stroke:#005288;stroke-width:0.6821;stroke-miterlimit:10;}
	.st15{fill:none;stroke:#005288;stroke-width:0.6821;stroke-miterlimit:10;}
	.st16{fill:none;stroke:#00A4E4;stroke-width:0.6345;stroke-miterlimit:10;}
	.st17{fill:none;stroke:#005288;stroke-width:0.6037;stroke-linecap:round;stroke-linejoin:round;stroke-miterlimit:10;}
	.st18{fill:#FFFFFF;stroke:#005288;stroke-width:0.6037;stroke-linecap:round;stroke-linejoin:round;stroke-miterlimit:10;}
	.st19{fill:#FFFFFF;stroke:#00A4E4;stroke-width:0.6037;stroke-linecap:round;stroke-linejoin:round;stroke-miterlimit:10;}
	.st20{fill:none;stroke:#005288;stroke-width:0.4804;stroke-miterlimit:10;}
	.st21{fill:none;stroke:#005288;stroke-width:0.4804;stroke-linecap:round;stroke-miterlimit:10;}
	.st22{fill:none;stroke:#005288;stroke-width:0.501;stroke-linecap:round;stroke-miterlimit:10;}
	.st23{fill:#FFFFFF;stroke:#005288;stroke-width:0.501;stroke-linecap:round;stroke-linejoin:round;stroke-miterlimit:10;}
	.st24{fill:#FFFFFF;stroke:#005288;stroke-width:0.501;stroke-linecap:round;stroke-miterlimit:10;}
	.st25{fill:#FFFFFF;stroke:#00A4E4;stroke-width:0.69;stroke-miterlimit:10;}
</style>
<g>
	<g>
		<g>
			<rect x="8.64" y="6.4" class="st11" width="7.22" height="4.09"/>
			<rect x="15.72" y="5.55" class="st11" width="1.33" height="5.79"/>
		</g>
		<circle class="st11" cx="8.43" cy="12.4" r="6.05"/>
		<g>
			<circle class="st12" cx="8.43" cy="12.4" r="3.39"/>
			<path class="st13" d="M5.22,12.45c0,0,1.32-1.76,3.08,0s3.33-0.38,3.33-0.38"/>
			<path class="st13" d="M8.47,15.61c0,0-1.76-1.32,0-3.08S8.09,9.2,8.09,9.2"/>
		</g>
	</g>
	<path class="st10" d="M20.35,13.74L20.35,13.74L20.35,13.74c-0.04-0.09-0.09-0.18-0.14-0.25l-1.52-2.8l-1.5,2.77
		c-0.2,0.29-0.31,0.64-0.31,1.02c0,1,0.81,1.82,1.82,1.82c1,0,1.82-0.81,1.82-1.82C20.51,14.22,20.45,13.97,20.35,13.74z"/>
	<path class="st10" d="M21.89,10.85L21.89,10.85L21.89,10.85c-0.02-0.05-0.05-0.1-0.08-0.15l-0.88-1.62l-0.87,1.6
		c-0.11,0.17-0.18,0.37-0.18,0.59c0,0.58,0.47,1.05,1.05,1.05c0.58,0,1.05-0.47,1.05-1.05C21.98,11.12,21.95,10.98,21.89,10.85z"/>
	<circle class="st3" cx="8.44" cy="12.55" r="0.6"/>
</g>
</svg>
