<?xml version="1.0" encoding="utf-8"?>
<!-- Generator: Adobe Illustrator 28.1.0, SVG Export Plug-In . SVG Version: 6.00 Build 0)  -->
<svg version="1.1" id="Layer_1" xmlns="http://www.w3.org/2000/svg" xmlns:xlink="http://www.w3.org/1999/xlink" x="0px" y="0px"
	 viewBox="0 0 24 24" style="enable-background:new 0 0 24 24;" xml:space="preserve">
<style type="text/css">
	.st0{fill:#E6E6E6;}
	.st1{fill:#CCCCCC;}
	.st2{fill:#FFFFFF;}
	.st3{fill:#005288;}
	.st4{fill:#FFFFFF;stroke:#005288;stroke-width:0.5497;stroke-linecap:round;stroke-linejoin:round;stroke-miterlimit:10;}
	.st5{fill:none;stroke:#00A4E4;stroke-width:0.5497;stroke-linecap:round;stroke-linejoin:round;stroke-miterlimit:10;}
	.st6{fill:#FFFFFF;stroke:#005288;stroke-width:0.674;stroke-miterlimit:10;}
	.st7{fill:#FFFFFF;stroke:#005288;stroke-width:0.4025;stroke-miterlimit:10;}
	.st8{fill:#FFFFFF;stroke:#005288;stroke-width:0.644;stroke-miterlimit:10;}
	.st9{fill:none;stroke:#005288;stroke-width:0.4025;stroke-linecap:round;stroke-linejoin:round;stroke-miterlimit:10;}
	.st10{fill:#00A4E4;}
	.st11{fill:#FFFFFF;stroke:#005288;stroke-width:0.6381;stroke-linecap:round;stroke-linejoin:round;stroke-miterlimit:10;}
	.st12{fill:#FFFFFF;stroke:#005288;stroke-width:0.547;stroke-linecap:round;stroke-linejoin:round;stroke-miterlimit:10;}
	.st13{fill:none;stroke:#005288;stroke-width:0.4016;stroke-linecap:round;stroke-linejoin:round;stroke-miterlimit:10;}
	.st14{fill:#FFFFFF;stroke:#005288;stroke-width:0.6821;stroke-miterlimit:10;}
	.st15{fill:none;stroke:#005288;stroke-width:0.6821;stroke-miterlimit:10;}
	.st16{fill:none;stroke:#00A4E4;stroke-width:0.6345;stroke-miterlimit:10;}
	.st17{fill:none;stroke:#005288;stroke-width:0.6037;stroke-linecap:round;stroke-linejoin:round;stroke-miterlimit:10;}
	.st18{fill:#FFFFFF;stroke:#005288;stroke-width:0.6037;stroke-linecap:round;stroke-linejoin:round;stroke-miterlimit:10;}
	.st19{fill:#FFFFFF;stroke:#00A4E4;stroke-width:0.6037;stroke-linecap:round;stroke-linejoin:round;stroke-miterlimit:10;}
	.st20{fill:none;stroke:#005288;stroke-width:0.4804;stroke-miterlimit:10;}
	.st21{fill:none;stroke:#005288;stroke-width:0.4804;stroke-linecap:round;stroke-miterlimit:10;}
	.st22{fill:none;stroke:#005288;stroke-width:0.501;stroke-linecap:round;stroke-miterlimit:10;}
	.st23{fill:#FFFFFF;stroke:#005288;stroke-width:0.501;stroke-linecap:round;stroke-linejoin:round;stroke-miterlimit:10;}
	.st24{fill:#FFFFFF;stroke:#005288;stroke-width:0.501;stroke-linecap:round;stroke-miterlimit:10;}
	.st25{fill:#FFFFFF;stroke:#00A4E4;stroke-width:0.69;stroke-miterlimit:10;}
</style>
<g>
	<g>
		<path class="st2" d="M3.72,10.81c-1.18,0-1.49-1.22-1.49-1.87c0-0.63,0.27-1.12,0.4-1.33l0-0.62c0-0.3,0.25-0.54,0.54-0.54
			c0.1,0,0.23,0.01,0.23,0.01c0.66,0,1.33-0.2,2-0.58c1.16-0.67,2.53-1.02,3.95-1.02l2.1,0.01c0.76,0,1.52,0.19,2.2,0.53l1.61,0.81
			c0.6,0.3,1.25,0.48,1.94,0.52c2.02,0.13,3.13,0.52,3.61,0.74c0.26,0.12,0.42,0.4,0.39,0.69l0,0.33l0.26,0.17
			c0.2,0.13,0.31,0.36,0.31,0.62l0.01,1.04c0,0.16-0.06,0.3-0.17,0.41c-0.11,0.11-0.25,0.17-0.41,0.17l-5.29-0.01l-0.42,0L4.75,10.9
			L3.72,10.81z"/>
		<path class="st3" d="M9.35,5.21c0.01,0,0.02,0,0.04,0l2.06,0.01c0.71,0,1.41,0.17,2.05,0.49l1.61,0.81
			c0.64,0.33,1.35,0.51,2.07,0.55c1.98,0.12,3.05,0.5,3.49,0.71c0.13,0.06,0.21,0.2,0.19,0.34l0,0.55l0.41,0.27
			c0.09,0.06,0.16,0.17,0.16,0.33l0.01,1.04c0,0.13-0.1,0.24-0.23,0.24c0,0,0,0,0,0l-0.98,0l-4.31,0l-0.41,0L4.76,10.56l-1.01-0.09
			c-1.18-0.01-1.18-1.52-1.18-1.52c0-0.72,0.4-1.22,0.4-1.22l0-0.73c0-0.11,0.09-0.2,0.2-0.2c0,0,0.01,0,0.01,0
			c0.07,0,0.14,0.01,0.21,0.01c0.84,0,1.59-0.29,2.17-0.63C6.71,5.52,8.02,5.2,9.35,5.21 M9.35,4.52c-1.48,0-2.9,0.37-4.12,1.07
			C4.61,5.94,3.99,6.12,3.4,6.12c-0.06,0-0.11,0-0.17-0.01l-0.02,0l-0.03,0c-0.49,0-0.88,0.4-0.88,0.88l0,0.52
			C2.12,7.8,1.89,8.3,1.89,8.95c0,0.88,0.49,2.19,1.83,2.21l0.99,0.08l0.03,0l0.03,0l10.72-0.02l0.4,0l4.32,0l0.98,0
			c0.25,0,0.48-0.1,0.65-0.27c0.17-0.17,0.27-0.41,0.27-0.65l-0.01-1.04c0-0.37-0.17-0.7-0.47-0.89l-0.1-0.07l0-0.16
			c0.03-0.42-0.2-0.81-0.59-0.99c-0.5-0.23-1.66-0.64-3.73-0.77c-0.64-0.04-1.25-0.2-1.8-0.48L13.8,5.1
			c-0.73-0.37-1.54-0.56-2.35-0.57L9.38,4.52l0,0L9.35,4.52L9.35,4.52z"/>
	</g>
	<line class="st21" x1="2.97" y1="7.73" x2="4.43" y2="7.74"/>
	<g>
		<g>
			<line class="st22" x1="19.24" y1="15.69" x2="17.6" y2="15.69"/>
			<line class="st22" x1="19.24" y1="18.24" x2="17.6" y2="18.24"/>
		</g>
		<path class="st23" d="M16.65,18.62v-3.31c0-0.2,0.16-0.36,0.36-0.36h0.23c0.2,0,0.36,0.16,0.36,0.36v3.31
			c0,0.2-0.16,0.36-0.36,0.36h-0.23C16.81,18.99,16.65,18.82,16.65,18.62z"/>
		<path class="st24" d="M14.36,16.97L14.36,16.97c0-0.79,0.64-1.43,1.43-1.43h0.86v2.86h-0.86C15,18.39,14.36,17.76,14.36,16.97z"/>
		<path class="st22" d="M14.36,17H7.98c-0.22,0-0.4-0.18-0.4-0.4v-0.47c0-0.48-0.39-0.87-0.87-0.87H6.7c-0.48,0-0.87,0.39-0.87,0.87
			v1.75c0,0.48-0.39,0.87-0.87,0.87H4.94c-0.48,0-0.87-0.39-0.87-0.87v-6.94"/>
	</g>
	<circle id="XMLID_1307_" class="st25" cx="18.1" cy="10.53" r="1.5"/>
	<circle id="XMLID_1306_" class="st25" cx="6.65" cy="10.48" r="1.5"/>
	<path class="st20" d="M10.63,5.01L10.62,7.3l3.21,0.01c0.69,0,1.35-0.27,1.83-0.75l0.3-0.17"/>
	<path class="st20" d="M10.62,7.3l-1.13,0C8.3,7.29,7.23,6.58,6.74,5.5l0,0"/>
</g>
</svg>
