<?xml version="1.0" encoding="utf-8"?>
<!-- Generator: Adobe Illustrator 28.1.0, SVG Export Plug-In . SVG Version: 6.00 Build 0)  -->
<svg version="1.1" id="Layer_1" xmlns="http://www.w3.org/2000/svg" xmlns:xlink="http://www.w3.org/1999/xlink" x="0px" y="0px"
	 viewBox="0 0 24 24" style="enable-background:new 0 0 24 24;" xml:space="preserve">
<style type="text/css">
	.st0{fill:#E6E6E6;}
	.st1{fill:#CCCCCC;}
	.st2{fill:#FFFFFF;}
	.st3{fill:#005288;}
	.st4{fill:#FFFFFF;stroke:#005288;stroke-width:0.5497;stroke-linecap:round;stroke-linejoin:round;stroke-miterlimit:10;}
	.st5{fill:none;stroke:#00A4E4;stroke-width:0.5497;stroke-linecap:round;stroke-linejoin:round;stroke-miterlimit:10;}
	.st6{fill:#FFFFFF;stroke:#005288;stroke-width:0.674;stroke-miterlimit:10;}
	.st7{fill:#FFFFFF;stroke:#005288;stroke-width:0.4025;stroke-miterlimit:10;}
	.st8{fill:#FFFFFF;stroke:#005288;stroke-width:0.644;stroke-miterlimit:10;}
	.st9{fill:none;stroke:#005288;stroke-width:0.4025;stroke-linecap:round;stroke-linejoin:round;stroke-miterlimit:10;}
	.st10{fill:#00A4E4;}
	.st11{fill:#FFFFFF;stroke:#005288;stroke-width:0.6381;stroke-linecap:round;stroke-linejoin:round;stroke-miterlimit:10;}
	.st12{fill:#FFFFFF;stroke:#005288;stroke-width:0.547;stroke-linecap:round;stroke-linejoin:round;stroke-miterlimit:10;}
	.st13{fill:none;stroke:#005288;stroke-width:0.4016;stroke-linecap:round;stroke-linejoin:round;stroke-miterlimit:10;}
	.st14{fill:#FFFFFF;stroke:#005288;stroke-width:0.6821;stroke-miterlimit:10;}
	.st15{fill:none;stroke:#005288;stroke-width:0.6821;stroke-miterlimit:10;}
	.st16{fill:none;stroke:#00A4E4;stroke-width:0.6345;stroke-miterlimit:10;}
	.st17{fill:none;stroke:#005288;stroke-width:0.6037;stroke-linecap:round;stroke-linejoin:round;stroke-miterlimit:10;}
	.st18{fill:#FFFFFF;stroke:#005288;stroke-width:0.6037;stroke-linecap:round;stroke-linejoin:round;stroke-miterlimit:10;}
	.st19{fill:#FFFFFF;stroke:#00A4E4;stroke-width:0.6037;stroke-linecap:round;stroke-linejoin:round;stroke-miterlimit:10;}
	.st20{fill:none;stroke:#005288;stroke-width:0.4804;stroke-miterlimit:10;}
	.st21{fill:none;stroke:#005288;stroke-width:0.4804;stroke-linecap:round;stroke-miterlimit:10;}
	.st22{fill:none;stroke:#005288;stroke-width:0.501;stroke-linecap:round;stroke-miterlimit:10;}
	.st23{fill:#FFFFFF;stroke:#005288;stroke-width:0.501;stroke-linecap:round;stroke-linejoin:round;stroke-miterlimit:10;}
	.st24{fill:#FFFFFF;stroke:#005288;stroke-width:0.501;stroke-linecap:round;stroke-miterlimit:10;}
	.st25{fill:#FFFFFF;stroke:#00A4E4;stroke-width:0.69;stroke-miterlimit:10;}
</style>
<g>
	<path class="st17" d="M20.6,21.66H3.4c-0.47,0-0.85-0.38-0.85-0.85V8.49c0-0.47,0.38-0.85,0.85-0.85h17.2
		c0.47,0,0.85,0.38,0.85,0.85v12.32C21.45,21.28,21.07,21.66,20.6,21.66z"/>
	<rect x="11.15" y="12.11" class="st18" width="1.71" height="3.14"/>
	<g>
		<path class="st18" d="M18.08,12.17H5.92c-0.59,0-1.07-0.48-1.07-1.07V3.41c0-0.59,0.48-1.07,1.07-1.07h12.15
			c0.59,0,1.07,0.48,1.07,1.07v7.69C19.15,11.69,18.67,12.17,18.08,12.17z"/>
		<line class="st19" x1="7.08" y1="4.13" x2="16.92" y2="10.44"/>
		<line class="st19" x1="16.92" y1="4.13" x2="7.08" y2="10.44"/>
		<path class="st19" d="M13.19,8.45h-2.39c-0.32,0-0.58-0.26-0.58-0.58V6.8c0-0.32,0.26-0.58,0.58-0.58h2.39
			c0.32,0,0.58,0.26,0.58,0.58v1.06C13.78,8.19,13.52,8.45,13.19,8.45z"/>
		<path class="st17" d="M16.5,10.65H7.5c-0.42,0-0.76-0.34-0.76-0.76V4.62c0-0.42,0.34-0.76,0.76-0.76h9.01
			c0.42,0,0.76,0.34,0.76,0.76v5.27C17.27,10.31,16.93,10.65,16.5,10.65z"/>
	</g>
	<g>
		<path class="st18" d="M15.35,19.86H8.65c-0.3,0-0.55-0.25-0.55-0.55v-3.64c0-0.18,0.08-0.33,0.21-0.43
			c0.09-0.07,0.21-0.12,0.34-0.12h6.69c0.3,0,0.55,0.25,0.55,0.55v3.64C15.9,19.61,15.65,19.86,15.35,19.86z"/>
		<path class="st18" d="M8.43,15.42c0,0,1.74,1.22,3.52,1.22s3.59-1.25,3.59-1.25"/>
		<path class="st18" d="M15.54,19.57c0,0-1.74-1.22-3.52-1.22S8.43,19.6,8.43,19.6"/>
	</g>
</g>
</svg>
