<?xml version="1.0" encoding="utf-8"?>
<!-- Generator: Adobe Illustrator 28.1.0, SVG Export Plug-In . SVG Version: 6.00 Build 0)  -->
<svg version="1.1" id="Layer_1" xmlns="http://www.w3.org/2000/svg" xmlns:xlink="http://www.w3.org/1999/xlink" x="0px" y="0px"
	 viewBox="0 0 24 24" style="enable-background:new 0 0 24 24;" xml:space="preserve">
<style type="text/css">
	.st0{fill:#E6E6E6;}
	.st1{fill:#CCCCCC;}
	.st2{fill:#FFFFFF;}
	.st3{fill:#005288;}
	.st4{fill:#FFFFFF;stroke:#005288;stroke-width:0.5497;stroke-linecap:round;stroke-linejoin:round;stroke-miterlimit:10;}
	.st5{fill:none;stroke:#00A4E4;stroke-width:0.5497;stroke-linecap:round;stroke-linejoin:round;stroke-miterlimit:10;}
	.st6{fill:#FFFFFF;stroke:#005288;stroke-width:0.674;stroke-miterlimit:10;}
	.st7{fill:#FFFFFF;stroke:#005288;stroke-width:0.4025;stroke-miterlimit:10;}
	.st8{fill:#FFFFFF;stroke:#005288;stroke-width:0.644;stroke-miterlimit:10;}
	.st9{fill:none;stroke:#005288;stroke-width:0.4025;stroke-linecap:round;stroke-linejoin:round;stroke-miterlimit:10;}
	.st10{fill:#00A4E4;}
	.st11{fill:#FFFFFF;stroke:#005288;stroke-width:0.6381;stroke-linecap:round;stroke-linejoin:round;stroke-miterlimit:10;}
	.st12{fill:#FFFFFF;stroke:#005288;stroke-width:0.547;stroke-linecap:round;stroke-linejoin:round;stroke-miterlimit:10;}
	.st13{fill:none;stroke:#005288;stroke-width:0.4016;stroke-linecap:round;stroke-linejoin:round;stroke-miterlimit:10;}
	.st14{fill:#FFFFFF;stroke:#005288;stroke-width:0.6821;stroke-miterlimit:10;}
	.st15{fill:none;stroke:#005288;stroke-width:0.6821;stroke-miterlimit:10;}
	.st16{fill:none;stroke:#00A4E4;stroke-width:0.6345;stroke-miterlimit:10;}
	.st17{fill:none;stroke:#005288;stroke-width:0.6037;stroke-linecap:round;stroke-linejoin:round;stroke-miterlimit:10;}
	.st18{fill:#FFFFFF;stroke:#005288;stroke-width:0.6037;stroke-linecap:round;stroke-linejoin:round;stroke-miterlimit:10;}
	.st19{fill:#FFFFFF;stroke:#00A4E4;stroke-width:0.6037;stroke-linecap:round;stroke-linejoin:round;stroke-miterlimit:10;}
	.st20{fill:none;stroke:#005288;stroke-width:0.4804;stroke-miterlimit:10;}
	.st21{fill:none;stroke:#005288;stroke-width:0.4804;stroke-linecap:round;stroke-miterlimit:10;}
	.st22{fill:none;stroke:#005288;stroke-width:0.501;stroke-linecap:round;stroke-miterlimit:10;}
	.st23{fill:#FFFFFF;stroke:#005288;stroke-width:0.501;stroke-linecap:round;stroke-linejoin:round;stroke-miterlimit:10;}
	.st24{fill:#FFFFFF;stroke:#005288;stroke-width:0.501;stroke-linecap:round;stroke-miterlimit:10;}
	.st25{fill:#FFFFFF;stroke:#00A4E4;stroke-width:0.69;stroke-miterlimit:10;}
</style>
<g>
	<path class="st6" d="M16.38,21.66H7.62c-0.61,0-1.1-0.49-1.1-1.1V3.63V3.44c0-0.61,0.49-1.1,1.1-1.1h8.75c0.61,0,1.1,0.49,1.1,1.1
		v17.12C17.48,21.17,16.98,21.66,16.38,21.66z"/>
	<line class="st7" x1="17.28" y1="3.73" x2="6.61" y2="3.73"/>
	<line class="st8" x1="17.28" y1="13.77" x2="6.61" y2="13.77"/>
	<line class="st7" x1="17.28" y1="20.31" x2="6.61" y2="20.31"/>
	<g>
		<path class="st9" d="M13.37,19.46h-2.83c-0.25,0-0.45-0.2-0.45-0.45V18.2c0-0.25,0.2-0.45,0.45-0.45h2.83
			c0.25,0,0.45,0.2,0.45,0.45v0.81C13.82,19.26,13.62,19.46,13.37,19.46z"/>
		<rect x="10.75" y="18.14" class="st3" width="0.57" height="0.23"/>
		<rect x="10.75" y="18.5" class="st3" width="0.57" height="0.23"/>
		<rect x="10.75" y="18.86" class="st3" width="0.57" height="0.23"/>
	</g>
	<path class="st10" d="M13.46,8.8L13.46,8.8L13.46,8.8c-0.04-0.08-0.08-0.16-0.12-0.23l-1.36-2.5l-1.34,2.47
		c-0.18,0.26-0.28,0.57-0.28,0.91c0,0.9,0.73,1.62,1.62,1.62c0.9,0,1.62-0.73,1.62-1.62C13.6,9.22,13.55,9,13.46,8.8z"/>
</g>
</svg>
