<?xml version="1.0" encoding="utf-8"?>
<!-- Generator: Adobe Illustrator 28.1.0, SVG Export Plug-In . SVG Version: 6.00 Build 0)  -->
<svg version="1.1" id="Layer_1" xmlns="http://www.w3.org/2000/svg" xmlns:xlink="http://www.w3.org/1999/xlink" x="0px" y="0px"
	 viewBox="0 0 24 24" style="enable-background:new 0 0 24 24;" xml:space="preserve">
<style type="text/css">
	.st0{fill:#E6E6E6;}
	.st1{fill:#CCCCCC;}
	.st2{fill:#FFFFFF;}
	.st3{fill:#005288;}
	.st4{fill:#FFFFFF;stroke:#005288;stroke-width:0.5497;stroke-linecap:round;stroke-linejoin:round;stroke-miterlimit:10;}
	.st5{fill:none;stroke:#00A4E4;stroke-width:0.5497;stroke-linecap:round;stroke-linejoin:round;stroke-miterlimit:10;}
	.st6{fill:#FFFFFF;stroke:#005288;stroke-width:0.674;stroke-miterlimit:10;}
	.st7{fill:#FFFFFF;stroke:#005288;stroke-width:0.4025;stroke-miterlimit:10;}
	.st8{fill:#FFFFFF;stroke:#005288;stroke-width:0.644;stroke-miterlimit:10;}
	.st9{fill:none;stroke:#005288;stroke-width:0.4025;stroke-linecap:round;stroke-linejoin:round;stroke-miterlimit:10;}
	.st10{fill:#00A4E4;}
	.st11{fill:#FFFFFF;stroke:#005288;stroke-width:0.6381;stroke-linecap:round;stroke-linejoin:round;stroke-miterlimit:10;}
	.st12{fill:#FFFFFF;stroke:#005288;stroke-width:0.547;stroke-linecap:round;stroke-linejoin:round;stroke-miterlimit:10;}
	.st13{fill:none;stroke:#005288;stroke-width:0.4016;stroke-linecap:round;stroke-linejoin:round;stroke-miterlimit:10;}
	.st14{fill:#FFFFFF;stroke:#005288;stroke-width:0.6821;stroke-miterlimit:10;}
	.st15{fill:none;stroke:#005288;stroke-width:0.6821;stroke-miterlimit:10;}
	.st16{fill:none;stroke:#00A4E4;stroke-width:0.6345;stroke-miterlimit:10;}
	.st17{fill:none;stroke:#005288;stroke-width:0.6037;stroke-linecap:round;stroke-linejoin:round;stroke-miterlimit:10;}
	.st18{fill:#FFFFFF;stroke:#005288;stroke-width:0.6037;stroke-linecap:round;stroke-linejoin:round;stroke-miterlimit:10;}
	.st19{fill:#FFFFFF;stroke:#00A4E4;stroke-width:0.6037;stroke-linecap:round;stroke-linejoin:round;stroke-miterlimit:10;}
	.st20{fill:none;stroke:#005288;stroke-width:0.4804;stroke-miterlimit:10;}
	.st21{fill:none;stroke:#005288;stroke-width:0.4804;stroke-linecap:round;stroke-miterlimit:10;}
	.st22{fill:none;stroke:#005288;stroke-width:0.501;stroke-linecap:round;stroke-miterlimit:10;}
	.st23{fill:#FFFFFF;stroke:#005288;stroke-width:0.501;stroke-linecap:round;stroke-linejoin:round;stroke-miterlimit:10;}
	.st24{fill:#FFFFFF;stroke:#005288;stroke-width:0.501;stroke-linecap:round;stroke-miterlimit:10;}
	.st25{fill:#FFFFFF;stroke:#00A4E4;stroke-width:0.69;stroke-miterlimit:10;}
</style>
<g>
	<path class="st14" d="M20.63,20.68H3.37c-0.51,0-0.92-0.41-0.92-0.92V6.77c0-0.51,0.41-0.92,0.92-0.92h17.25
		c0.51,0,0.92,0.41,0.92,0.92v12.99C21.55,20.27,21.14,20.68,20.63,20.68z"/>
	<path class="st15" d="M12.87,5.7V4.44c0,0-0.24-1.12-1.48-1.12S9.85,4.49,9.85,4.49v8.86"/>
	<path class="st15" d="M8.15,5.7V4.44c0,0-0.24-1.12-1.48-1.12S5.13,4.49,5.13,4.49v8.86"/>
	<line class="st15" x1="5.27" y1="8.12" x2="9.7" y2="8.12"/>
	<line class="st15" x1="5.27" y1="10.81" x2="9.7" y2="10.81"/>
	<g>
		<path class="st16" d="M2.79,12.16c1.15,0,1.15,1.43,2.3,1.43c1.15,0,1.15-1.43,2.3-1.43c1.15,0,1.15,1.43,2.3,1.43
			c1.15,0,1.15-1.43,2.3-1.43c1.15,0,1.15,1.43,2.3,1.43c1.15,0,1.15-1.43,2.3-1.43c1.15,0,1.15,1.43,2.31,1.43s1.15-1.43,2.31-1.43
			"/>
	</g>
	<g>
		<path class="st16" d="M2.79,15.57c1.15,0,1.15,1.43,2.3,1.43c1.15,0,1.15-1.43,2.3-1.43c1.15,0,1.15,1.43,2.3,1.43
			c1.15,0,1.15-1.43,2.3-1.43c1.15,0,1.15,1.43,2.3,1.43c1.15,0,1.15-1.43,2.3-1.43c1.15,0,1.15,1.43,2.31,1.43s1.15-1.43,2.31-1.43
			"/>
	</g>
</g>
</svg>
