<?xml version="1.0" encoding="utf-8"?>
<!-- Generator: Adobe Illustrator 28.1.0, SVG Export Plug-In . SVG Version: 6.00 Build 0)  -->
<svg version="1.1" id="Layer_1" xmlns="http://www.w3.org/2000/svg" xmlns:xlink="http://www.w3.org/1999/xlink" x="0px" y="0px"
	 viewBox="0 0 24 24" style="enable-background:new 0 0 24 24;" xml:space="preserve">
<style type="text/css">
	.st0{fill:#FFFFFF;stroke:#00A4E4;stroke-width:0.4599;stroke-linecap:round;stroke-linejoin:round;stroke-miterlimit:10;}
	.st1{fill:#00A4E4;}
	.st2{fill:#FFFFFF;stroke:#005288;stroke-width:0.5435;stroke-miterlimit:10;}
	.st3{fill:#FFFFFF;stroke:#005288;stroke-width:0.5435;stroke-linecap:round;stroke-linejoin:round;stroke-miterlimit:10;}
	.st4{fill:#FFFFFF;stroke:#005288;stroke-width:0.5017;stroke-linecap:round;stroke-linejoin:round;stroke-miterlimit:10;}
	.st5{fill:#005288;}
	.st6{fill:#FFFFFF;}
	.st7{fill:none;stroke:#00A4E4;stroke-width:0.5928;stroke-linecap:round;stroke-linejoin:round;stroke-miterlimit:10;}
	.st8{fill:none;stroke:#005288;stroke-width:0.6384;stroke-miterlimit:10;}
	.st9{fill:#FFFFFF;stroke:#005288;stroke-width:0.6384;stroke-miterlimit:10;}
	.st10{fill:#FFFFFF;stroke:#00A4E4;stroke-width:0.546;stroke-linecap:round;stroke-linejoin:round;stroke-miterlimit:10;}
	.st11{fill:#FFFFFF;stroke:#00A4E4;stroke-width:0.546;stroke-miterlimit:10;}
	.st12{fill:#FFFFFF;stroke:#00A4E4;stroke-width:0.4884;stroke-miterlimit:10;}
	.st13{fill:#FFFFFF;stroke:#005288;stroke-width:0.5928;stroke-miterlimit:10;}
	.st14{fill:#FFFFFF;stroke:#005288;stroke-width:0.456;stroke-miterlimit:10;}
	.st15{fill:none;stroke:#005288;stroke-width:0.5113;stroke-linecap:round;stroke-linejoin:round;stroke-miterlimit:10;}
	.st16{fill:none;stroke:#005288;stroke-width:0.456;stroke-linecap:round;stroke-miterlimit:10;}
	.st17{fill:none;stroke:#005288;stroke-width:0.6384;stroke-linecap:round;stroke-miterlimit:10;}
	.st18{fill:#FFFFFF;stroke:#005288;stroke-width:0.6384;stroke-linecap:round;stroke-linejoin:round;stroke-miterlimit:10;}
	.st19{fill:#FFFFFF;stroke:#005288;stroke-width:0.6384;stroke-linecap:round;stroke-miterlimit:10;}
	.st20{fill:#FFFFFF;stroke:#005288;stroke-width:0.5928;stroke-linecap:round;stroke-miterlimit:10;}
	.st21{fill:#C9ECF9;}
	.st22{fill:none;stroke:#00A4E4;stroke-width:0.7296;stroke-linecap:round;stroke-miterlimit:10;}
	.st23{fill:#FFFFFF;stroke:#005288;stroke-width:0.6101;stroke-linecap:round;stroke-miterlimit:10;}
	.st24{fill:none;stroke:#005288;stroke-width:0.7978;stroke-linecap:round;stroke-linejoin:round;stroke-miterlimit:10;}
	.st25{fill:#FFFFFF;stroke:#005288;stroke-width:0.6101;stroke-linecap:round;stroke-linejoin:round;stroke-miterlimit:10;}
</style>
<g>
	<g>
		<g>
			<line class="st0" x1="13.08" y1="12.72" x2="13.08" y2="8.72"/>
			<path class="st1" d="M13.45,10.17l-0.58,0.33c-0.07,0.04-0.16,0.02-0.2-0.05l-0.02-0.03c-0.04-0.07-0.02-0.16,0.05-0.2l0.58-0.33
				c0.07-0.04,0.16-0.02,0.2,0.05l0.02,0.03C13.55,10.03,13.52,10.12,13.45,10.17z"/>
			<path class="st1" d="M13.45,11.12l-0.58,0.33c-0.07,0.04-0.16,0.02-0.2-0.05l-0.02-0.03c-0.04-0.07-0.02-0.16,0.05-0.2l0.58-0.33
				c0.07-0.04,0.16-0.02,0.2,0.05l0.02,0.03C13.55,10.99,13.52,11.08,13.45,11.12z"/>
			<path class="st1" d="M13.45,12.05l-0.58,0.33c-0.07,0.04-0.16,0.02-0.2-0.05l-0.02-0.03c-0.04-0.07-0.02-0.16,0.05-0.2l0.58-0.33
				c0.07-0.04,0.16-0.02,0.2,0.05l0.02,0.03C13.55,11.92,13.52,12.01,13.45,12.05z"/>
		</g>
		<rect x="7.38" y="7.4" class="st2" width="1.9" height="12.33"/>
		<path class="st3" d="M14.27,8.72h-1.22H11.9c-0.17,0-0.3-0.13-0.3-0.3V7.76c0-0.17,0.13-0.3,0.3-0.3h2.37c0.17,0,0.3,0.13,0.3,0.3
			v0.66C14.57,8.58,14.43,8.72,14.27,8.72z"/>
		<path class="st3" d="M14.69,7.43H5.71c-0.48,0-0.86-0.39-0.86-0.86V3.73c0-0.48,0.39-0.86,0.86-0.86h8.98
			c0.48,0,0.86,0.39,0.86,0.86v2.83C15.55,7.04,15.17,7.43,14.69,7.43z"/>
		<path class="st4" d="M16.11,15.26h-5.67c-0.03,0-0.06-0.03-0.06-0.06v-1.14c0-0.03,0.03-0.06,0.06-0.06h5.67
			c0.03,0,0.06,0.03,0.06,0.06v1.14C16.17,15.24,16.14,15.26,16.11,15.26z"/>
		<path class="st4" d="M13.85,16.76H6.29c-0.18,0-0.33-0.15-0.33-0.33v-0.81c0-0.18,0.15-0.33,0.33-0.33h7.56
			c0.18,0,0.33,0.15,0.33,0.33v0.81C14.18,16.61,14.03,16.76,13.85,16.76z"/>
		<path class="st3" d="M15.99,21.87H4.7v-1.59c0-0.45,0.36-0.81,0.81-0.81h9.67c0.45,0,0.81,0.36,0.81,0.81V21.87z"/>
		<g>
			<circle class="st5" cx="18.77" cy="5.15" r="0.52"/>
			<g>
				<path class="st5" d="M18.3,5.38h-2.57c-0.13,0-0.23-0.1-0.23-0.23s0.1-0.23,0.23-0.23h2.57c0.13,0,0.23,0.1,0.23,0.23
					S18.43,5.38,18.3,5.38z"/>
			</g>
		</g>
		<g>
			<circle class="st5" cx="18.06" cy="2.65" r="0.52"/>
			<g>
				<line class="st6" x1="17.72" y1="2.99" x2="15.9" y2="4.8"/>
				<path class="st5" d="M17.88,3.15l-1.82,1.82c-0.09,0.09-0.24,0.09-0.33,0c-0.09-0.09-0.09-0.24,0-0.33l1.82-1.82
					c0.09-0.09,0.24-0.09,0.33,0C17.97,2.91,17.97,3.06,17.88,3.15z"/>
			</g>
		</g>
		<g>
			<circle class="st5" cx="18.06" cy="7.71" r="0.52"/>
			<g>
				<line class="st6" x1="17.72" y1="7.38" x2="15.9" y2="5.56"/>
				<path class="st5" d="M17.88,7.21L16.07,5.4c-0.09-0.09-0.24-0.09-0.33,0c-0.09,0.09-0.09,0.24,0,0.33l1.82,1.82
					c0.09,0.09,0.24,0.09,0.33,0C17.97,7.45,17.97,7.3,17.88,7.21z"/>
			</g>
		</g>
	</g>
	<line class="st7" x1="5.82" y1="4.79" x2="12.49" y2="4.79"/>
</g>
</svg>
