<?xml version="1.0" encoding="utf-8"?>
<!-- Generator: Adobe Illustrator 28.1.0, SVG Export Plug-In . SVG Version: 6.00 Build 0)  -->
<svg version="1.1" id="Layer_1" xmlns="http://www.w3.org/2000/svg" xmlns:xlink="http://www.w3.org/1999/xlink" x="0px" y="0px"
	 viewBox="0 0 24 24" style="enable-background:new 0 0 24 24;" xml:space="preserve">
<style type="text/css">
	.st0{fill:#FFFFFF;stroke:#00A4E4;stroke-width:0.4599;stroke-linecap:round;stroke-linejoin:round;stroke-miterlimit:10;}
	.st1{fill:#00A4E4;}
	.st2{fill:#FFFFFF;stroke:#005288;stroke-width:0.5435;stroke-miterlimit:10;}
	.st3{fill:#FFFFFF;stroke:#005288;stroke-width:0.5435;stroke-linecap:round;stroke-linejoin:round;stroke-miterlimit:10;}
	.st4{fill:#FFFFFF;stroke:#005288;stroke-width:0.5017;stroke-linecap:round;stroke-linejoin:round;stroke-miterlimit:10;}
	.st5{fill:#005288;}
	.st6{fill:#FFFFFF;}
	.st7{fill:none;stroke:#00A4E4;stroke-width:0.5928;stroke-linecap:round;stroke-linejoin:round;stroke-miterlimit:10;}
	.st8{fill:none;stroke:#005288;stroke-width:0.6384;stroke-miterlimit:10;}
	.st9{fill:#FFFFFF;stroke:#005288;stroke-width:0.6384;stroke-miterlimit:10;}
	.st10{fill:#FFFFFF;stroke:#00A4E4;stroke-width:0.546;stroke-linecap:round;stroke-linejoin:round;stroke-miterlimit:10;}
	.st11{fill:#FFFFFF;stroke:#00A4E4;stroke-width:0.546;stroke-miterlimit:10;}
	.st12{fill:#FFFFFF;stroke:#00A4E4;stroke-width:0.4884;stroke-miterlimit:10;}
	.st13{fill:#FFFFFF;stroke:#005288;stroke-width:0.5928;stroke-miterlimit:10;}
	.st14{fill:#FFFFFF;stroke:#005288;stroke-width:0.456;stroke-miterlimit:10;}
	.st15{fill:none;stroke:#005288;stroke-width:0.5113;stroke-linecap:round;stroke-linejoin:round;stroke-miterlimit:10;}
	.st16{fill:none;stroke:#005288;stroke-width:0.456;stroke-linecap:round;stroke-miterlimit:10;}
	.st17{fill:none;stroke:#005288;stroke-width:0.6384;stroke-linecap:round;stroke-miterlimit:10;}
	.st18{fill:#FFFFFF;stroke:#005288;stroke-width:0.6384;stroke-linecap:round;stroke-linejoin:round;stroke-miterlimit:10;}
	.st19{fill:#FFFFFF;stroke:#005288;stroke-width:0.6384;stroke-linecap:round;stroke-miterlimit:10;}
	.st20{fill:#FFFFFF;stroke:#005288;stroke-width:0.5928;stroke-linecap:round;stroke-miterlimit:10;}
	.st21{fill:#C9ECF9;}
	.st22{fill:none;stroke:#00A4E4;stroke-width:0.7296;stroke-linecap:round;stroke-miterlimit:10;}
	.st23{fill:#FFFFFF;stroke:#005288;stroke-width:0.6101;stroke-linecap:round;stroke-miterlimit:10;}
	.st24{fill:none;stroke:#005288;stroke-width:0.7978;stroke-linecap:round;stroke-linejoin:round;stroke-miterlimit:10;}
	.st25{fill:#FFFFFF;stroke:#005288;stroke-width:0.6101;stroke-linecap:round;stroke-linejoin:round;stroke-miterlimit:10;}
</style>
<g>
	<path class="st8" d="M19.02,16.33h-7.87c-0.92,0-1.66-0.74-1.66-1.66v-3.35h9.54V16.33z"/>
	<path class="st9" d="M5.17,20.3H4.23C4.1,20.3,4,20.2,4,20.07v-8.77c0-0.13,0.1-0.23,0.23-0.23h0.94c0.13,0,0.23,0.1,0.23,0.23
		v8.77C5.4,20.2,5.3,20.3,5.17,20.3z"/>
	<path class="st9" d="M19.98,20.3h-0.94c-0.13,0-0.23-0.1-0.23-0.23v-8.9c0-0.13,0.1-0.23,0.23-0.23h0.94c0.13,0,0.23,0.1,0.23,0.23
		v8.9C20.22,20.2,20.11,20.3,19.98,20.3z"/>
	<polygon class="st10" points="11.79,7.72 10.65,7.06 12.4,6.17 11.72,5.06 13.81,5.1 13.78,3.8 15.43,4.89 16.11,3.7 17.02,5.51 
		18.25,4.79 18.15,6.93 19.39,6.91 18.64,8.13 11.91,8.13 	"/>
	<path class="st11" d="M11.84,8.39c0-1.76,1.43-3.19,3.19-3.19s3.19,1.43,3.19,3.19s-1.43,2.27-3.19,2.27S11.84,10.15,11.84,8.39z"
		/>
	<path class="st9" d="M21.52,11.4H2.48c-0.09,0-0.16-0.07-0.16-0.16V8.93c0-0.44,0.36-0.79,0.79-0.79h17.78
		c0.44,0,0.79,0.36,0.79,0.79v2.31C21.69,11.32,21.61,11.4,21.52,11.4z"/>
	<line class="st9" x1="5.41" y1="18.16" x2="18.83" y2="18.16"/>
	<circle class="st12" cx="8.9" cy="9.73" r="0.63"/>
	<circle class="st12" cx="6.7" cy="9.73" r="0.63"/>
	<circle class="st12" cx="4.5" cy="9.73" r="0.63"/>
</g>
</svg>
