<?xml version="1.0" encoding="utf-8"?>
<!-- Generator: Adobe Illustrator 28.1.0, SVG Export Plug-In . SVG Version: 6.00 Build 0)  -->
<svg version="1.1" id="Layer_1" xmlns="http://www.w3.org/2000/svg" xmlns:xlink="http://www.w3.org/1999/xlink" x="0px" y="0px"
	 viewBox="0 0 24 24" style="enable-background:new 0 0 24 24;" xml:space="preserve">
<style type="text/css">
	.st0{fill:#FFFFFF;stroke:#00A4E4;stroke-width:0.4599;stroke-linecap:round;stroke-linejoin:round;stroke-miterlimit:10;}
	.st1{fill:#00A4E4;}
	.st2{fill:#FFFFFF;stroke:#005288;stroke-width:0.5435;stroke-miterlimit:10;}
	.st3{fill:#FFFFFF;stroke:#005288;stroke-width:0.5435;stroke-linecap:round;stroke-linejoin:round;stroke-miterlimit:10;}
	.st4{fill:#FFFFFF;stroke:#005288;stroke-width:0.5017;stroke-linecap:round;stroke-linejoin:round;stroke-miterlimit:10;}
	.st5{fill:#005288;}
	.st6{fill:#FFFFFF;}
	.st7{fill:none;stroke:#00A4E4;stroke-width:0.5928;stroke-linecap:round;stroke-linejoin:round;stroke-miterlimit:10;}
	.st8{fill:none;stroke:#005288;stroke-width:0.6384;stroke-miterlimit:10;}
	.st9{fill:#FFFFFF;stroke:#005288;stroke-width:0.6384;stroke-miterlimit:10;}
	.st10{fill:#FFFFFF;stroke:#00A4E4;stroke-width:0.546;stroke-linecap:round;stroke-linejoin:round;stroke-miterlimit:10;}
	.st11{fill:#FFFFFF;stroke:#00A4E4;stroke-width:0.546;stroke-miterlimit:10;}
	.st12{fill:#FFFFFF;stroke:#00A4E4;stroke-width:0.4884;stroke-miterlimit:10;}
	.st13{fill:#FFFFFF;stroke:#005288;stroke-width:0.5928;stroke-miterlimit:10;}
	.st14{fill:#FFFFFF;stroke:#005288;stroke-width:0.456;stroke-miterlimit:10;}
	.st15{fill:none;stroke:#005288;stroke-width:0.5113;stroke-linecap:round;stroke-linejoin:round;stroke-miterlimit:10;}
	.st16{fill:none;stroke:#005288;stroke-width:0.456;stroke-linecap:round;stroke-miterlimit:10;}
	.st17{fill:none;stroke:#005288;stroke-width:0.6384;stroke-linecap:round;stroke-miterlimit:10;}
	.st18{fill:#FFFFFF;stroke:#005288;stroke-width:0.6384;stroke-linecap:round;stroke-linejoin:round;stroke-miterlimit:10;}
	.st19{fill:#FFFFFF;stroke:#005288;stroke-width:0.6384;stroke-linecap:round;stroke-miterlimit:10;}
	.st20{fill:#FFFFFF;stroke:#005288;stroke-width:0.5928;stroke-linecap:round;stroke-miterlimit:10;}
	.st21{fill:#C9ECF9;}
	.st22{fill:none;stroke:#00A4E4;stroke-width:0.7296;stroke-linecap:round;stroke-miterlimit:10;}
	.st23{fill:#FFFFFF;stroke:#005288;stroke-width:0.6101;stroke-linecap:round;stroke-miterlimit:10;}
	.st24{fill:none;stroke:#005288;stroke-width:0.7978;stroke-linecap:round;stroke-linejoin:round;stroke-miterlimit:10;}
	.st25{fill:#FFFFFF;stroke:#005288;stroke-width:0.6101;stroke-linecap:round;stroke-linejoin:round;stroke-miterlimit:10;}
</style>
<g>
	<path d="M17.16,8.05c-0.03,0.03-0.04,0.08-0.04,0.13c0,0.19-0.01,0.39-0.01,0.58c-0.01,0.51,0.05,1.01,0.48,1.34
		c0.52,0.43,1.62,0.3,2.13-0.01c0.27-0.19,0.38-0.51,0.45-0.83c0.07-0.35,0.06-0.74-0.04-1.08C20.1,8.07,19.99,8,19.87,8.01
		c-0.48,0-0.97,0-1.47,0c-0.35,0-0.71,0-1.08,0C17.27,8.01,17.2,8.01,17.16,8.05L17.16,8.05z"/>
	<g>
		<line class="st17" x1="17.38" y1="5.35" x2="17.38" y2="7.13"/>
		<line class="st17" x1="20.14" y1="5.35" x2="20.14" y2="7.13"/>
	</g>
	<path class="st18" d="M20.55,8.16h-3.59c-0.22,0-0.39-0.18-0.39-0.39V7.52c0-0.22,0.18-0.39,0.39-0.39h3.59
		c0.22,0,0.39,0.18,0.39,0.39v0.25C20.95,7.99,20.77,8.16,20.55,8.16z"/>
	<path class="st19" d="M18.76,10.64L18.76,10.64c-0.85,0-1.55-0.69-1.55-1.55V8.16h3.09v0.93C20.31,9.95,19.61,10.64,18.76,10.64z"
		/>
	<path class="st17" d="M18.79,10.8l-0.1,2.35c0,1.3,0.44,2.2,1.48,2.85c1.77,1.11,1.12,4.91-1.34,4.91h-6.62"/>
	<path class="st20" d="M6.22,3.9H5.36V3.52c0-0.67,0.54-1.2,1.2-1.2h4.03c0.67,0,1.2,0.54,1.2,1.2V3.9h-1.17"/>
	<path class="st19" d="M9.15,3.9h3.94c0.69,0,1.25,0.56,1.25,1.25v15.3c0,0.69-0.56,1.25-1.25,1.25H4.07
		c-0.69,0-1.25-0.56-1.25-1.25V5.14c0-0.69,0.56-1.25,1.25-1.25h2.52"/>
	<path class="st1" d="M7.7,9.34C7.67,9.3,7.61,9.3,7.57,9.3c-0.42,0-0.8,0-1.15,0c-0.05,0-0.1-0.01-0.14-0.05
		C6.17,9.12,6.23,8.93,6.33,8.81C7.3,7.65,8.27,6.48,9.24,5.32c0.31-0.38,0.6-0.19,0.5,0.27C9.63,6.16,9.49,6.73,9.37,7.3
		C9.35,7.42,9.33,7.53,9.32,7.66C9.3,7.76,9.36,7.83,9.47,7.83c0.55,0.09,1.98-0.3,1.17,0.7c-1.04,1.2-2.07,2.41-3.11,3.61
		c-0.35,0.41-0.62,0.18-0.46-0.29c0.2-0.75,0.43-1.5,0.62-2.26C7.69,9.52,7.74,9.41,7.7,9.34L7.7,9.34z M7.8,10.94
		c0.01,0.01,0.02,0.01,0.04,0.01c0.09-0.01,0.18-0.07,0.24-0.15c0.65-0.76,1.32-1.5,1.95-2.27c0.07-0.09,0.07-0.2-0.06-0.22
		c-0.27-0.1-1.22,0.17-1.23-0.22C8.75,7.59,9,7.12,8.99,6.61c0-0.04,0-0.09-0.03-0.1C8.93,6.5,8.88,6.55,8.86,6.58
		C8.28,7.19,7.73,7.82,7.2,8.46C7.12,8.55,7.02,8.68,7.04,8.79c0.02,0.05,0.09,0.05,0.14,0.05c0.29,0.01,0.51-0.02,0.78,0.01
		c0.16,0.02,0.38,0.13,0.31,0.33c-0.14,0.52-0.29,1.05-0.45,1.64C7.8,10.85,7.78,10.91,7.8,10.94L7.8,10.94z"/>
	<rect x="3.72" y="13.59" class="st21" width="9.72" height="2.05"/>
	<rect x="3.72" y="16.17" class="st21" width="9.72" height="2.05"/>
	<path class="st1" d="M12.85,20.8H4.31c-0.33,0-0.59-0.26-0.59-0.59v-1.46h9.72v1.46C13.44,20.54,13.18,20.8,12.85,20.8z"/>
</g>
</svg>
