<?xml version="1.0" encoding="utf-8"?>
<!-- Generator: Adobe Illustrator 28.1.0, SVG Export Plug-In . SVG Version: 6.00 Build 0)  -->
<svg version="1.1" id="Layer_1" xmlns="http://www.w3.org/2000/svg" xmlns:xlink="http://www.w3.org/1999/xlink" x="0px" y="0px"
	 viewBox="0 0 24 24" style="enable-background:new 0 0 24 24;" xml:space="preserve">
<style type="text/css">
	.st0{fill:#FFFFFF;stroke:#00A4E4;stroke-width:0.4599;stroke-linecap:round;stroke-linejoin:round;stroke-miterlimit:10;}
	.st1{fill:#00A4E4;}
	.st2{fill:#FFFFFF;stroke:#005288;stroke-width:0.5435;stroke-miterlimit:10;}
	.st3{fill:#FFFFFF;stroke:#005288;stroke-width:0.5435;stroke-linecap:round;stroke-linejoin:round;stroke-miterlimit:10;}
	.st4{fill:#FFFFFF;stroke:#005288;stroke-width:0.5017;stroke-linecap:round;stroke-linejoin:round;stroke-miterlimit:10;}
	.st5{fill:#005288;}
	.st6{fill:#FFFFFF;}
	.st7{fill:none;stroke:#00A4E4;stroke-width:0.5928;stroke-linecap:round;stroke-linejoin:round;stroke-miterlimit:10;}
	.st8{fill:none;stroke:#005288;stroke-width:0.6384;stroke-miterlimit:10;}
	.st9{fill:#FFFFFF;stroke:#005288;stroke-width:0.6384;stroke-miterlimit:10;}
	.st10{fill:#FFFFFF;stroke:#00A4E4;stroke-width:0.546;stroke-linecap:round;stroke-linejoin:round;stroke-miterlimit:10;}
	.st11{fill:#FFFFFF;stroke:#00A4E4;stroke-width:0.546;stroke-miterlimit:10;}
	.st12{fill:#FFFFFF;stroke:#00A4E4;stroke-width:0.4884;stroke-miterlimit:10;}
	.st13{fill:#FFFFFF;stroke:#005288;stroke-width:0.5928;stroke-miterlimit:10;}
	.st14{fill:#FFFFFF;stroke:#005288;stroke-width:0.456;stroke-miterlimit:10;}
	.st15{fill:none;stroke:#005288;stroke-width:0.5113;stroke-linecap:round;stroke-linejoin:round;stroke-miterlimit:10;}
	.st16{fill:none;stroke:#005288;stroke-width:0.456;stroke-linecap:round;stroke-miterlimit:10;}
	.st17{fill:none;stroke:#005288;stroke-width:0.6384;stroke-linecap:round;stroke-miterlimit:10;}
	.st18{fill:#FFFFFF;stroke:#005288;stroke-width:0.6384;stroke-linecap:round;stroke-linejoin:round;stroke-miterlimit:10;}
	.st19{fill:#FFFFFF;stroke:#005288;stroke-width:0.6384;stroke-linecap:round;stroke-miterlimit:10;}
	.st20{fill:#FFFFFF;stroke:#005288;stroke-width:0.5928;stroke-linecap:round;stroke-miterlimit:10;}
	.st21{fill:#C9ECF9;}
	.st22{fill:none;stroke:#00A4E4;stroke-width:0.7296;stroke-linecap:round;stroke-miterlimit:10;}
	.st23{fill:#FFFFFF;stroke:#005288;stroke-width:0.6101;stroke-linecap:round;stroke-miterlimit:10;}
	.st24{fill:none;stroke:#005288;stroke-width:0.7978;stroke-linecap:round;stroke-linejoin:round;stroke-miterlimit:10;}
	.st25{fill:#FFFFFF;stroke:#005288;stroke-width:0.6101;stroke-linecap:round;stroke-linejoin:round;stroke-miterlimit:10;}
</style>
<g>
	<rect x="13.39" y="16.6" class="st13" width="1.55" height="2.95"/>
	<path class="st13" d="M21.41,13.24h-3.48c-0.16,0-0.3-0.13-0.3-0.3V11.7c0-0.16,0.13-0.3,0.3-0.3h3.48c0.16,0,0.3,0.13,0.3,0.3
		v1.25C21.7,13.11,21.57,13.24,21.41,13.24z"/>
	<path class="st13" d="M19.42,15.06h-3.06c-0.28,0-0.51-0.23-0.51-0.51v-4.37c0-0.28,0.23-0.51,0.51-0.51h3.06
		c0.28,0,0.51,0.23,0.51,0.51v4.37C19.93,14.83,19.7,15.06,19.42,15.06z"/>
	<path class="st13" d="M16.23,17.08H8.69c-0.57,0-1.03-0.46-1.03-1.03V8.78c0-0.57,0.46-1.03,1.03-1.03h7.54
		c0.57,0,1.03,0.46,1.03,1.03v7.27C17.26,16.62,16.8,17.08,16.23,17.08z"/>
	<rect x="5.91" y="17" class="st13" width="1.55" height="2.95"/>
	<path class="st13" d="M20.6,20.59H2.3v-0.96c0-0.4,0.32-0.72,0.72-0.72h16.87c0.4,0,0.72,0.32,0.72,0.72V20.59z"/>
	<path class="st13" d="M5.48,17.55h3.27V7.18H5.48c-1.71,0-3.1,1.39-3.1,3.1v4.17C2.37,16.16,3.76,17.55,5.48,17.55z"/>
	<ellipse class="st14" cx="12.94" cy="6.07" rx="2.67" ry="2.66"/>
	<line class="st15" x1="3.87" y1="9.48" x2="5.94" y2="9.48"/>
	<line class="st15" x1="3.87" y1="10.86" x2="5.94" y2="10.86"/>
	<line class="st7" x1="10.19" y1="11.16" x2="15.55" y2="11.16"/>
	<line class="st7" x1="10.19" y1="12.67" x2="15.55" y2="12.67"/>
	<line class="st7" x1="10.19" y1="14.19" x2="15.55" y2="14.19"/>
	<ellipse class="st14" cx="12.94" cy="6.07" rx="1.94" ry="1.94"/>
	<circle class="st14" cx="12.94" cy="6.03" r="0.49"/>
	<line class="st16" x1="12.94" y1="4.91" x2="12.94" y2="5.48"/>
</g>
</svg>
